base.ufo
<glyph name="numbersign" format="1">
  <advance width="657"/>
  <unicode hex="0023"/>
  <outline>
    <contour>
      <point x="37" y="248" type="line" name=""/>
      <point x="522" y="248" type="line"/>
      <point x="528" y="268" type="line"/>
      <point x="44" y="268" type="line"/>
    </contour>
    <contour>
      <point x="110" y="493" type="line"/>
      <point x="595" y="493" type="line"/>
      <point x="601" y="513" type="line"/>
      <point x="117" y="513" type="line"/>
    </contour>
    <contour>
      <point x="375" y="39" type="line" name="stem2"/>
      <point x="375" y="39"/>
      <point x="592" y="722"/>
      <point x="592" y="722" type="curve"/>
      <point x="570" y="722" type="line"/>
      <point x="570" y="722"/>
      <point x="353" y="39"/>
      <point x="353" y="39" type="curve" name="stem2"/>
    </contour>
    <contour>
      <point x="95" y="46" type="line" name="stem"/>
      <point x="95" y="46"/>
      <point x="308" y="722"/>
      <point x="308" y="722" type="curve"/>
      <point x="286" y="722" type="line"/>
      <point x="286" y="722"/>
      <point x="74" y="46"/>
      <point x="74" y="46" type="curve" name="stem"/>
    </contour>
  </outline>
</glyph>
<glyph name="dollar" format="1">
  <advance width="520"/>
  <unicode hex="0024"/>
  <outline>
    <contour>
      <point x="69" y="99" type="line"/>
      <point x="69" y="192" type="line" name="blt"/>
      <point x="49" y="192" type="line" name="blt"/>
      <point x="49" y="99" type="line"/>
    </contour>
    <contour>
      <point x="434" y="631" type="line"/>
      <point x="434" y="548" type="line" name="trb"/>
      <point x="454" y="548" type="line" name="trb"/>
      <point x="454" y="631" type="line"/>
    </contour>
    <contour>
      <point x="255" y="-44" type="line"/>
      <point x="255" y="58" type="line"/>
      <point x="233" y="58" type="line"/>
      <point x="233" y="-44" type="line"/>
    </contour>
    <contour>
      <point x="267" y="672" type="line"/>
      <point x="267" y="774" type="line"/>
      <point x="245" y="774" type="line"/>
      <point x="245" y="672" type="line"/>
    </contour>
    <contour>
      <point x="49" y="99" type="line" name="blt"/>
      <point x="103" y="72"/>
      <point x="168" y="48"/>
      <point x="243" y="48" type="curve" smooth="yes"/>
      <point x="369" y="48"/>
      <point x="470" y="97"/>
      <point x="470" y="198" type="curve" smooth="yes"/>
      <point x="470" y="297"/>
      <point x="370" y="339"/>
      <point x="265" y="384" type="curve" smooth="yes" name="bow"/>
      <point x="172" y="424"/>
      <point x="96" y="456"/>
      <point x="96" y="543" type="curve" smooth="yes" name=""/>
      <point x="96" y="621"/>
      <point x="167" y="663"/>
      <point x="261" y="663" type="curve" smooth="yes"/>
      <point x="332" y="663"/>
      <point x="382" y="647"/>
      <point x="443" y="614" type="curve"/>
      <point x="454" y="631" type="line" name="trb"/>
      <point x="390" y="665"/>
      <point x="337" y="683"/>
      <point x="262" y="683" type="curve" smooth="yes"/>
      <point x="154" y="683"/>
      <point x="74" y="633"/>
      <point x="74" y="543" type="curve" smooth="yes" name=""/>
      <point x="74" y="449"/>
      <point x="153" y="408"/>
      <point x="252" y="366" type="curve" smooth="yes" name="bow"/>
      <point x="351" y="325"/>
      <point x="448" y="290"/>
      <point x="448" y="197" type="curve" smooth="yes"/>
      <point x="448" y="106"/>
      <point x="358" y="68"/>
      <point x="245" y="68" type="curve" smooth="yes"/>
      <point x="174" y="68"/>
      <point x="112" y="92"/>
      <point x="61" y="117" type="curve"/>
    </contour>
  </outline>
</glyph>
<glyph name="percent" format="1">
  <advance width="810"/>
  <unicode hex="0025"/>
  <outline>
    <contour>
      <point x="486" y="176" type="line"/>
      <point x="486" y="271"/>
      <point x="533" y="343"/>
      <point x="622" y="343" type="curve" smooth="yes" name=""/>
      <point x="710" y="343"/>
      <point x="758" y="270"/>
      <point x="758" y="177" type="curve"/>
      <point x="758" y="83"/>
      <point x="711" y="8"/>
      <point x="624" y="8" type="curve" smooth="yes"/>
      <point x="535" y="8"/>
      <point x="486" y="82"/>
      <point x="486" y="176" type="curve"/>
      <point x="465" y="176" type="line"/>
      <point x="465" y="70"/>
      <point x="522" y="-12"/>
      <point x="623" y="-12" type="curve" smooth="yes"/>
      <point x="724" y="-12"/>
      <point x="780" y="70"/>
      <point x="780" y="178" type="curve" smooth="yes"/>
      <point x="780" y="283"/>
      <point x="722" y="363"/>
      <point x="623" y="363" type="curve" smooth="yes" name=""/>
      <point x="520" y="364"/>
      <point x="465" y="284"/>
      <point x="465" y="176" type="curve"/>
    </contour>
    <contour>
      <point x="54" y="675" type="line"/>
      <point x="54" y="770"/>
      <point x="101" y="842"/>
      <point x="190" y="842" type="curve" smooth="yes" name=""/>
      <point x="278" y="843"/>
      <point x="326" y="769"/>
      <point x="326" y="676" type="curve"/>
      <point x="326" y="582"/>
      <point x="279" y="507"/>
      <point x="192" y="507" type="curve" smooth="yes"/>
      <point x="103" y="507"/>
      <point x="54" y="581"/>
      <point x="54" y="675" type="curve"/>
      <point x="33" y="675" type="line"/>
      <point x="33" y="568"/>
      <point x="87" y="487"/>
      <point x="191" y="487" type="curve" smooth="yes"/>
      <point x="292" y="487"/>
      <point x="348" y="569"/>
      <point x="348" y="677" type="curve" smooth="yes"/>
      <point x="348" y="782"/>
      <point x="290" y="862"/>
      <point x="191" y="862" type="curve" smooth="yes" name=""/>
      <point x="88" y="862"/>
      <point x="33" y="783"/>
      <point x="33" y="675" type="curve"/>
    </contour>
    <contour>
      <point x="202" y="0" type="line" name=""/>
      <point x="628" y="852" type="line" name="stem"/>
      <point x="606" y="852" type="line" name="stem"/>
      <point x="180" y="0" type="line" name=""/>
    </contour>
  </outline>
</glyph>
<glyph name="ampersand" format="1">
  <advance width="644"/>
  <unicode hex="0026"/>
  <outline>
    <contour>
      <point x="634" y="0" type="line"/>
      <point x="290" y="348" type="line" smooth="yes"/>
      <point x="225" y="421"/>
      <point x="147" y="478"/>
      <point x="147" y="577" type="curve" smooth="yes"/>
      <point x="147" y="650"/>
      <point x="192" y="702"/>
      <point x="264" y="702" type="curve" smooth="yes"/>
      <point x="341" y="702"/>
      <point x="395" y="654"/>
      <point x="395" y="579" type="curve" smooth="yes"/>
      <point x="395" y="483"/>
      <point x="322" y="435"/>
      <point x="236" y="386" type="curve" smooth="yes"/>
      <point x="142" y="331"/>
      <point x="57" y="283"/>
      <point x="57" y="177" type="curve" smooth="yes"/>
      <point x="57" y="66"/>
      <point x="143" y="0"/>
      <point x="259" y="0" type="curve" smooth="yes" name="over_bottom"/>
      <point x="439" y="0"/>
      <point x="534" y="138"/>
      <point x="589" y="318" type="curve"/>
      <point x="570" y="323" type="line"/>
      <point x="517" y="153"/>
      <point x="430" y="20"/>
      <point x="260" y="20" type="curve" smooth="yes"/>
      <point x="156" y="20"/>
      <point x="79" y="78"/>
      <point x="79" y="177" type="curve" smooth="yes"/>
      <point x="79" y="275"/>
      <point x="158" y="319"/>
      <point x="245" y="370" type="curve" smooth="yes"/>
      <point x="337" y="424"/>
      <point x="416" y="475"/>
      <point x="417" y="579" type="curve" smooth="yes"/>
      <point x="417" y="667"/>
      <point x="354" y="722"/>
      <point x="265" y="722" type="curve" smooth="yes" name="over_top"/>
      <point x="180" y="722"/>
      <point x="125" y="663"/>
      <point x="125" y="577" type="curve" smooth="yes"/>
      <point x="125" y="473"/>
      <point x="204" y="411"/>
      <point x="275" y="336" type="curve" smooth="yes"/>
      <point x="605" y="0" type="line"/>
    </contour>
  </outline>
</glyph>
<glyph name="parenleft" format="1">
  <advance width="436"/>
  <unicode hex="0028"/>
  <outline>
    <contour>
      <point x="367" y="-236" type="line" name="stem"/>
      <point x="200" y="-71"/>
      <point x="132" y="91"/>
      <point x="132" y="326" type="curve" smooth="yes"/>
      <point x="132" y="561"/>
      <point x="201" y="721"/>
      <point x="366" y="889" type="curve"/>
      <point x="353" y="902" type="line"/>
      <point x="181" y="733"/>
      <point x="109" y="568"/>
      <point x="109" y="326" type="curve" smooth="yes"/>
      <point x="109" y="84"/>
      <point x="182" y="-80"/>
      <point x="354" y="-250" type="curve" name="stem"/>
    </contour>
  </outline>
</glyph>
<glyph name="parenright" format="1">
  <advance width="509"/>
  <unicode hex="0029"/>
  <outline>
    <contour>
      <point x="152" y="-266" type="line" name="stem"/>
      <point x="327" y="-88"/>
      <point x="410" y="77"/>
      <point x="410" y="327" type="curve" smooth="yes"/>
      <point x="410" y="571"/>
      <point x="334" y="735"/>
      <point x="156" y="902" type="curve"/>
      <point x="143" y="888" type="line"/>
      <point x="313" y="722"/>
      <point x="387" y="563"/>
      <point x="387" y="326" type="curve" smooth="yes"/>
      <point x="387" y="84"/>
      <point x="304" y="-76"/>
      <point x="139" y="-253" type="curve" name="stem"/>
    </contour>
  </outline>
</glyph>
<glyph name="asterisk" format="1">
  <advance width="338"/>
  <unicode hex="002A"/>
  <outline>
    <contour>
      <point x="165" y="670" type="line"/>
      <point x="167" y="518" type="line"/>
      <point x="185" y="518" type="line"/>
      <point x="187" y="670" type="line"/>
    </contour>
    <contour>
      <point x="314" y="583" type="line"/>
      <point x="173" y="526" type="line"/>
      <point x="179" y="510" type="line"/>
      <point x="322" y="562" type="line"/>
    </contour>
    <contour>
      <point x="288" y="415" type="line"/>
      <point x="183" y="524" type="line"/>
      <point x="169" y="512" type="line"/>
      <point x="272" y="400" type="line"/>
    </contour>
    <contour>
      <point x="30" y="562" type="line"/>
      <point x="173" y="510" type="line"/>
      <point x="179" y="526" type="line"/>
      <point x="38" y="583" type="line"/>
    </contour>
    <contour>
      <point x="80" y="400" type="line"/>
      <point x="183" y="512" type="line"/>
      <point x="169" y="524" type="line"/>
      <point x="64" y="415" type="line"/>
    </contour>
  </outline>
</glyph>
<glyph name="period" format="1">
  <advance width="290"/>
  <unicode hex="002E"/>
  <outline>
    <contour>
      <point x="165" y="18" type="line" name=""/>
      <point x="165" y="30"/>
      <point x="157" y="37"/>
      <point x="145" y="37" type="curve" name="dot"/>
      <point x="134" y="37"/>
      <point x="127" y="29"/>
      <point x="127" y="18" type="curve" name=""/>
      <point x="165" y="18" type="line" name=""/>
      <point x="165" y="7"/>
      <point x="157" y="0"/>
      <point x="145" y="0" type="curve" name="dot"/>
      <point x="134" y="0"/>
      <point x="127" y="7"/>
      <point x="127" y="18" type="curve" name=""/>
    </contour>
  </outline>
</glyph>
<glyph name="zero" format="1">
  <advance width="750"/>
  <unicode hex="0030"/>
  <outline>
    <contour>
      <point x="135" y="360" type="line"/>
      <point x="135" y="559"/>
      <point x="212" y="702"/>
      <point x="394" y="702" type="curve" smooth="yes"/>
      <point x="574" y="702"/>
      <point x="651" y="560"/>
      <point x="651" y="363" type="curve"/>
      <point x="651" y="165"/>
      <point x="577" y="20"/>
      <point x="397" y="20" type="curve" smooth="yes"/>
      <point x="215" y="20"/>
      <point x="135" y="162"/>
      <point x="135" y="360" type="curve"/>
      <point x="114" y="360" type="line"/>
      <point x="114" y="150"/>
      <point x="202" y="0"/>
      <point x="396" y="0" type="curve" smooth="yes" name="over_bottom"/>
      <point x="589" y="0"/>
      <point x="672" y="152"/>
      <point x="672" y="363" type="curve" smooth="yes"/>
      <point x="672" y="572"/>
      <point x="588" y="722"/>
      <point x="396" y="722" type="curve" smooth="yes" name="over_top"/>
      <point x="201" y="722"/>
      <point x="114" y="571"/>
      <point x="114" y="360" type="curve"/>
    </contour>
  </outline>
</glyph>
<glyph name="one" format="1">
  <advance width="369"/>
  <unicode hex="0031"/>
  <outline>
    <contour>
      <point x="242" y="0" type="line"/>
      <point x="345" y="0" type="line" name="brr"/>
      <point x="345" y="20" type="line" name="brr"/>
      <point x="242" y="20" type="line"/>
    </contour>
    <contour>
      <point x="242" y="20" type="line"/>
      <point x="139" y="20" type="line" name="bll"/>
      <point x="139" y="0" type="line" name="bll"/>
      <point x="242" y="0" type="line"/>
    </contour>
    <contour>
      <point x="40" y="539" type="line"/>
      <point x="251" y="722" type="line"/>
      <point x="220" y="722" type="line"/>
      <point x="26" y="556" type="line"/>
    </contour>
    <contour>
      <point x="251" y="0" type="line" name="stem"/>
      <point x="251" y="722" type="line"/>
      <point x="229" y="722" type="line"/>
      <point x="229" y="0" type="line" name="stem"/>
    </contour>
  </outline>
</glyph>
<glyph name="two" format="1">
  <advance width="545"/>
  <unicode hex="0032"/>
  <outline>
    <contour>
      <point x="519" y="0" type="line"/>
      <point x="519" y="93" type="line" name="brt"/>
      <point x="499" y="93" type="line" name="brt"/>
      <point x="499" y="0" type="line"/>
    </contour>
    <contour>
      <point x="74" y="0" type="line"/>
      <point x="519" y="0" type="line"/>
      <point x="519" y="20" type="line" name="brt"/>
      <point x="64" y="20" type="line"/>
    </contour>
    <contour>
      <point x="103" y="564" type="line"/>
      <point x="148" y="647"/>
      <point x="201" y="702"/>
      <point x="293" y="702" type="curve" smooth="yes"/>
      <point x="398" y="702"/>
      <point x="460" y="637"/>
      <point x="460" y="526" type="curve" smooth="yes"/>
      <point x="460" y="395"/>
      <point x="391" y="324"/>
      <point x="292" y="236" type="curve"/>
      <point x="64" y="20" type="line"/>
      <point x="74" y="0" type="line"/>
      <point x="306" y="220" type="line"/>
      <point x="410" y="312"/>
      <point x="481" y="389"/>
      <point x="481" y="527" type="curve" smooth="yes"/>
      <point x="481" y="649"/>
      <point x="412" y="722"/>
      <point x="294" y="722" type="curve" smooth="yes" name="over_top"/>
      <point x="194" y="722"/>
      <point x="128" y="664"/>
      <point x="86" y="576" type="curve"/>
    </contour>
  </outline>
</glyph>
<glyph name="three" format="1">
  <advance width="526"/>
  <unicode hex="0033"/>
  <outline>
    <contour>
      <point x="65" y="56" type="line"/>
      <point x="124" y="18"/>
      <point x="174" y="0"/>
      <point x="245" y="0" type="curve" smooth="yes" name="over_bottom"/>
      <point x="380" y="0"/>
      <point x="470" y="62"/>
      <point x="470" y="195" type="curve" smooth="yes"/>
      <point x="470" y="321"/>
      <point x="376" y="393"/>
      <point x="231" y="393" type="curve"/>
      <point x="231" y="376" type="line"/>
      <point x="345" y="376"/>
      <point x="449" y="314"/>
      <point x="449" y="194" type="curve" smooth="yes"/>
      <point x="449" y="76"/>
      <point x="355" y="20"/>
      <point x="246" y="20" type="curve" smooth="yes"/>
      <point x="180" y="20"/>
      <point x="133" y="37"/>
      <point x="77" y="71" type="curve"/>
    </contour>
    <contour>
      <point x="86" y="626" type="line" name=""/>
      <point x="117" y="666"/>
      <point x="177" y="702"/>
      <point x="245" y="702" type="curve" smooth="yes"/>
      <point x="348" y="702"/>
      <point x="416" y="651"/>
      <point x="416" y="550" type="curve" smooth="yes"/>
      <point x="416" y="449"/>
      <point x="331" y="393"/>
      <point x="231" y="393" type="curve"/>
      <point x="231" y="376" type="line"/>
      <point x="350" y="376"/>
      <point x="437" y="438"/>
      <point x="437" y="551" type="curve" smooth="yes"/>
      <point x="437" y="663"/>
      <point x="361" y="722"/>
      <point x="247" y="722" type="curve" smooth="yes" name="over_top"/>
      <point x="172" y="722"/>
      <point x="106" y="685"/>
      <point x="72" y="639" type="curve"/>
    </contour>
  </outline>
</glyph>
<glyph name="four" format="1">
  <advance width="594"/>
  <unicode hex="0034"/>
  <outline>
    <contour>
      <point x="375" y="20" type="line"/>
      <point x="272" y="20" type="line" name="bll"/>
      <point x="272" y="0" type="line" name="bll"/>
      <point x="375" y="0" type="line"/>
    </contour>
    <contour>
      <point x="375" y="0" type="line"/>
      <point x="478" y="0" type="line" name="brr"/>
      <point x="478" y="20" type="line" name="brr"/>
      <point x="375" y="20" type="line"/>
    </contour>
    <contour>
      <point x="48" y="265" type="line"/>
      <point x="387" y="713" type="line"/>
      <point x="365" y="722" type="line"/>
      <point x="37" y="287" type="line"/>
    </contour>
    <contour>
      <point x="573" y="287" type="line"/>
      <point x="573" y="287"/>
      <point x="37" y="287"/>
      <point x="37" y="287" type="curve"/>
      <point x="48" y="265" type="line"/>
      <point x="48" y="265"/>
      <point x="573" y="265"/>
      <point x="573" y="265" type="curve"/>
    </contour>
    <contour>
      <point x="365" y="722" type="line"/>
      <point x="365" y="722"/>
      <point x="365" y="0"/>
      <point x="365" y="0" type="curve"/>
      <point x="387" y="0" type="line" name="stem"/>
      <point x="387" y="0"/>
      <point x="387" y="713"/>
      <point x="387" y="713" type="curve" name="stem"/>
    </contour>
  </outline>
</glyph>
<glyph name="five" format="1">
  <advance width="545"/>
  <unicode hex="0035"/>
  <outline>
    <contour>
      <point x="120" y="722" type="line"/>
      <point x="120" y="412" type="line" name=""/>
      <point x="141" y="397" type="line" name=""/>
      <point x="141" y="702" type="line"/>
    </contour>
    <contour>
      <point x="141" y="397" type="line" name=""/>
      <point x="166" y="410"/>
      <point x="215" y="424"/>
      <point x="254" y="424" type="curve" smooth="yes"/>
      <point x="369" y="424"/>
      <point x="442" y="340"/>
      <point x="442" y="224" type="curve" smooth="yes"/>
      <point x="442" y="107"/>
      <point x="361" y="20"/>
      <point x="244" y="20" type="curve" smooth="yes" name="bow"/>
      <point x="182" y="20"/>
      <point x="131" y="30"/>
      <point x="78" y="62" type="curve"/>
      <point x="67" y="44" type="line"/>
      <point x="124" y="12"/>
      <point x="178" y="0"/>
      <point x="243" y="0" type="curve" smooth="yes" name="bow"/>
      <point x="373" y="0"/>
      <point x="464" y="93"/>
      <point x="464" y="224" type="curve" smooth="yes"/>
      <point x="464" y="352"/>
      <point x="383" y="445"/>
      <point x="256" y="445" type="curve" smooth="yes"/>
      <point x="208" y="445"/>
      <point x="151" y="430"/>
      <point x="120" y="412" type="curve" name=""/>
    </contour>
    <contour>
      <point x="460" y="722" type="line"/>
      <point x="120" y="722" type="line"/>
      <point x="141" y="702" type="line"/>
      <point x="460" y="702" type="line"/>
    </contour>
  </outline>
</glyph>
<glyph name="six" format="1">
  <advance width="618"/>
  <unicode hex="0036"/>
  <outline>
    <contour>
      <point x="102" y="230" type="line"/>
      <point x="143" y="329"/>
      <point x="204" y="387"/>
      <point x="310" y="387" type="curve" smooth="yes"/>
      <point x="424" y="387"/>
      <point x="493" y="316"/>
      <point x="493" y="202" type="curve" smooth="yes"/>
      <point x="493" y="91"/>
      <point x="425" y="23"/>
      <point x="315" y="23" type="curve" smooth="yes"/>
      <point x="183" y="23"/>
      <point x="106" y="108"/>
      <point x="106" y="242" type="curve" smooth="yes"/>
      <point x="106" y="500"/>
      <point x="271" y="636"/>
      <point x="525" y="716" type="curve"/>
      <point x="521" y="734" type="line"/>
      <point x="254" y="657"/>
      <point x="85" y="511"/>
      <point x="85" y="241" type="curve" smooth="yes"/>
      <point x="85" y="94"/>
      <point x="170" y="0"/>
      <point x="314" y="0" type="curve" smooth="yes" name="over_bottom"/>
      <point x="439" y="0"/>
      <point x="515" y="78"/>
      <point x="515" y="203" type="curve" smooth="yes"/>
      <point x="515" y="330"/>
      <point x="438" y="408"/>
      <point x="312" y="408" type="curve" smooth="yes"/>
      <point x="198" y="408"/>
      <point x="132" y="347"/>
      <point x="87" y="240" type="curve"/>
    </contour>
  </outline>
</glyph>
<glyph name="seven" format="1">
  <advance width="581"/>
  <unicode hex="0037"/>
  <outline>
    <contour>
      <point x="63" y="702" type="line"/>
      <point x="537" y="702" type="line"/>
      <point x="525" y="722" type="line"/>
      <point x="63" y="722" type="line"/>
    </contour>
    <contour>
      <point x="525" y="722" type="line"/>
      <point x="104" y="0" type="line"/>
      <point x="129" y="0" type="line"/>
      <point x="537" y="702" type="line"/>
    </contour>
  </outline>
</glyph>
<glyph name="eight" format="1">
  <advance width="519"/>
  <unicode hex="0038"/>
  <outline>
    <contour>
      <point x="83" y="562" type="line"/>
      <point x="83" y="455"/>
      <point x="162" y="419"/>
      <point x="261" y="370" type="curve" smooth="yes"/>
      <point x="365" y="318"/>
      <point x="448" y="276"/>
      <point x="448" y="170" type="curve" smooth="yes"/>
      <point x="448" y="67"/>
      <point x="375" y="20"/>
      <point x="265" y="20" type="curve" smooth="yes"/>
      <point x="156" y="20"/>
      <point x="86" y="68"/>
      <point x="86" y="170" type="curve" smooth="yes"/>
      <point x="86" y="279"/>
      <point x="171" y="317"/>
      <point x="276" y="370" type="curve" smooth="yes"/>
      <point x="372" y="420"/>
      <point x="451" y="455"/>
      <point x="451" y="560" type="curve" smooth="yes" name="bow"/>
      <point x="451" y="669"/>
      <point x="380" y="722"/>
      <point x="265" y="722" type="curve" smooth="yes" name="over_top"/>
      <point x="155" y="722"/>
      <point x="83" y="667"/>
      <point x="83" y="562" type="curve"/>
      <point x="105" y="562" type="line"/>
      <point x="105" y="654"/>
      <point x="168" y="702"/>
      <point x="264" y="702" type="curve" smooth="yes" name=""/>
      <point x="366" y="702"/>
      <point x="429" y="657"/>
      <point x="429" y="560" type="curve" smooth="yes" name="bow"/>
      <point x="429" y="466"/>
      <point x="353" y="431"/>
      <point x="261" y="386" type="curve" smooth="yes"/>
      <point x="151" y="330"/>
      <point x="64" y="290"/>
      <point x="64" y="170" type="curve" smooth="yes"/>
      <point x="64" y="56"/>
      <point x="143" y="0"/>
      <point x="264" y="0" type="curve" smooth="yes" name="over_bottom"/>
      <point x="387" y="0"/>
      <point x="470" y="54"/>
      <point x="470" y="170" type="curve" smooth="yes"/>
      <point x="470" y="288"/>
      <point x="384" y="331"/>
      <point x="276" y="386" type="curve" smooth="yes"/>
      <point x="183" y="434"/>
      <point x="105" y="466"/>
      <point x="105" y="562" type="curve"/>
    </contour>
  </outline>
</glyph>
<glyph name="nine" format="1">
  <advance width="581"/>
  <unicode hex="0039"/>
  <outline>
    <contour>
      <point x="508" y="492" type="line"/>
      <point x="467" y="393"/>
      <point x="406" y="335"/>
      <point x="300" y="335" type="curve" smooth="yes"/>
      <point x="186" y="335"/>
      <point x="117" y="406"/>
      <point x="117" y="520" type="curve" smooth="yes"/>
      <point x="117" y="631"/>
      <point x="185" y="699"/>
      <point x="295" y="699" type="curve" smooth="yes"/>
      <point x="427" y="699"/>
      <point x="504" y="614"/>
      <point x="504" y="480" type="curve" smooth="yes"/>
      <point x="504" y="222"/>
      <point x="339" y="86"/>
      <point x="85" y="6" type="curve"/>
      <point x="89" y="-12" type="line"/>
      <point x="356" y="65"/>
      <point x="525" y="211"/>
      <point x="525" y="481" type="curve" smooth="yes"/>
      <point x="525" y="628"/>
      <point x="440" y="722"/>
      <point x="296" y="722" type="curve" smooth="yes" name="over_top"/>
      <point x="171" y="722"/>
      <point x="95" y="644"/>
      <point x="95" y="519" type="curve" smooth="yes"/>
      <point x="95" y="392"/>
      <point x="172" y="314"/>
      <point x="298" y="314" type="curve" smooth="yes"/>
      <point x="412" y="314"/>
      <point x="478" y="375"/>
      <point x="523" y="482" type="curve"/>
    </contour>
  </outline>
</glyph>
<glyph name="question" format="1">
  <advance width="394"/>
  <unicode hex="003F"/>
  <outline>
    <contour>
      <point x="122" y="333" type="line"/>
      <point x="122" y="221" type="line"/>
      <point x="144" y="221" type="line"/>
      <point x="144" y="333" type="line"/>
    </contour>
    <contour>
      <point x="63" y="673" type="line"/>
      <point x="90" y="683"/>
      <point x="111" y="689"/>
      <point x="140" y="689" type="curve" smooth="yes"/>
      <point x="244" y="689"/>
      <point x="315" y="622"/>
      <point x="315" y="519" type="curve" smooth="yes"/>
      <point x="315" y="407"/>
      <point x="236" y="333"/>
      <point x="122" y="333" type="curve"/>
      <point x="122" y="312" type="line"/>
      <point x="248" y="312"/>
      <point x="336" y="394"/>
      <point x="336" y="519" type="curve" smooth="yes"/>
      <point x="336" y="633"/>
      <point x="256" y="709"/>
      <point x="142" y="709" type="curve" smooth="yes"/>
      <point x="110" y="709"/>
      <point x="86" y="703"/>
      <point x="56" y="693" type="curve"/>
    </contour>
    <contour>
      <point x="152" y="17" type="line" name=""/>
      <point x="152" y="29"/>
      <point x="145" y="36"/>
      <point x="133" y="36" type="curve" name="dot"/>
      <point x="122" y="36"/>
      <point x="115" y="28"/>
      <point x="115" y="17" type="curve" name=""/>
      <point x="152" y="17" type="line" name=""/>
      <point x="152" y="5"/>
      <point x="145" y="-1"/>
      <point x="133" y="-1" type="curve" name="dot"/>
      <point x="122" y="-1"/>
      <point x="115" y="6"/>
      <point x="115" y="17" type="curve" name=""/>
    </contour>
  </outline>
</glyph>
<glyph name="at" format="1">
  <advance width="836"/>
  <unicode hex="0040"/>
  <outline>
    <contour>
      <point x="602" y="-106" type="line"/>
      <point x="547" y="-137"/>
      <point x="505" y="-143"/>
      <point x="442" y="-143" type="curve" smooth="yes"/>
      <point x="235" y="-143"/>
      <point x="113" y="-18"/>
      <point x="113" y="189" type="curve" smooth="yes"/>
      <point x="113" y="392"/>
      <point x="237" y="513"/>
      <point x="441" y="513" type="curve" smooth="yes"/>
      <point x="634" y="513"/>
      <point x="745" y="390"/>
      <point x="745" y="194" type="curve" smooth="yes"/>
      <point x="745" y="110"/>
      <point x="733" y="42"/>
      <point x="661" y="42" type="curve" smooth="yes"/>
      <point x="588" y="42"/>
      <point x="573" y="110"/>
      <point x="573" y="194" type="curve" smooth="yes"/>
      <point x="573" y="296"/>
      <point x="523" y="366"/>
      <point x="426" y="366" type="curve" smooth="yes"/>
      <point x="324" y="366"/>
      <point x="269" y="299"/>
      <point x="269" y="195" type="curve" smooth="yes"/>
      <point x="269" y="85"/>
      <point x="320" y="11"/>
      <point x="423" y="11" type="curve" smooth="yes"/>
      <point x="517" y="11"/>
      <point x="555" y="84"/>
      <point x="569" y="184" type="curve"/>
      <point x="555" y="188" type="line"/>
      <point x="534" y="100"/>
      <point x="510" y="31"/>
      <point x="426" y="31" type="curve" smooth="yes"/>
      <point x="334" y="31"/>
      <point x="290" y="98"/>
      <point x="290" y="196" type="curve" smooth="yes"/>
      <point x="290" y="287"/>
      <point x="337" y="346"/>
      <point x="424" y="346" type="curve" smooth="yes"/>
      <point x="510" y="346"/>
      <point x="553" y="284"/>
      <point x="553" y="193" type="curve" smooth="yes"/>
      <point x="553" y="98"/>
      <point x="575" y="23"/>
      <point x="659" y="23" type="curve" smooth="yes"/>
      <point x="744" y="23"/>
      <point x="766" y="98"/>
      <point x="766" y="195" type="curve" smooth="yes"/>
      <point x="766" y="403"/>
      <point x="647" y="533"/>
      <point x="442" y="533" type="curve" smooth="yes" name="over_top"/>
      <point x="224" y="533"/>
      <point x="92" y="405"/>
      <point x="92" y="188" type="curve" smooth="yes"/>
      <point x="92" y="-31"/>
      <point x="222" y="-163"/>
      <point x="441" y="-163" type="curve" smooth="yes"/>
      <point x="508" y="-163"/>
      <point x="553" y="-156"/>
      <point x="612" y="-124" type="curve"/>
    </contour>
  </outline>
</glyph>
<glyph name="A" format="1">
  <advance width="781"/>
  <unicode hex="0041"/>
  <outline>
    <contour>
      <point x="114" y="20" type="line"/>
      <point x="11" y="20" type="line" name="bll"/>
      <point x="11" y="0" type="line" name="bll"/>
      <point x="114" y="0" type="line"/>
    </contour>
    <contour>
      <point x="114" y="0" type="line"/>
      <point x="217" y="0" type="line" name="blr"/>
      <point x="217" y="20" type="line" name="blr"/>
      <point x="114" y="20" type="line"/>
    </contour>
    <contour>
      <point x="661" y="0" type="line"/>
      <point x="764" y="0" type="line" name="brr"/>
      <point x="764" y="20" type="line" name="brr"/>
      <point x="661" y="20" type="line"/>
    </contour>
    <contour>
      <point x="661" y="20" type="line"/>
      <point x="558" y="20" type="line" name="brl"/>
      <point x="558" y="0" type="line" name="brl"/>
      <point x="661" y="0" type="line"/>
    </contour>
    <contour>
      <point x="571" y="276" type="line" name="bar"/>
      <point x="220" y="276" type="line" name="bar"/>
      <point x="211" y="255" type="line" name="bar"/>
      <point x="578" y="255" type="line" name="bar"/>
    </contour>
    <contour>
      <point x="684" y="0" type="line" name="stem2"/>
      <point x="414" y="722" type="line" name="stem2"/>
      <point x="394" y="722" type="line" name="stem2"/>
      <point x="661" y="0" type="line" name="stem2"/>
    </contour>
    <contour>
      <point x="114" y="0" type="line" name="stem"/>
      <point x="412" y="722" type="line" name="stem"/>
      <point x="392" y="722" type="line" name="stem"/>
      <point x="90" y="0" type="line" name="stem"/>
    </contour>
  </outline>
</glyph>
<glyph name="C" format="1">
  <advance width="727"/>
  <unicode hex="0043"/>
  <outline>
    <contour>
      <point x="630" y="655" type="line"/>
      <point x="630" y="572" type="line" name="trb"/>
      <point x="650" y="572" type="line" name="trb"/>
      <point x="650" y="655" type="line"/>
    </contour>
    <contour>
      <point x="650" y="655" type="line"/>
      <point x="584" y="696"/>
      <point x="509" y="722"/>
      <point x="425" y="722" type="curve" smooth="yes" name="bow"/>
      <point x="213" y="722"/>
      <point x="104" y="570"/>
      <point x="104" y="344" type="curve" smooth="yes"/>
      <point x="104" y="137"/>
      <point x="207" y="0"/>
      <point x="404" y="0" type="curve" smooth="yes"/>
      <point x="514" y="0"/>
      <point x="586" y="29"/>
      <point x="669" y="96" type="curve"/>
      <point x="655" y="112" type="line"/>
      <point x="578" y="47"/>
      <point x="508" y="20"/>
      <point x="405" y="20" type="curve" smooth="yes"/>
      <point x="221" y="20"/>
      <point x="126" y="150"/>
      <point x="126" y="345" type="curve" smooth="yes"/>
      <point x="126" y="557"/>
      <point x="226" y="702"/>
      <point x="424" y="702" type="curve" smooth="yes" name="bow"/>
      <point x="504" y="702"/>
      <point x="576" y="679"/>
      <point x="638" y="639" type="curve"/>
    </contour>
  </outline>
</glyph>
<glyph name="E" format="1">
  <advance width="606"/>
  <unicode hex="0045"/>
  <outline>
    <contour>
      <point x="430" y="374" type="line"/>
      <point x="430" y="291" type="line" name="crb"/>
      <point x="450" y="291" type="line" name="crb"/>
      <point x="450" y="374" type="line"/>
    </contour>
    <contour>
      <point x="450" y="374" type="line"/>
      <point x="450" y="457" type="line" name="crt"/>
      <point x="430" y="457" type="line" name="crt"/>
      <point x="430" y="374" type="line"/>
    </contour>
    <contour>
      <point x="547" y="10" type="line"/>
      <point x="547" y="93" type="line" name="brt"/>
      <point x="527" y="93" type="line" name="brt"/>
      <point x="527" y="10" type="line"/>
    </contour>
    <contour>
      <point x="493" y="712" type="line"/>
      <point x="493" y="629" type="line" name="trb"/>
      <point x="513" y="629" type="line" name="trb"/>
      <point x="513" y="712" type="line"/>
    </contour>
    <contour>
      <point x="119" y="20" type="line"/>
      <point x="16" y="20" type="line" name="bll"/>
      <point x="16" y="0" type="line" name="bll"/>
      <point x="119" y="0" type="line"/>
    </contour>
    <contour>
      <point x="119" y="722" type="line"/>
      <point x="16" y="722" type="line" name="tll"/>
      <point x="16" y="702" type="line" name="tll"/>
      <point x="119" y="702" type="line"/>
    </contour>
    <contour>
      <point x="122" y="364" type="line" name="armc"/>
      <point x="450" y="364" type="line" name="armc"/>
      <point x="450" y="384" type="line" name="armc"/>
      <point x="122" y="384" type="line" name="armc"/>
    </contour>
    <contour>
      <point x="107" y="702" type="line" name="armt"/>
      <point x="513" y="702" type="line" name="armt"/>
      <point x="513" y="722" type="line" name="armt"/>
      <point x="107" y="722" type="line" name="armt"/>
    </contour>
    <contour>
      <point x="129" y="0" type="line" name="stem"/>
      <point x="129" y="0"/>
      <point x="129" y="722"/>
      <point x="129" y="722" type="curve" name="stem"/>
      <point x="107" y="722" type="line" name="stem"/>
      <point x="107" y="0" type="line" name="stem"/>
    </contour>
    <contour>
      <point x="107" y="0" type="line" name="armb"/>
      <point x="547" y="0" type="line" name="armb"/>
      <point x="547" y="20" type="line" name="armb"/>
      <point x="107" y="20" type="line" name="armb"/>
    </contour>
  </outline>
</glyph>
<glyph name="G" format="1">
  <advance width="836"/>
  <unicode hex="0047"/>
  <outline>
    <contour>
      <point x="688" y="642" type="line"/>
      <point x="688" y="559" type="line" name="trb"/>
      <point x="708" y="559" type="line" name="trb"/>
      <point x="708" y="642" type="line"/>
    </contour>
    <contour>
      <point x="717" y="318" type="line"/>
      <point x="497" y="318" type="line" name="bar"/>
      <point x="497" y="298" type="line" name="bar"/>
      <point x="717" y="298" type="line"/>
    </contour>
    <contour>
      <point x="725" y="77" type="line" name="stem"/>
      <point x="725" y="318" type="line" name="stem"/>
      <point x="705" y="318" type="line" name="stem"/>
      <point x="705" y="77" type="line" name="stem"/>
    </contour>
    <contour>
      <point x="708" y="642" type="line"/>
      <point x="620" y="700"/>
      <point x="537" y="722"/>
      <point x="432" y="722" type="curve" smooth="yes" name="bow"/>
      <point x="221" y="722"/>
      <point x="104" y="584"/>
      <point x="104" y="365" type="curve" smooth="yes"/>
      <point x="104" y="140"/>
      <point x="226" y="0"/>
      <point x="443" y="0" type="curve" smooth="yes"/>
      <point x="555" y="0"/>
      <point x="628" y="21"/>
      <point x="725" y="77" type="curve"/>
      <point x="714" y="92" type="line"/>
      <point x="622" y="39"/>
      <point x="549" y="20"/>
      <point x="443" y="20" type="curve" smooth="yes"/>
      <point x="238" y="20"/>
      <point x="126" y="154"/>
      <point x="126" y="367" type="curve" smooth="yes"/>
      <point x="126" y="571"/>
      <point x="235" y="702"/>
      <point x="432" y="702" type="curve" smooth="yes" name="bow"/>
      <point x="533" y="702"/>
      <point x="612" y="680"/>
      <point x="697" y="625" type="curve"/>
    </contour>
  </outline>
</glyph>
<glyph name="J" format="1">
  <advance width="436"/>
  <unicode hex="004A"/>
  <outline>
    <contour>
      <point x="331" y="722" type="line"/>
      <point x="228" y="722" type="line" name="tll"/>
      <point x="228" y="702" type="line" name="tll"/>
      <point x="331" y="702" type="line"/>
    </contour>
    <contour>
      <point x="331" y="702" type="line"/>
      <point x="434" y="702" type="line" name="trr"/>
      <point x="434" y="722" type="line" name="trr"/>
      <point x="331" y="722" type="line"/>
    </contour>
    <contour>
      <point x="40" y="43" type="line"/>
      <point x="67" y="24"/>
      <point x="107" y="0"/>
      <point x="157" y="0" type="curve" smooth="yes"/>
      <point x="281" y="0"/>
      <point x="341" y="87"/>
      <point x="341" y="218" type="curve" smooth="yes" name="stem"/>
      <point x="341" y="722" type="line"/>
      <point x="319" y="722" type="line"/>
      <point x="319" y="218" type="line" smooth="yes" name="stem"/>
      <point x="319" y="101"/>
      <point x="267" y="20"/>
      <point x="157" y="20" type="curve" smooth="yes"/>
      <point x="113" y="20"/>
      <point x="85" y="38"/>
      <point x="50" y="59" type="curve"/>
    </contour>
  </outline>
</glyph>
<glyph name="K" format="1">
  <advance width="687"/>
  <unicode hex="004B"/>
  <outline>
    <contour>
      <point x="559" y="20" type="line"/>
      <point x="456" y="20" type="line" name="brl"/>
      <point x="456" y="0" type="line" name="brl"/>
      <point x="558" y="0" type="line"/>
    </contour>
    <contour>
      <point x="536" y="722" type="line"/>
      <point x="433" y="722" type="line" name="trl"/>
      <point x="433" y="702" type="line" name="trl"/>
      <point x="536" y="702" type="line"/>
    </contour>
    <contour>
      <point x="559" y="0" type="line"/>
      <point x="662" y="0" type="line" name="brr"/>
      <point x="662" y="20" type="line" name="brr"/>
      <point x="559" y="20" type="line"/>
    </contour>
    <contour>
      <point x="536" y="702" type="line"/>
      <point x="639" y="702" type="line" name="trr"/>
      <point x="639" y="722" type="line" name="trr"/>
      <point x="536" y="722" type="line"/>
    </contour>
    <contour>
      <point x="127" y="722" type="line"/>
      <point x="24" y="722" type="line" name="tll"/>
      <point x="24" y="702" type="line" name="tll"/>
      <point x="127" y="702" type="line"/>
    </contour>
    <contour>
      <point x="127" y="702" type="line"/>
      <point x="230" y="702" type="line" name="tlr"/>
      <point x="230" y="722" type="line" name="tlr"/>
      <point x="127" y="722" type="line"/>
    </contour>
    <contour>
      <point x="127" y="0" type="line"/>
      <point x="230" y="0" type="line" name="blr"/>
      <point x="230" y="20" type="line" name="blr"/>
      <point x="127" y="20" type="line"/>
    </contour>
    <contour>
      <point x="127" y="20" type="line"/>
      <point x="24" y="20" type="line" name="bll"/>
      <point x="24" y="0" type="line" name="bll"/>
      <point x="127" y="0" type="line"/>
    </contour>
    <contour>
      <point x="536" y="722" type="line" name="stem2"/>
      <point x="131" y="380" type="line" name="stem2"/>
      <point x="162" y="380" type="line" name="stem2"/>
      <point x="572" y="722" type="line" name="stem2"/>
    </contour>
    <contour>
      <point x="138" y="0" type="line" name="stem"/>
      <point x="138" y="0"/>
      <point x="138" y="722"/>
      <point x="138" y="722" type="curve" name="stem"/>
      <point x="116" y="722" type="line" name="stem"/>
      <point x="116" y="0" type="line" name="stem"/>
    </contour>
    <contour>
      <point x="596" y="0" type="line" name="stem3"/>
      <point x="162" y="380" type="line" name="stem3"/>
      <point x="131" y="380" type="line" name="stem3"/>
      <point x="559" y="0" type="line" name="stem3"/>
    </contour>
  </outline>
</glyph>
<glyph name="M" format="1">
  <advance width="909"/>
  <unicode hex="004D"/>
  <outline>
    <contour>
      <point x="795" y="0" type="line"/>
      <point x="898" y="0" type="line" name="brr"/>
      <point x="898" y="20" type="line" name="brr"/>
      <point x="795" y="20" type="line"/>
    </contour>
    <contour>
      <point x="795" y="20" type="line"/>
      <point x="692" y="20" type="line" name="brl"/>
      <point x="692" y="0" type="line" name="brl"/>
      <point x="795" y="0" type="line"/>
    </contour>
    <contour>
      <point x="106" y="20" type="line"/>
      <point x="3" y="20" type="line" name="bll"/>
      <point x="3" y="0" type="line" name="bll"/>
      <point x="106" y="0" type="line"/>
    </contour>
    <contour>
      <point x="165" y="722" type="line"/>
      <point x="62" y="722" type="line" name="tll"/>
      <point x="62" y="702" type="line" name="tll"/>
      <point x="165" y="702" type="line"/>
    </contour>
    <contour>
      <point x="734" y="702" type="line"/>
      <point x="837" y="702" type="line" name="trr"/>
      <point x="837" y="722" type="line" name="trr"/>
      <point x="734" y="722" type="line"/>
    </contour>
    <contour>
      <point x="106" y="0" type="line"/>
      <point x="209" y="0" type="line" name="blr"/>
      <point x="209" y="20" type="line" name="blr"/>
      <point x="106" y="20" type="line"/>
    </contour>
    <contour>
      <point x="805" y="0" type="line" name="stem4"/>
      <point x="743" y="722" type="line" name="stem4"/>
      <point x="723" y="722" type="line" name="stem4"/>
      <point x="783" y="0" type="line" name="stem4"/>
    </contour>
    <contour>
      <point x="116" y="0" type="line" name="stem"/>
      <point x="173" y="722" type="line" name="stem"/>
      <point x="153" y="722" type="line" name="stem"/>
      <point x="94" y="0" type="line" name="stem"/>
    </contour>
    <contour>
      <point x="457" y="0" type="line" name="stem2"/>
      <point x="175" y="722" type="line" name="stem2"/>
      <point x="155" y="722" type="line" name="stem2"/>
      <point x="435" y="0" type="line" name="stem2"/>
    </contour>
    <contour>
      <point x="466" y="0" type="line" name="stem3"/>
      <point x="741" y="722" type="line" name="stem3"/>
      <point x="721" y="722" type="line" name="stem3"/>
      <point x="443" y="0" type="line" name="stem3"/>
    </contour>
  </outline>
</glyph>
<glyph name="P" format="1">
  <advance width="529"/>
  <unicode hex="0050"/>
  <outline>
    <contour>
      <point x="111" y="722" type="line"/>
      <point x="8" y="722" type="line" name="tll"/>
      <point x="8" y="702" type="line" name="tll"/>
      <point x="111" y="702" type="line"/>
    </contour>
    <contour>
      <point x="111" y="20" type="line"/>
      <point x="8" y="20" type="line" name="bll"/>
      <point x="8" y="0" type="line" name="bll"/>
      <point x="111" y="0" type="line"/>
    </contour>
    <contour>
      <point x="111" y="0" type="line"/>
      <point x="214" y="0" type="line" name="blr"/>
      <point x="214" y="20" type="line" name="blr"/>
      <point x="111" y="20" type="line"/>
    </contour>
    <contour>
      <point x="109" y="327" type="line"/>
      <point x="160" y="300"/>
      <point x="208" y="281"/>
      <point x="266" y="281" type="curve" smooth="yes"/>
      <point x="397" y="283"/>
      <point x="484" y="365"/>
      <point x="484" y="494" type="curve" smooth="yes"/>
      <point x="484" y="634"/>
      <point x="385" y="722"/>
      <point x="242" y="722" type="curve" smooth="yes"/>
      <point x="114" y="722" type="line"/>
      <point x="114" y="702" type="line"/>
      <point x="239" y="702" type="line" smooth="yes"/>
      <point x="371" y="702"/>
      <point x="462" y="622"/>
      <point x="462" y="493" type="curve" smooth="yes"/>
      <point x="462" y="377"/>
      <point x="384" y="301"/>
      <point x="268" y="301" type="curve" smooth="yes"/>
      <point x="209" y="301"/>
      <point x="168" y="318"/>
      <point x="116" y="345" type="curve"/>
    </contour>
    <contour>
      <point x="121" y="0" type="line" name="stem"/>
      <point x="121" y="722" type="line" name="stem"/>
      <point x="99" y="722" type="line" name="stem"/>
      <point x="99" y="0" type="line" name="stem"/>
    </contour>
  </outline>
</glyph>
<glyph name="Q" format="1">
  <advance width="836"/>
  <unicode hex="0051"/>
  <outline>
    <contour>
      <point x="402" y="4" type="line"/>
      <point x="498" y="-173"/>
      <point x="618" y="-240"/>
      <point x="808" y="-240" type="curve"/>
      <point x="808" y="-219" type="line"/>
      <point x="628" y="-219"/>
      <point x="514" y="-155"/>
      <point x="421" y="14" type="curve"/>
    </contour>
    <contour>
      <point x="124" y="360" type="line"/>
      <point x="124" y="557"/>
      <point x="218" y="700"/>
      <point x="402" y="700" type="curve" smooth="yes" name="bow"/>
      <point x="586" y="700"/>
      <point x="682" y="559"/>
      <point x="682" y="363" type="curve"/>
      <point x="682" y="166"/>
      <point x="589" y="20"/>
      <point x="405" y="20" type="curve" smooth="yes"/>
      <point x="220" y="20"/>
      <point x="124" y="163"/>
      <point x="124" y="360" type="curve"/>
      <point x="102" y="360" type="line"/>
      <point x="102" y="151"/>
      <point x="208" y="0"/>
      <point x="404" y="0" type="curve" smooth="yes"/>
      <point x="601" y="0"/>
      <point x="704" y="154"/>
      <point x="704" y="364" type="curve" smooth="yes"/>
      <point x="704" y="572"/>
      <point x="600" y="722"/>
      <point x="404" y="722" type="curve" smooth="yes" name="bow"/>
      <point x="207" y="722"/>
      <point x="102" y="569"/>
      <point x="102" y="360" type="curve"/>
    </contour>
  </outline>
</glyph>
<glyph name="S" format="1">
  <advance width="539"/>
  <unicode hex="0053"/>
  <outline>
    <contour>
      <point x="434" y="663" type="line"/>
      <point x="434" y="580" type="line" name="trb"/>
      <point x="454" y="580" type="line" name="trb"/>
      <point x="454" y="663" type="line"/>
    </contour>
    <contour>
      <point x="69" y="58" type="line"/>
      <point x="69" y="151" type="line" name="blt"/>
      <point x="49" y="151" type="line" name="blt"/>
      <point x="49" y="58" type="line"/>
    </contour>
    <contour>
      <point x="49" y="58" type="line"/>
      <point x="113" y="18"/>
      <point x="168" y="0"/>
      <point x="243" y="0" type="curve" smooth="yes" name="over_bottom"/>
      <point x="369" y="0"/>
      <point x="470" y="54"/>
      <point x="470" y="169" type="curve" smooth="yes"/>
      <point x="470" y="282"/>
      <point x="379" y="330"/>
      <point x="274" y="381" type="curve" smooth="yes" name=""/>
      <point x="181" y="426"/>
      <point x="96" y="464"/>
      <point x="96" y="563" type="curve" smooth="yes"/>
      <point x="96" y="652"/>
      <point x="166" y="702"/>
      <point x="260" y="702" type="curve" smooth="yes" name="bow"/>
      <point x="331" y="702"/>
      <point x="383" y="684"/>
      <point x="444" y="647" type="curve"/>
      <point x="454" y="663" type="line"/>
      <point x="390" y="702"/>
      <point x="336" y="722"/>
      <point x="261" y="722" type="curve" smooth="yes" name="bow"/>
      <point x="153" y="722"/>
      <point x="74" y="664"/>
      <point x="74" y="562" type="curve" smooth="yes"/>
      <point x="74" y="455"/>
      <point x="162" y="412"/>
      <point x="261" y="364" type="curve" smooth="yes" name=""/>
      <point x="360" y="317"/>
      <point x="448" y="275"/>
      <point x="448" y="169" type="curve" smooth="yes"/>
      <point x="448" y="66"/>
      <point x="358" y="20"/>
      <point x="245" y="20" type="curve" smooth="yes" name=""/>
      <point x="174" y="20"/>
      <point x="122" y="40"/>
      <point x="61" y="77" type="curve"/>
    </contour>
  </outline>
</glyph>
<glyph name="T" format="1">
  <advance width="692"/>
  <unicode hex="0054"/>
  <outline>
    <contour>
      <point x="26" y="712" type="line"/>
      <point x="26" y="629" type="line" name="tlb"/>
      <point x="46" y="629" type="line" name="tlb"/>
      <point x="46" y="712" type="line"/>
    </contour>
    <contour>
      <point x="626" y="712" type="line"/>
      <point x="626" y="629" type="line" name="trb"/>
      <point x="646" y="629" type="line" name="trb"/>
      <point x="646" y="712" type="line"/>
    </contour>
    <contour>
      <point x="335" y="0" type="line"/>
      <point x="438" y="0" type="line" name="brr"/>
      <point x="438" y="20" type="line" name="brr"/>
      <point x="335" y="20" type="line"/>
    </contour>
    <contour>
      <point x="335" y="20" type="line"/>
      <point x="232" y="20" type="line" name="bll"/>
      <point x="232" y="0" type="line" name="bll"/>
      <point x="335" y="0" type="line"/>
    </contour>
    <contour>
      <point x="347" y="0" type="line" name="stem"/>
      <point x="347" y="710" type="line" name="stem"/>
      <point x="325" y="710" type="line" name="stem"/>
      <point x="325" y="0" type="line" name="stem"/>
    </contour>
    <contour>
      <point x="26" y="700" type="line" name="arm"/>
      <point x="646" y="700" type="line" name="arm"/>
      <point x="646" y="722" type="line" name="arm"/>
      <point x="26" y="722" type="line" name="arm"/>
    </contour>
  </outline>
</glyph>
<glyph name="U" format="1">
  <advance width="763"/>
  <unicode hex="0055"/>
  <outline>
    <contour>
      <point x="628" y="702" type="line"/>
      <point x="731" y="702" type="line" name="trr"/>
      <point x="731" y="722" type="line" name="trr"/>
      <point x="628" y="722" type="line"/>
    </contour>
    <contour>
      <point x="628" y="722" type="line"/>
      <point x="525" y="722" type="line" name="trl"/>
      <point x="525" y="702" type="line" name="trl"/>
      <point x="628" y="702" type="line"/>
    </contour>
    <contour>
      <point x="128" y="722" type="line"/>
      <point x="25" y="722" type="line" name="tll"/>
      <point x="25" y="702" type="line" name="tll"/>
      <point x="128" y="702" type="line"/>
    </contour>
    <contour>
      <point x="128" y="702" type="line"/>
      <point x="231" y="702" type="line" name="tlr"/>
      <point x="231" y="722" type="line" name="tlr"/>
      <point x="128" y="722" type="line"/>
    </contour>
    <contour>
      <point x="116" y="722" type="line"/>
      <point x="116" y="271" type="line" smooth="yes"/>
      <point x="116" y="92"/>
      <point x="202" y="0"/>
      <point x="379" y="0" type="curve" smooth="yes" name="bow"/>
      <point x="552" y="0"/>
      <point x="638" y="89"/>
      <point x="638" y="263" type="curve" smooth="yes"/>
      <point x="638" y="722" type="line"/>
      <point x="616" y="722" type="line"/>
      <point x="616" y="259" type="line" smooth="yes"/>
      <point x="616" y="102"/>
      <point x="538" y="22"/>
      <point x="381" y="22" type="curve" smooth="yes" name="bow"/>
      <point x="217" y="22"/>
      <point x="138" y="109"/>
      <point x="138" y="275" type="curve" smooth="yes"/>
      <point x="138" y="722" type="line"/>
    </contour>
  </outline>
</glyph>
<glyph name="V" format="1">
  <advance width="762"/>
  <unicode hex="0056"/>
  <outline>
    <contour>
      <point x="652" y="722" type="line"/>
      <point x="549" y="722" type="line" name="trl"/>
      <point x="549" y="702" type="line" name="trl"/>
      <point x="652" y="702" type="line"/>
    </contour>
    <contour>
      <point x="110" y="722" type="line"/>
      <point x="7" y="722" type="line" name="tll"/>
      <point x="7" y="702" type="line" name="tll"/>
      <point x="110" y="702" type="line"/>
    </contour>
    <contour>
      <point x="652" y="702" type="line"/>
      <point x="755" y="702" type="line" name="trr"/>
      <point x="755" y="722" type="line" name="trr"/>
      <point x="652" y="722" type="line"/>
    </contour>
    <contour>
      <point x="110" y="702" type="line"/>
      <point x="213" y="702" type="line" name="tlr"/>
      <point x="213" y="722" type="line" name="tlr"/>
      <point x="110" y="722" type="line"/>
    </contour>
    <contour>
      <point x="652" y="722" type="line" name="stem2"/>
      <point x="374" y="0" type="line" name="stem2"/>
      <point x="399" y="0" type="line" name="stem2"/>
      <point x="676" y="722" type="line" name="stem2"/>
    </contour>
    <contour>
      <point x="86" y="722" type="line" name="stem"/>
      <point x="368" y="0" type="line" name="stem"/>
      <point x="393" y="0" type="line" name="stem"/>
      <point x="111" y="722" type="line" name="stem"/>
    </contour>
  </outline>
</glyph>
<glyph name="W" format="1">
  <advance width="959"/>
  <unicode hex="0057"/>
  <outline>
    <contour>
      <point x="484" y="702" type="line"/>
      <point x="587" y="702" type="line" name="tcr"/>
      <point x="587" y="722" type="line" name="tcr"/>
      <point x="484" y="722" type="line"/>
    </contour>
    <contour>
      <point x="484" y="722" type="line"/>
      <point x="381" y="722" type="line" name="tcl"/>
      <point x="381" y="702" type="line" name="tcl"/>
      <point x="484" y="702" type="line"/>
    </contour>
    <contour>
      <point x="112" y="702" type="line"/>
      <point x="215" y="702" type="line" name="tlr"/>
      <point x="215" y="722" type="line" name="tlr"/>
      <point x="112" y="722" type="line"/>
    </contour>
    <contour>
      <point x="112" y="722" type="line"/>
      <point x="9" y="722" type="line" name="tll"/>
      <point x="9" y="702" type="line" name="tll"/>
      <point x="112" y="702" type="line"/>
    </contour>
    <contour>
      <point x="848" y="722" type="line"/>
      <point x="745" y="722" type="line" name="trl"/>
      <point x="745" y="702" type="line" name="trl"/>
      <point x="848" y="702" type="line"/>
    </contour>
    <contour>
      <point x="848" y="702" type="line"/>
      <point x="951" y="702" type="line" name="trr"/>
      <point x="951" y="722" type="line" name="trr"/>
      <point x="848" y="722" type="line"/>
    </contour>
    <contour>
      <point x="292" y="0" type="line" name="stem2"/>
      <point x="493" y="722" type="line" name="stem2"/>
      <point x="472" y="722" type="line" name="stem2"/>
      <point x="276" y="0" type="line" name="stem2"/>
    </contour>
    <contour>
      <point x="479" y="722" type="line" name="stem3"/>
      <point x="660" y="0" type="line" name="stem3"/>
      <point x="676" y="0" type="line" name="stem3"/>
      <point x="500" y="722" type="line" name="stem3"/>
    </contour>
    <contour>
      <point x="88" y="722" type="line" name="stem"/>
      <point x="270" y="0" type="line" name="stem"/>
      <point x="286" y="0" type="line" name="stem"/>
      <point x="111" y="722" type="line" name="stem"/>
    </contour>
    <contour>
      <point x="849" y="722" type="line" name="stem4"/>
      <point x="666" y="0" type="line" name="stem4"/>
      <point x="682" y="0" type="line" name="stem4"/>
      <point x="872" y="722" type="line" name="stem4"/>
    </contour>
  </outline>
</glyph>
<glyph name="X" format="1">
  <advance width="743"/>
  <unicode hex="0058"/>
  <outline>
    <contour>
      <point x="121" y="0" type="line"/>
      <point x="224" y="0" type="line" name="blr"/>
      <point x="224" y="20" type="line" name="blr"/>
      <point x="121" y="20" type="line"/>
    </contour>
    <contour>
      <point x="121" y="20" type="line"/>
      <point x="18" y="20" type="line" name="bll"/>
      <point x="18" y="0" type="line" name="bll"/>
      <point x="121" y="0" type="line"/>
    </contour>
    <contour>
      <point x="620" y="0" type="line"/>
      <point x="723" y="0" type="line" name="brr"/>
      <point x="723" y="20" type="line" name="brr"/>
      <point x="620" y="20" type="line"/>
    </contour>
    <contour>
      <point x="620" y="20" type="line"/>
      <point x="517" y="20" type="line" name="brl"/>
      <point x="517" y="0" type="line" name="brl"/>
      <point x="620" y="0" type="line"/>
    </contour>
    <contour>
      <point x="594" y="702" type="line"/>
      <point x="697" y="702" type="line" name="trr"/>
      <point x="697" y="722" type="line" name="trr"/>
      <point x="594" y="722" type="line"/>
    </contour>
    <contour>
      <point x="594" y="722" type="line"/>
      <point x="491" y="722" type="line" name="trl"/>
      <point x="491" y="702" type="line" name="trl"/>
      <point x="594" y="702" type="line"/>
    </contour>
    <contour>
      <point x="151" y="722" type="line"/>
      <point x="48" y="722" type="line" name="tll"/>
      <point x="48" y="702" type="line" name="tll"/>
      <point x="151" y="702" type="line"/>
    </contour>
    <contour>
      <point x="151" y="702" type="line"/>
      <point x="254" y="702" type="line" name="tlr"/>
      <point x="254" y="722" type="line" name="tlr"/>
      <point x="151" y="722" type="line"/>
    </contour>
    <contour>
      <point x="594" y="722" type="line" name="stem2"/>
      <point x="95" y="0" type="line" name="stem2"/>
      <point x="124" y="0" type="line" name="stem2"/>
      <point x="620" y="722" type="line" name="stem2"/>
    </contour>
    <contour>
      <point x="128" y="722" type="line" name="stem"/>
      <point x="620" y="0" type="line" name="stem"/>
      <point x="648" y="0" type="line" name="stem"/>
      <point x="154" y="722" type="line" name="stem"/>
    </contour>
  </outline>
</glyph>
<glyph name="Y" format="1">
  <advance width="691"/>
  <unicode hex="0059"/>
  <outline>
    <contour>
      <point x="340" y="20" type="line"/>
      <point x="237" y="20" type="line" name="bll"/>
      <point x="237" y="0" type="line" name="bll"/>
      <point x="340" y="0" type="line"/>
    </contour>
    <contour>
      <point x="340" y="0" type="line"/>
      <point x="443" y="0" type="line" name="brr"/>
      <point x="443" y="20" type="line" name="brr"/>
      <point x="340" y="20" type="line"/>
    </contour>
    <contour>
      <point x="576" y="722" type="line"/>
      <point x="473" y="722" type="line" name="trl"/>
      <point x="473" y="702" type="line" name="trl"/>
      <point x="576" y="702" type="line"/>
    </contour>
    <contour>
      <point x="117" y="722" type="line"/>
      <point x="14" y="722" type="line" name="tll"/>
      <point x="14" y="702" type="line" name="tll"/>
      <point x="117" y="702" type="line"/>
    </contour>
    <contour>
      <point x="117" y="702" type="line"/>
      <point x="220" y="702" type="line" name="tlr"/>
      <point x="220" y="722" type="line" name="tlr"/>
      <point x="117" y="722" type="line"/>
    </contour>
    <contour>
      <point x="576" y="702" type="line"/>
      <point x="679" y="702" type="line" name="trr"/>
      <point x="679" y="722" type="line" name="trr"/>
      <point x="576" y="722" type="line"/>
    </contour>
    <contour>
      <point x="93" y="722" type="line" name="stem2"/>
      <point x="328" y="337" type="line" name="stem2"/>
      <point x="352" y="337" type="line" name="stem2"/>
      <point x="117" y="722" type="line" name="stem2"/>
    </contour>
    <contour>
      <point x="576" y="722" type="line" name="stem3"/>
      <point x="328" y="337" type="line" name="stem3"/>
      <point x="352" y="337" type="line" name="stem3"/>
      <point x="600" y="722" type="line" name="stem3"/>
    </contour>
    <contour>
      <point x="352" y="0" type="line" name="stem"/>
      <point x="352" y="346" type="line" name="stem"/>
      <point x="328" y="346" type="line" name="stem"/>
      <point x="328" y="0" type="line" name="stem"/>
    </contour>
  </outline>
</glyph>
<glyph name="Z" format="1">
  <advance width="654"/>
  <unicode hex="005A"/>
  <outline>
    <contour>
      <point x="105" y="711" type="line"/>
      <point x="105" y="628" type="line" name="tlb"/>
      <point x="125" y="628" type="line" name="tlb"/>
      <point x="125" y="711" type="line"/>
    </contour>
    <contour>
      <point x="649" y="10" type="line"/>
      <point x="649" y="93" type="line" name="brt"/>
      <point x="629" y="93" type="line" name="brt"/>
      <point x="629" y="10" type="line"/>
    </contour>
    <contour>
      <point x="105" y="702" type="line" name="stem"/>
      <point x="590" y="702" type="line" name="stem"/>
      <point x="584" y="708" type="line" name="stem"/>
      <point x="579" y="713" type="line" name="stem"/>
      <point x="571" y="702" type="line" name="stem"/>
      <point x="66" y="20" type="line" name="stem"/>
      <point x="65" y="9" type="line" name="stem"/>
      <point x="65" y="0" type="line" name="stem"/>
      <point x="70" y="0" type="line" name="stem"/>
      <point x="649" y="0" type="line" name="stem"/>
      <point x="649" y="20" type="line" name="stem"/>
      <point x="70" y="20" type="line" name="stem"/>
      <point x="76" y="15" type="line" name="stem"/>
      <point x="82" y="9" type="line" name="stem"/>
      <point x="91" y="20" type="line" name="stem"/>
      <point x="597" y="702" type="line" name="stem"/>
      <point x="597" y="713" type="line" name="stem"/>
      <point x="597" y="722" type="line" name="stem"/>
      <point x="590" y="722" type="line" name="stem"/>
      <point x="105" y="722" type="line" name="stem"/>
    </contour>
  </outline>
</glyph>
<glyph name="bracketleft" format="1">
  <advance width="254"/>
  <unicode hex="005B"/>
  <outline>
    <contour>
      <point x="199" y="771" type="line"/>
      <point x="46" y="771" type="line"/>
      <point x="42" y="771" type="line"/>
      <point x="42" y="766" type="line"/>
      <point x="42" y="-121" type="line"/>
      <point x="42" y="-124" type="line"/>
      <point x="45" y="-124" type="line"/>
      <point x="199" y="-124" type="line"/>
      <point x="199" y="-102" type="line"/>
      <point x="45" y="-102" type="line"/>
      <point x="54" y="-111" type="line"/>
      <point x="64" y="-121" type="line"/>
      <point x="64" y="766" type="line"/>
      <point x="55" y="757" type="line"/>
      <point x="46" y="749" type="line"/>
      <point x="199" y="749" type="line"/>
    </contour>
  </outline>
</glyph>
<glyph name="grave" format="1">
  <advance width="400"/>
  <unicode hex="0060"/>
  <outline>
    <contour>
      <point x="291" y="591" type="line" name="stem"/>
      <point x="126" y="757" type="line"/>
      <point x="96" y="757" type="line"/>
      <point x="261" y="591" type="line" name="stem"/>
    </contour>
  </outline>
</glyph>
<glyph name="a" format="1">
  <advance width="514"/>
  <unicode hex="0061"/>
  <outline>
    <contour>
      <point x="64" y="464" type="line"/>
      <point x="64" y="381" type="line" name="tlb"/>
      <point x="84" y="381" type="line" name="tlb"/>
      <point x="84" y="464" type="line"/>
    </contour>
    <contour>
      <point x="421" y="0" type="line"/>
      <point x="421" y="390" type="line" smooth="yes" name=""/>
      <point x="421" y="496"/>
      <point x="360" y="533"/>
      <point x="255" y="533" type="curve" smooth="yes" name="over_top"/>
      <point x="171" y="533"/>
      <point x="112" y="502"/>
      <point x="64" y="464" type="curve" name="bow"/>
      <point x="75" y="448" type="line" name="bow"/>
      <point x="120" y="481"/>
      <point x="174" y="513"/>
      <point x="252" y="513" type="curve" smooth="yes" name=""/>
      <point x="346" y="513"/>
      <point x="399" y="480"/>
      <point x="399" y="384" type="curve" smooth="yes" name=""/>
      <point x="399" y="0" type="line"/>
    </contour>
    <contour>
      <point x="412" y="0" type="line"/>
      <point x="505" y="0" type="line" name="brr"/>
      <point x="505" y="20" type="line" name="brr"/>
      <point x="412" y="20" type="line"/>
    </contour>
    <contour>
      <point x="409" y="319" type="line" name=""/>
      <point x="329" y="308"/>
      <point x="281" y="303"/>
      <point x="201" y="292" type="curve" smooth="yes" name="bowlow"/>
      <point x="108" y="279"/>
      <point x="48" y="241"/>
      <point x="48" y="152" type="curve" smooth="yes"/>
      <point x="48" y="56"/>
      <point x="101" y="0"/>
      <point x="196" y="0" type="curve" smooth="yes" name="over_bottom"/>
      <point x="305" y="0"/>
      <point x="351" y="62"/>
      <point x="415" y="153" type="curve" name=""/>
      <point x="404" y="164" type="line" name=""/>
      <point x="342" y="82"/>
      <point x="301" y="20"/>
      <point x="200" y="20" type="curve" smooth="yes"/>
      <point x="116" y="20"/>
      <point x="70" y="69"/>
      <point x="70" y="154" type="curve" smooth="yes"/>
      <point x="70" y="230"/>
      <point x="121" y="263"/>
      <point x="200" y="274" type="curve" smooth="yes" name="bowlow"/>
      <point x="281" y="285"/>
      <point x="329" y="291"/>
      <point x="410" y="302" type="curve" name=""/>
    </contour>
  </outline>
</glyph>
<glyph name="f" format="1">
  <advance width="581"/>
  <unicode hex="0066"/>
  <outline>
    <contour>
      <point x="478" y="772" type="line"/>
      <point x="478" y="689" type="line" name="trb"/>
      <point x="498" y="689" type="line" name="trb"/>
      <point x="498" y="772" type="line"/>
    </contour>
    <contour>
      <point x="254" y="0" type="line"/>
      <point x="357" y="0" type="line" name="brr"/>
      <point x="357" y="20" type="line" name="brr"/>
      <point x="254" y="20" type="line"/>
    </contour>
    <contour>
      <point x="254" y="20" type="line"/>
      <point x="151" y="20" type="line" name="bll"/>
      <point x="151" y="0" type="line" name="bll"/>
      <point x="254" y="0" type="line"/>
    </contour>
    <contour>
      <point x="69" y="488" type="line" name="bar"/>
      <point x="69" y="488"/>
      <point x="490" y="488"/>
      <point x="490" y="488" type="curve"/>
      <point x="490" y="508" type="line"/>
      <point x="490" y="508"/>
      <point x="69" y="508"/>
      <point x="69" y="508" type="curve" name="bar"/>
    </contour>
    <contour>
      <point x="265" y="0" type="line"/>
      <point x="265" y="0"/>
      <point x="265" y="641"/>
      <point x="265" y="641" type="curve"/>
      <point x="265" y="724"/>
      <point x="311" y="780"/>
      <point x="391" y="780" type="curve" smooth="yes" name="bow"/>
      <point x="425" y="780"/>
      <point x="459" y="771"/>
      <point x="489" y="756" type="curve"/>
      <point x="498" y="772" type="line"/>
      <point x="465" y="789"/>
      <point x="428" y="800"/>
      <point x="391" y="800" type="curve" smooth="yes" name="bow"/>
      <point x="298" y="800"/>
      <point x="242" y="736"/>
      <point x="243" y="641" type="curve"/>
      <point x="243" y="641"/>
      <point x="243" y="0"/>
      <point x="243" y="0" type="curve"/>
    </contour>
  </outline>
</glyph>
<glyph name="g" format="1">
  <advance width="568"/>
  <unicode hex="0067"/>
  <outline>
    <contour>
      <point x="422" y="461" type="line"/>
      <point x="556" y="531" type="line" name="arm"/>
      <point x="545" y="550" type="line" name="arm"/>
      <point x="410" y="477" type="line"/>
    </contour>
    <contour>
      <point x="115" y="358" type="line"/>
      <point x="115" y="450"/>
      <point x="184.0" y="513.0"/>
      <point x="280" y="513" type="curve" smooth="yes" name=""/>
      <point x="375.0" y="513.0"/>
      <point x="440" y="453"/>
      <point x="440" y="361" type="curve" smooth="yes"/>
      <point x="440" y="271"/>
      <point x="374" y="209"/>
      <point x="278" y="209" type="curve" smooth="yes"/>
      <point x="184" y="209"/>
      <point x="115" y="267"/>
      <point x="115" y="358" type="curve"/>
      <point x="93" y="357" type="line"/>
      <point x="93" y="254"/>
      <point x="170" y="189"/>
      <point x="276" y="189" type="curve" smooth="yes"/>
      <point x="385" y="189"/>
      <point x="462" y="256"/>
      <point x="462" y="362" type="curve" smooth="yes"/>
      <point x="462" y="466"/>
      <point x="387" y="533"/>
      <point x="280" y="533" type="curve" smooth="yes" name="over_top"/>
      <point x="170" y="533"/>
      <point x="93" y="464"/>
      <point x="93" y="357" type="curve"/>
    </contour>
    <contour>
      <point x="174" y="226" type="line"/>
      <point x="126" y="200"/>
      <point x="97" y="163"/>
      <point x="97" y="109" type="curve" smooth="yes"/>
      <point x="97" y="24"/>
      <point x="179" y="-5"/>
      <point x="273" y="-13" type="curve" smooth="yes" name=""/>
      <point x="389" y="-23"/>
      <point x="497" y="-42"/>
      <point x="497" y="-145" type="curve" smooth="yes"/>
      <point x="497" y="-247"/>
      <point x="393.533936652" y="-280.0"/>
      <point x="275" y="-280" type="curve" smooth="yes"/>
      <point x="163.546341463" y="-280.0"/>
      <point x="71" y="-235"/>
      <point x="71" y="-135" type="curve" smooth="yes"/>
      <point x="71" y="-64"/>
      <point x="116" y="-17"/>
      <point x="183" y="11" type="curve"/>
      <point x="172" y="23" type="line"/>
      <point x="98" y="-7"/>
      <point x="49" y="-57"/>
      <point x="49" y="-136" type="curve" smooth="yes"/>
      <point x="49" y="-248"/>
      <point x="150" y="-300"/>
      <point x="274" y="-300" type="curve" smooth="yes" name="over_bottom"/>
      <point x="404.92244898" y="-300.0"/>
      <point x="519" y="-259"/>
      <point x="517" y="-143" type="curve" smooth="yes"/>
      <point x="517" y="-31"/>
      <point x="403" y="-4"/>
      <point x="277" y="6" type="curve" smooth="yes" name=""/>
      <point x="193" y="12"/>
      <point x="119" y="36"/>
      <point x="119" y="111" type="curve" smooth="yes"/>
      <point x="119" y="158"/>
      <point x="143" y="190"/>
      <point x="184" y="214" type="curve"/>
    </contour>
  </outline>
</glyph>
<glyph name="i" format="1">
  <advance width="236"/>
  <unicode hex="0069"/>
  <outline>
    <contour>
      <point x="121" y="20" type="line"/>
      <point x="18" y="20" type="line" name="bll"/>
      <point x="18" y="0" type="line" name="bll"/>
      <point x="121" y="0" type="line"/>
    </contour>
    <contour>
      <point x="121" y="0" type="line"/>
      <point x="214" y="0" type="line" name="brr"/>
      <point x="214" y="20" type="line" name="brr"/>
      <point x="121" y="20" type="line"/>
    </contour>
    <contour>
      <point x="121" y="533" type="line"/>
      <point x="18" y="533" type="line" name="tll"/>
      <point x="18" y="513" type="line" name="tll"/>
      <point x="121" y="513" type="line"/>
    </contour>
    <contour>
      <point x="139" y="670" type="line" name="dot"/>
      <point x="139" y="682"/>
      <point x="131" y="689"/>
      <point x="119" y="689" type="curve" name="dot"/>
      <point x="108" y="689"/>
      <point x="102" y="681"/>
      <point x="102" y="670" type="curve" name="dot"/>
      <point x="139" y="670" type="line" name="dot"/>
      <point x="139" y="658"/>
      <point x="131" y="652"/>
      <point x="119" y="652" type="curve" name="dot"/>
      <point x="108" y="652"/>
      <point x="102" y="659"/>
      <point x="102" y="670" type="curve" name="dot"/>
    </contour>
    <contour>
      <point x="133" y="0" type="line" name="stem"/>
      <point x="133" y="533" type="line" name="stem"/>
      <point x="110" y="533" type="line" name="stem"/>
      <point x="110" y="0" type="line" name="stem"/>
    </contour>
  </outline>
</glyph>
<glyph name="j" format="1">
  <advance width="363"/>
  <unicode hex="006A"/>
  <outline>
    <contour>
      <point x="215" y="533" type="line"/>
      <point x="112" y="533" type="line" name="tll"/>
      <point x="112" y="513" type="line" name="tll"/>
      <point x="215" y="513" type="line"/>
    </contour>
    <contour>
      <point x="236" y="670" type="line" name="dot"/>
      <point x="236" y="682"/>
      <point x="228" y="689"/>
      <point x="216" y="689" type="curve" name="dot"/>
      <point x="205" y="689"/>
      <point x="199" y="681"/>
      <point x="199" y="670" type="curve" name="dot"/>
      <point x="236" y="670" type="line" name="dot"/>
      <point x="236" y="658"/>
      <point x="228" y="652"/>
      <point x="216" y="652" type="curve" name="dot"/>
      <point x="205" y="652"/>
      <point x="199" y="659"/>
      <point x="199" y="670" type="curve" name="dot"/>
    </contour>
    <contour>
      <point x="40" y="-297" type="line"/>
      <point x="48" y="-298"/>
      <point x="58" y="-300"/>
      <point x="69" y="-300" type="curve" smooth="yes"/>
      <point x="163" y="-300"/>
      <point x="227" y="-237"/>
      <point x="227" y="-143" type="curve" smooth="yes" name="bow"/>
      <point x="227" y="533" type="line"/>
      <point x="205" y="533" type="line"/>
      <point x="205" y="-143" type="line" smooth="yes" name="bow"/>
      <point x="205" y="-224"/>
      <point x="151" y="-280"/>
      <point x="70" y="-280" type="curve" smooth="yes"/>
      <point x="61" y="-280"/>
      <point x="49" y="-279"/>
      <point x="43" y="-278" type="curve"/>
    </contour>
  </outline>
</glyph>
<glyph name="k" format="1">
  <advance width="586"/>
  <unicode hex="006B"/>
  <outline>
    <contour>
      <point x="128" y="20" type="line"/>
      <point x="25" y="20" type="line" name="bll"/>
      <point x="25" y="0" type="line" name="bll"/>
      <point x="128" y="0" type="line"/>
    </contour>
    <contour>
      <point x="511" y="0" type="line"/>
      <point x="614" y="0" type="line" name="brr"/>
      <point x="614" y="20" type="line" name="brr"/>
      <point x="511" y="20" type="line"/>
    </contour>
    <contour>
      <point x="485" y="513" type="line"/>
      <point x="575" y="513" type="line" name="trr"/>
      <point x="575" y="533" type="line" name="trr"/>
      <point x="485" y="533" type="line"/>
    </contour>
    <contour>
      <point x="128" y="0" type="line"/>
      <point x="219" y="0" type="line" name="blr"/>
      <point x="219" y="20" type="line" name="blr"/>
      <point x="128" y="20" type="line"/>
    </contour>
    <contour>
      <point x="485" y="533" type="line"/>
      <point x="392" y="533" type="line" name="trl"/>
      <point x="392" y="513" type="line" name="trl"/>
      <point x="485" y="513" type="line"/>
    </contour>
    <contour>
      <point x="130" y="800" type="line"/>
      <point x="27" y="800" type="line" name="tll"/>
      <point x="27" y="780" type="line" name="tll"/>
      <point x="130" y="780" type="line"/>
    </contour>
    <contour>
      <point x="140" y="0" type="line" name="stem"/>
      <point x="140" y="0"/>
      <point x="140" y="800"/>
      <point x="140" y="800" type="curve" name="stem"/>
      <point x="118" y="800" type="line" name="stem"/>
      <point x="118" y="0" type="line" name="stem"/>
    </contour>
    <contour>
      <point x="485" y="533" type="line" name="arm"/>
      <point x="134" y="275" type="line" name="arm"/>
      <point x="168" y="275" type="line" name="arm"/>
      <point x="519" y="533" type="line" name="arm"/>
    </contour>
    <contour>
      <point x="545" y="0" type="line" name="arm2"/>
      <point x="168" y="275" type="line" name="arm2"/>
      <point x="134" y="275" type="line" name="arm2"/>
      <point x="511" y="0" type="line" name="arm2"/>
    </contour>
  </outline>
</glyph>
<glyph name="m" format="1">
  <advance width="981"/>
  <unicode hex="006D"/>
  <outline>
    <contour>
      <point x="461" y="0" type="line"/>
      <point x="544" y="0" type="line" name="bcr"/>
      <point x="544" y="20" type="line" name="bcr"/>
      <point x="461" y="20" type="line"/>
    </contour>
    <contour>
      <point x="461" y="20" type="line"/>
      <point x="378" y="20" type="line" name="bcl"/>
      <point x="378" y="0" type="line" name="bcl"/>
      <point x="461" y="0" type="line"/>
    </contour>
    <contour>
      <point x="794" y="0" type="line"/>
      <point x="897" y="0" type="line" name="brr"/>
      <point x="897" y="20" type="line" name="brr"/>
      <point x="794" y="20" type="line"/>
    </contour>
    <contour>
      <point x="129" y="20" type="line"/>
      <point x="26" y="20" type="line" name="bll"/>
      <point x="26" y="0" type="line" name="bll"/>
      <point x="129" y="0" type="line"/>
    </contour>
    <contour>
      <point x="129" y="0" type="line"/>
      <point x="212" y="0" type="line" name="blr"/>
      <point x="212" y="20" type="line" name="blr"/>
      <point x="129" y="20" type="line"/>
    </contour>
    <contour>
      <point x="129" y="533" type="line"/>
      <point x="26" y="533" type="line" name="tll"/>
      <point x="26" y="513" type="line" name="tll"/>
      <point x="129" y="513" type="line"/>
    </contour>
    <contour>
      <point x="794" y="20" type="line"/>
      <point x="711" y="20" type="line" name="brl"/>
      <point x="711" y="0" type="line" name="brl"/>
      <point x="794" y="0" type="line"/>
    </contour>
    <contour>
      <point x="467" y="355" type="line"/>
      <point x="500" y="444"/>
      <point x="557" y="513"/>
      <point x="649" y="513" type="curve" smooth="yes" name="bow2"/>
      <point x="750" y="513"/>
      <point x="782" y="451"/>
      <point x="782" y="342" type="curve" smooth="yes"/>
      <point x="782" y="0" type="line"/>
      <point x="804" y="0" type="line"/>
      <point x="804" y="344" type="line" smooth="yes"/>
      <point x="804" y="465"/>
      <point x="766" y="533"/>
      <point x="653" y="533" type="curve" smooth="yes" name="bow2"/>
      <point x="552" y="533"/>
      <point x="483" y="464"/>
      <point x="455" y="365" type="curve"/>
    </contour>
    <contour>
      <point x="135" y="355" type="line"/>
      <point x="169" y="445"/>
      <point x="224" y="513"/>
      <point x="317" y="513" type="curve" smooth="yes" name="bow"/>
      <point x="417" y="513"/>
      <point x="450" y="451"/>
      <point x="450" y="342" type="curve" smooth="yes"/>
      <point x="450" y="0" type="line"/>
      <point x="472" y="0" type="line"/>
      <point x="472" y="344" type="line" smooth="yes"/>
      <point x="472" y="465"/>
      <point x="434" y="533"/>
      <point x="321" y="533" type="curve" smooth="yes" name="bow"/>
      <point x="219" y="533"/>
      <point x="152" y="465"/>
      <point x="123" y="365" type="curve"/>
    </contour>
    <contour>
      <point x="140" y="0" type="line" name="stem"/>
      <point x="140" y="533" type="line" name="stem"/>
      <point x="118" y="533" type="line" name="stem"/>
      <point x="118" y="0" type="line" name="stem"/>
    </contour>
  </outline>
</glyph>
<glyph name="n" format="1">
  <advance width="601"/>
  <unicode hex="006E"/>
  <outline>
    <contour>
      <point x="124" y="355" type="line"/>
      <point x="157" y="443"/>
      <point x="233" y="513"/>
      <point x="326" y="513" type="curve" smooth="yes" name="bow"/>
      <point x="428" y="513"/>
      <point x="479" y="447"/>
      <point x="479" y="342" type="curve" smooth="yes"/>
      <point x="479" y="0" type="line"/>
      <point x="501" y="0" type="line"/>
      <point x="501" y="344" type="line" smooth="yes"/>
      <point x="501" y="462"/>
      <point x="444" y="533"/>
      <point x="330" y="533" type="curve" smooth="yes" name="bow"/>
      <point x="228" y="533"/>
      <point x="140" y="463"/>
      <point x="112" y="365" type="curve"/>
    </contour>
    <contour>
      <point x="489" y="0" type="line"/>
      <point x="592" y="0" type="line" name="brr"/>
      <point x="592" y="20" type="line" name="brr"/>
      <point x="489" y="20" type="line"/>
    </contour>
    <contour>
      <point x="118" y="20" type="line"/>
      <point x="15" y="20" type="line" name="bll"/>
      <point x="15" y="0" type="line" name="bll"/>
      <point x="118" y="0" type="line"/>
    </contour>
    <contour>
      <point x="118" y="0" type="line"/>
      <point x="211" y="0" type="line" name="blr"/>
      <point x="211" y="20" type="line" name="blr"/>
      <point x="118" y="20" type="line"/>
    </contour>
    <contour>
      <point x="129" y="0" type="line" name="stem"/>
      <point x="129" y="533" type="line" name="stem"/>
      <point x="107" y="533" type="line" name="stem"/>
      <point x="107" y="0" type="line" name="stem"/>
    </contour>
    <contour>
      <point x="118" y="533" type="line"/>
      <point x="15" y="533" type="line" name="tll"/>
      <point x="15" y="513" type="line" name="tll"/>
      <point x="118" y="513" type="line"/>
    </contour>
    <contour>
      <point x="489" y="20" type="line"/>
      <point x="396" y="20" type="line" name="brl"/>
      <point x="396" y="0" type="line" name="brl"/>
      <point x="489" y="0" type="line"/>
    </contour>
  </outline>
</glyph>
<glyph name="o" format="1">
  <advance width="644"/>
  <unicode hex="006F"/>
  <outline>
    <contour>
      <point x="110" y="269" type="line"/>
      <point x="110" y="413"/>
      <point x="176" y="513"/>
      <point x="311" y="513" type="curve" smooth="yes" name="bow"/>
      <point x="449" y="513"/>
      <point x="519" y="412"/>
      <point x="519" y="265" type="curve" smooth="yes"/>
      <point x="519" y="120"/>
      <point x="451" y="20"/>
      <point x="315" y="20" type="curve" smooth="yes"/>
      <point x="177" y="20"/>
      <point x="110" y="122"/>
      <point x="110" y="269" type="curve"/>
      <point x="88" y="268" type="line"/>
      <point x="88" y="109"/>
      <point x="164" y="0"/>
      <point x="314" y="0" type="curve" smooth="yes"/>
      <point x="464" y="0"/>
      <point x="541" y="107"/>
      <point x="541" y="265" type="curve" smooth="yes"/>
      <point x="541" y="424"/>
      <point x="463" y="533"/>
      <point x="312" y="533" type="curve" smooth="yes" name="bow"/>
      <point x="163" y="533"/>
      <point x="88" y="425"/>
      <point x="88" y="268" type="curve"/>
    </contour>
  </outline>
</glyph>
<glyph name="p" format="1">
  <advance width="627"/>
  <unicode hex="0070"/>
  <outline>
    <contour>
      <point x="127" y="-280" type="line"/>
      <point x="24" y="-280" type="line" name="bll"/>
      <point x="24" y="-300" type="line" name="bll"/>
      <point x="127" y="-300" type="line"/>
    </contour>
    <contour>
      <point x="127" y="-300" type="line"/>
      <point x="220" y="-300" type="line" name="brr"/>
      <point x="220" y="-280" type="line" name="brr"/>
      <point x="127" y="-280" type="line"/>
    </contour>
    <contour>
      <point x="128" y="533" type="line"/>
      <point x="25" y="533" type="line" name="tll"/>
      <point x="25" y="513" type="line" name="tll"/>
      <point x="128" y="513" type="line"/>
    </contour>
    <contour>
      <point x="132" y="410" type="line" name="bow"/>
      <point x="171" y="459"/>
      <point x="248" y="513"/>
      <point x="340" y="513" type="curve" smooth="yes" name=""/>
      <point x="470" y="513"/>
      <point x="536" y="404"/>
      <point x="536" y="263" type="curve" smooth="yes"/>
      <point x="539" y="124"/>
      <point x="468" y="19"/>
      <point x="339" y="20" type="curve" smooth="yes"/>
      <point x="255" y="20"/>
      <point x="192" y="47"/>
      <point x="134" y="108" type="curve"/>
      <point x="120" y="97" type="line"/>
      <point x="180" y="29"/>
      <point x="248" y="0"/>
      <point x="339" y="0" type="curve" smooth="yes" name="over_bottom"/>
      <point x="480" y="0"/>
      <point x="558" y="114"/>
      <point x="558" y="264" type="curve" smooth="yes"/>
      <point x="558" y="416"/>
      <point x="482" y="533"/>
      <point x="341" y="533" type="curve" smooth="yes" name="over_top"/>
      <point x="244" y="533"/>
      <point x="163" y="477"/>
      <point x="121" y="424" type="curve" name="bow"/>
    </contour>
    <contour>
      <point x="138" y="-300" type="line" name="stem"/>
      <point x="138" y="533" type="line" name="stem"/>
      <point x="116" y="533" type="line" name="stem"/>
      <point x="116" y="-300" type="line" name="stem"/>
    </contour>
  </outline>
</glyph>
<glyph name="q" format="1">
  <advance width="654"/>
  <unicode hex="0071"/>
  <outline>
    <contour>
      <point x="534" y="513" type="line"/>
      <point x="627" y="513" type="line" name="trr"/>
      <point x="627" y="533" type="line" name="trr"/>
      <point x="534" y="533" type="line"/>
    </contour>
    <contour>
      <point x="534" y="-280" type="line"/>
      <point x="431" y="-280" type="line" name="brl"/>
      <point x="431" y="-300" type="line" name="brl"/>
      <point x="534" y="-300" type="line"/>
    </contour>
    <contour>
      <point x="534" y="-300" type="line"/>
      <point x="627" y="-300" type="line" name="brr"/>
      <point x="627" y="-280" type="line" name="brr"/>
      <point x="534" y="-280" type="line"/>
    </contour>
    <contour>
      <point x="540" y="444" type="line"/>
      <point x="477" y="497"/>
      <point x="402" y="533"/>
      <point x="320" y="533" type="curve" smooth="yes" name="bow"/>
      <point x="174" y="533"/>
      <point x="97" y="419"/>
      <point x="97" y="264" type="curve" smooth="yes"/>
      <point x="97" y="111"/>
      <point x="178" y="0"/>
      <point x="323" y="0" type="curve" smooth="yes"/>
      <point x="412" y="0"/>
      <point x="491" y="51"/>
      <point x="539" y="122" type="curve"/>
      <point x="526" y="133" type="line"/>
      <point x="479" y="65"/>
      <point x="405" y="20"/>
      <point x="322" y="20" type="curve" smooth="yes"/>
      <point x="190" y="20"/>
      <point x="119" y="124"/>
      <point x="119" y="265" type="curve" smooth="yes"/>
      <point x="119" y="407"/>
      <point x="187" y="513"/>
      <point x="320" y="513" type="curve" smooth="yes" name="bow"/>
      <point x="397" y="513"/>
      <point x="467" y="480"/>
      <point x="529" y="432" type="curve"/>
    </contour>
    <contour>
      <point x="544" y="-300" type="line" name="stem"/>
      <point x="544" y="533" type="line" name="stem"/>
      <point x="521" y="533" type="line" name="stem"/>
      <point x="521" y="-300" type="line" name="stem"/>
    </contour>
  </outline>
</glyph>
<glyph name="t" format="1">
  <advance width="464"/>
  <unicode hex="0074"/>
  <outline>
    <contour>
      <point x="43" y="477" type="line"/>
      <point x="43" y="477"/>
      <point x="434" y="477"/>
      <point x="434" y="477" type="curve" name="bar"/>
      <point x="434" y="497" type="line" name="bar"/>
      <point x="434" y="497"/>
      <point x="43" y="497"/>
      <point x="43" y="497" type="curve"/>
    </contour>
    <contour>
      <point x="410" y="45" type="line"/>
      <point x="377" y="27"/>
      <point x="350" y="20"/>
      <point x="312" y="20" type="curve" smooth="yes"/>
      <point x="239" y="20"/>
      <point x="208" y="65"/>
      <point x="208" y="144" type="curve"/>
      <point x="208" y="144"/>
      <point x="208" y="651"/>
      <point x="208" y="651" type="curve" name="bow"/>
      <point x="186" y="638" type="line" name="bow"/>
      <point x="186" y="638"/>
      <point x="186" y="143"/>
      <point x="186" y="143" type="curve"/>
      <point x="186" y="53"/>
      <point x="227" y="0"/>
      <point x="310" y="0" type="curve" smooth="yes"/>
      <point x="352" y="0"/>
      <point x="381" y="9"/>
      <point x="419" y="28" type="curve"/>
    </contour>
  </outline>
</glyph>
<glyph name="u" format="1">
  <advance width="618"/>
  <unicode hex="0075"/>
  <outline>
    <contour>
      <point x="494" y="533" type="line"/>
      <point x="391" y="533" type="line" name="trl"/>
      <point x="391" y="513" type="line" name="trl"/>
      <point x="494" y="513" type="line"/>
    </contour>
    <contour>
      <point x="129" y="533" type="line"/>
      <point x="26" y="533" type="line" name="tll"/>
      <point x="26" y="513" type="line" name="tll"/>
      <point x="129" y="513" type="line"/>
    </contour>
    <contour>
      <point x="494" y="0" type="line"/>
      <point x="587" y="0" type="line" name="brr"/>
      <point x="587" y="20" type="line" name="brr"/>
      <point x="494" y="20" type="line"/>
    </contour>
    <contour>
      <point x="505" y="0" type="line" name="stem"/>
      <point x="505" y="533" type="line" name="stem"/>
      <point x="483" y="533" type="line" name="stem"/>
      <point x="483" y="0" type="line" name="stem"/>
    </contour>
    <contour>
      <point x="487" y="160" type="line"/>
      <point x="451" y="89"/>
      <point x="382" y="20"/>
      <point x="299" y="20" type="curve" smooth="yes"/>
      <point x="195" y="20"/>
      <point x="140" y="81"/>
      <point x="140" y="186" type="curve" smooth="yes" name="bow"/>
      <point x="140" y="533" type="line"/>
      <point x="118" y="533" type="line"/>
      <point x="118" y="185" type="line" smooth="yes" name="bow"/>
      <point x="118" y="66"/>
      <point x="181" y="0"/>
      <point x="298" y="0" type="curve" smooth="yes"/>
      <point x="389" y="0"/>
      <point x="465" y="73"/>
      <point x="502" y="151" type="curve"/>
    </contour>
  </outline>
</glyph>
<glyph name="v" format="1">
  <advance width="666"/>
  <unicode hex="0076"/>
  <outline>
    <contour>
      <point x="132" y="533" type="line"/>
      <point x="29" y="533" type="line" name="tll"/>
      <point x="29" y="513" type="line" name="tll"/>
      <point x="132" y="513" type="line"/>
    </contour>
    <contour>
      <point x="132" y="513" type="line"/>
      <point x="235" y="513" type="line" name="tlr"/>
      <point x="235" y="533" type="line" name="tlr"/>
      <point x="132" y="533" type="line"/>
    </contour>
    <contour>
      <point x="541" y="533" type="line"/>
      <point x="438" y="533" type="line" name="trl"/>
      <point x="438" y="513" type="line" name="trl"/>
      <point x="541" y="513" type="line"/>
    </contour>
    <contour>
      <point x="541" y="513" type="line"/>
      <point x="644" y="513" type="line" name="trr"/>
      <point x="644" y="533" type="line" name="trr"/>
      <point x="541" y="533" type="line"/>
    </contour>
    <contour>
      <point x="110" y="533" type="line" name="stem"/>
      <point x="318" y="0" type="line" name="stem"/>
      <point x="340" y="0" type="line" name="stem"/>
      <point x="134" y="533" type="line" name="stem"/>
    </contour>
    <contour>
      <point x="540" y="533" type="line" name="stem2"/>
      <point x="540" y="533"/>
      <point x="322" y="0"/>
      <point x="322" y="0" type="curve" name="stem2"/>
      <point x="345" y="0" type="line" name="stem2"/>
      <point x="563" y="533" type="line" name="stem2"/>
    </contour>
  </outline>
</glyph>
<glyph name="w" format="1">
  <advance width="969"/>
  <unicode hex="0077"/>
  <outline>
    <contour>
      <point x="488" y="533" type="line"/>
      <point x="385" y="533" type="line" name="tcl"/>
      <point x="385" y="513" type="line" name="tcl"/>
      <point x="488" y="513" type="line"/>
    </contour>
    <contour>
      <point x="488" y="513" type="line"/>
      <point x="591" y="513" type="line" name="tcr"/>
      <point x="591" y="533" type="line" name="tcr"/>
      <point x="488" y="533" type="line"/>
    </contour>
    <contour>
      <point x="849" y="513" type="line"/>
      <point x="952" y="513" type="line" name="trr"/>
      <point x="952" y="533" type="line" name="trr"/>
      <point x="849" y="533" type="line"/>
    </contour>
    <contour>
      <point x="849" y="533" type="line"/>
      <point x="746" y="533" type="line" name="trl"/>
      <point x="746" y="513" type="line" name="trl"/>
      <point x="849" y="513" type="line"/>
    </contour>
    <contour>
      <point x="114" y="533" type="line"/>
      <point x="11" y="533" type="line" name="tll"/>
      <point x="11" y="513" type="line" name="tll"/>
      <point x="114" y="513" type="line"/>
    </contour>
    <contour>
      <point x="114" y="513" type="line"/>
      <point x="217" y="513" type="line" name="tlr"/>
      <point x="217" y="533" type="line" name="tlr"/>
      <point x="114" y="533" type="line"/>
    </contour>
    <contour>
      <point x="294" y="0" type="line" name="stem2"/>
      <point x="497" y="533" type="line" name="stem2"/>
      <point x="473" y="533" type="line" name="stem2"/>
      <point x="273" y="0" type="line" name="stem2"/>
    </contour>
    <contour>
      <point x="850" y="533" type="line" name="stem4"/>
      <point x="663" y="0" type="line" name="stem4"/>
      <point x="684" y="0" type="line" name="stem4"/>
      <point x="874" y="533" type="line" name="stem4"/>
    </contour>
    <contour>
      <point x="479" y="533" type="line" name="stem3"/>
      <point x="662" y="0" type="line" name="stem3"/>
      <point x="683" y="0" type="line" name="stem3"/>
      <point x="502" y="533" type="line" name="stem3"/>
    </contour>
    <contour>
      <point x="90" y="533" type="line" name="stem"/>
      <point x="272" y="0" type="line" name="stem"/>
      <point x="293" y="0" type="line" name="stem"/>
      <point x="113" y="533" type="line" name="stem"/>
    </contour>
  </outline>
</glyph>
<glyph name="x" format="1">
  <advance width="620"/>
  <unicode hex="0078"/>
  <outline>
    <contour>
      <point x="116" y="20" type="line"/>
      <point x="13" y="20" type="line" name="bll"/>
      <point x="13" y="0" type="line" name="bll"/>
      <point x="116" y="0" type="line"/>
    </contour>
    <contour>
      <point x="528" y="20" type="line"/>
      <point x="425" y="20" type="line" name="brl"/>
      <point x="425" y="0" type="line" name="brl"/>
      <point x="528" y="0" type="line"/>
    </contour>
    <contour>
      <point x="528" y="0" type="line"/>
      <point x="631" y="0" type="line" name="brr"/>
      <point x="631" y="20" type="line" name="brr"/>
      <point x="528" y="20" type="line"/>
    </contour>
    <contour>
      <point x="116" y="0" type="line"/>
      <point x="219" y="0" type="line" name="blr"/>
      <point x="219" y="20" type="line" name="blr"/>
      <point x="116" y="20" type="line"/>
    </contour>
    <contour>
      <point x="512" y="513" type="line"/>
      <point x="615" y="513" type="line" name="trr"/>
      <point x="615" y="533" type="line" name="trr"/>
      <point x="512" y="533" type="line"/>
    </contour>
    <contour>
      <point x="136" y="533" type="line"/>
      <point x="33" y="533" type="line" name="tll"/>
      <point x="33" y="513" type="line" name="tll"/>
      <point x="136" y="513" type="line"/>
    </contour>
    <contour>
      <point x="136" y="513" type="line"/>
      <point x="239" y="513" type="line" name="tlr"/>
      <point x="239" y="533" type="line" name="tlr"/>
      <point x="136" y="533" type="line"/>
    </contour>
    <contour>
      <point x="512" y="533" type="line"/>
      <point x="409" y="533" type="line" name="trl"/>
      <point x="409" y="513" type="line" name="trl"/>
      <point x="512" y="513" type="line"/>
    </contour>
    <contour>
      <point x="555" y="0" type="line" name="stem2"/>
      <point x="138" y="533" type="line" name="stem2"/>
      <point x="113" y="533" type="line" name="stem2"/>
      <point x="528" y="0" type="line" name="stem2"/>
    </contour>
    <contour>
      <point x="512" y="533" type="line" name="stem"/>
      <point x="90" y="0" type="line" name="stem"/>
      <point x="118" y="0" type="line" name="stem"/>
      <point x="537" y="533" type="line" name="stem"/>
    </contour>
  </outline>
</glyph>
<glyph name="z" format="1">
  <advance width="581"/>
  <unicode hex="007A"/>
  <outline>
    <contour>
      <point x="98" y="513" type="line" name="stem"/>
      <point x="476" y="513" type="line" name="stem"/>
      <point x="470" y="519" type="line" name="stem"/>
      <point x="465" y="524" type="line" name="stem"/>
      <point x="456" y="513" type="line" name="stem"/>
      <point x="94" y="20" type="line" name="stem"/>
      <point x="94" y="9" type="line" name="stem"/>
      <point x="94" y="0" type="line" name="stem"/>
      <point x="99" y="0" type="line" name="stem"/>
      <point x="525" y="0" type="line" name="stem"/>
      <point x="525" y="20" type="line" name="stem"/>
      <point x="99" y="20" type="line" name="stem"/>
      <point x="105" y="15" type="line" name="stem"/>
      <point x="111" y="9" type="line" name="stem"/>
      <point x="120" y="20" type="line" name="stem"/>
      <point x="483" y="513" type="line" name="stem"/>
      <point x="483" y="524" type="line" name="stem"/>
      <point x="483" y="533" type="line" name="stem"/>
      <point x="476" y="533" type="line" name="stem"/>
      <point x="98" y="533" type="line" name="stem"/>
    </contour>
    <contour>
      <point x="98" y="522" type="line"/>
      <point x="98" y="439" type="line" name="tlb"/>
      <point x="118" y="439" type="line" name="tlb"/>
      <point x="118" y="522" type="line"/>
    </contour>
    <contour>
      <point x="525" y="10" type="line"/>
      <point x="525" y="93" type="line" name="brt"/>
      <point x="505" y="93" type="line" name="brt"/>
      <point x="505" y="10" type="line"/>
    </contour>
  </outline>
</glyph>
<glyph name="braceleft" format="1">
  <advance width="326"/>
  <unicode hex="007B"/>
  <outline>
    <contour>
      <point x="273" y="-104" type="line"/>
      <point x="202" y="-104"/>
      <point x="167" y="-50"/>
      <point x="167" y="25" type="curve" smooth="yes"/>
      <point x="167" y="203" type="line" smooth="yes"/>
      <point x="167" y="288"/>
      <point x="123" y="349"/>
      <point x="42" y="349" type="curve"/>
      <point x="42" y="328" type="line"/>
      <point x="110" y="328"/>
      <point x="147" y="277"/>
      <point x="147" y="205" type="curve" smooth="yes"/>
      <point x="147" y="26" type="line" smooth="yes"/>
      <point x="147" y="-62"/>
      <point x="190" y="-124"/>
      <point x="273" y="-124" type="curve"/>
    </contour>
    <contour>
      <point x="273" y="800" type="line"/>
      <point x="190" y="800"/>
      <point x="147" y="739"/>
      <point x="147" y="651" type="curve" smooth="yes"/>
      <point x="147" y="470" type="line" smooth="yes"/>
      <point x="147" y="398"/>
      <point x="110" y="349"/>
      <point x="42" y="349" type="curve"/>
      <point x="42" y="328" type="line"/>
      <point x="123" y="328"/>
      <point x="167" y="387"/>
      <point x="167" y="473" type="curve" smooth="yes"/>
      <point x="167" y="651" type="line" smooth="yes"/>
      <point x="167" y="726"/>
      <point x="202" y="780"/>
      <point x="273" y="780" type="curve"/>
    </contour>
  </outline>
</glyph>
<glyph name="braceright" format="1">
  <advance width="326"/>
  <unicode hex="007D"/>
  <outline>
    <contour>
      <point x="42" y="-124" type="line"/>
      <point x="125" y="-124"/>
      <point x="168" y="-62"/>
      <point x="168" y="26" type="curve" smooth="yes"/>
      <point x="168" y="205" type="line" smooth="yes"/>
      <point x="168" y="277"/>
      <point x="205" y="328"/>
      <point x="273" y="328" type="curve"/>
      <point x="273" y="349" type="line"/>
      <point x="192" y="349"/>
      <point x="148" y="288"/>
      <point x="148" y="203" type="curve" smooth="yes"/>
      <point x="148" y="25" type="line" smooth="yes"/>
      <point x="148" y="-50"/>
      <point x="113" y="-104"/>
      <point x="42" y="-104" type="curve"/>
    </contour>
    <contour>
      <point x="42" y="780" type="line"/>
      <point x="113" y="780"/>
      <point x="148" y="726"/>
      <point x="148" y="651" type="curve" smooth="yes"/>
      <point x="148" y="473" type="line" smooth="yes"/>
      <point x="148" y="387"/>
      <point x="192" y="328"/>
      <point x="273" y="328" type="curve"/>
      <point x="273" y="349" type="line"/>
      <point x="205" y="349"/>
      <point x="168" y="398"/>
      <point x="168" y="470" type="curve" smooth="yes"/>
      <point x="168" y="651" type="line" smooth="yes"/>
      <point x="168" y="739"/>
      <point x="125" y="800"/>
      <point x="42" y="800" type="curve"/>
    </contour>
  </outline>
</glyph>
<glyph name="cent" format="1">
  <advance width="584"/>
  <unicode hex="00A2"/>
  <outline>
    <contour>
      <point x="336" y="-53" type="line" name="stem2"/>
      <point x="336" y="67" type="line"/>
      <point x="314" y="67" type="line"/>
      <point x="314" y="-53" type="line" name="stem2"/>
    </contour>
    <contour>
      <point x="335" y="778" type="line" name="stem"/>
      <point x="335" y="670" type="line"/>
      <point x="357" y="670" type="line"/>
      <point x="357" y="778" type="line" name="stem"/>
    </contour>
    <contour>
      <point x="563" y="609" type="line"/>
      <point x="494" y="658"/>
      <point x="435" y="679"/>
      <point x="350" y="679" type="curve" smooth="yes" name=""/>
      <point x="169" y="679"/>
      <point x="63" y="553"/>
      <point x="63" y="366" type="curve" smooth="yes"/>
      <point x="63" y="185"/>
      <point x="152" y="54"/>
      <point x="323" y="54" type="curve" smooth="yes"/>
      <point x="420" y="54"/>
      <point x="486" y="85"/>
      <point x="561" y="146" type="curve"/>
      <point x="547" y="163" type="line"/>
      <point x="478" y="104"/>
      <point x="416" y="75"/>
      <point x="325" y="75" type="curve" smooth="yes"/>
      <point x="166" y="75"/>
      <point x="85" y="198"/>
      <point x="85" y="367" type="curve" smooth="yes"/>
      <point x="85" y="540"/>
      <point x="181" y="658"/>
      <point x="348" y="658" type="curve" smooth="yes"/>
      <point x="429" y="658"/>
      <point x="486" y="639"/>
      <point x="551" y="591" type="curve"/>
    </contour>
  </outline>
</glyph>
<glyph name="sterling" format="1">
  <advance width="505"/>
  <unicode hex="00A3"/>
  <outline>
    <contour>
      <point x="433" y="20" type="line"/>
      <point x="30" y="20" type="line"/>
      <point x="30" y="0" type="line"/>
      <point x="433" y="0" type="line"/>
    </contour>
    <contour>
      <point x="386" y="387" type="line"/>
      <point x="65" y="387" type="line"/>
      <point x="65" y="367" type="line"/>
      <point x="386" y="367" type="line"/>
    </contour>
    <contour>
      <point x="443" y="674" type="line"/>
      <point x="399" y="706"/>
      <point x="363" y="722"/>
      <point x="309" y="722" type="curve" smooth="yes"/>
      <point x="158.993243243" y="722.0"/>
      <point x="121.98999165" y="564.049778373"/>
      <point x="160" y="375" type="curve" smooth="yes"/>
      <point x="198.298970641" y="185.520882093"/>
      <point x="177" y="20"/>
      <point x="30" y="20" type="curve"/>
      <point x="30" y="0" type="line"/>
      <point x="197" y="0"/>
      <point x="222.101721989" y="175.483760907"/>
      <point x="182" y="379" type="curve" smooth="yes"/>
      <point x="148" y="553"/>
      <point x="179.0" y="703.0"/>
      <point x="308" y="703" type="curve" smooth="yes"/>
      <point x="358.0" y="703.0"/>
      <point x="391.696902766" y="688.234900357"/>
      <point x="432" y="657" type="curve"/>
    </contour>
  </outline>
</glyph>
<glyph name="currency" format="1">
  <advance width="513"/>
  <unicode hex="00A4"/>
  <outline>
    <contour>
      <point x="371" y="417" type="line"/>
      <point x="467" y="512" type="line"/>
      <point x="452" y="528" type="line"/>
      <point x="356" y="433" type="line"/>
    </contour>
    <contour>
      <point x="57" y="94" type="line"/>
      <point x="152" y="188" type="line"/>
      <point x="138" y="205" type="line"/>
      <point x="42" y="110" type="line"/>
    </contour>
    <contour>
      <point x="362" y="189" type="line"/>
      <point x="457" y="94" type="line"/>
      <point x="473" y="109" type="line"/>
      <point x="377" y="205" type="line"/>
    </contour>
    <contour>
      <point x="49" y="511" type="line"/>
      <point x="144" y="416" type="line"/>
      <point x="160" y="431" type="line"/>
      <point x="64" y="527" type="line"/>
    </contour>
    <contour>
      <point x="122" y="310" type="line"/>
      <point x="122" y="398"/>
      <point x="174" y="459"/>
      <point x="260" y="459" type="curve" smooth="yes"/>
      <point x="346" y="459"/>
      <point x="394" y="398"/>
      <point x="394" y="310" type="curve"/>
      <point x="394" y="220"/>
      <point x="348" y="155"/>
      <point x="263" y="155" type="curve" smooth="yes"/>
      <point x="173" y="155"/>
      <point x="122" y="218"/>
      <point x="122" y="310" type="curve"/>
      <point x="100" y="310" type="line"/>
      <point x="100" y="205"/>
      <point x="160" y="135"/>
      <point x="262" y="135" type="curve" smooth="yes"/>
      <point x="361" y="135"/>
      <point x="416" y="208"/>
      <point x="416" y="311" type="curve" smooth="yes"/>
      <point x="416" y="411"/>
      <point x="359" y="479"/>
      <point x="262" y="479" type="curve" smooth="yes"/>
      <point x="161" y="479"/>
      <point x="100" y="412"/>
      <point x="100" y="310" type="curve"/>
    </contour>
  </outline>
</glyph>
<glyph name="yen" format="1">
  <advance width="702"/>
  <unicode hex="00A5"/>
  <outline>
    <contour>
      <point x="568" y="370" type="line"/>
      <point x="357" y="370" type="line"/>
      <point x="357" y="348" type="line"/>
      <point x="568" y="348" type="line"/>
    </contour>
    <contour>
      <point x="328" y="370" type="line"/>
      <point x="121" y="370" type="line"/>
      <point x="121" y="348" type="line"/>
      <point x="328" y="348" type="line"/>
    </contour>
    <contour>
      <point x="568" y="251" type="line"/>
      <point x="121" y="251" type="line"/>
      <point x="121" y="229" type="line"/>
      <point x="568" y="229" type="line"/>
    </contour>
    <contour>
      <point x="343" y="20" type="line"/>
      <point x="240" y="20" type="line" name="bll"/>
      <point x="240" y="0" type="line" name="bll"/>
      <point x="343" y="0" type="line"/>
    </contour>
    <contour>
      <point x="343" y="0" type="line"/>
      <point x="446" y="0" type="line" name="brr"/>
      <point x="446" y="20" type="line" name="brr"/>
      <point x="343" y="20" type="line"/>
    </contour>
    <contour>
      <point x="579" y="722" type="line"/>
      <point x="476" y="722" type="line" name="trl"/>
      <point x="476" y="702" type="line" name="trl"/>
      <point x="579" y="702" type="line"/>
    </contour>
    <contour>
      <point x="120" y="722" type="line"/>
      <point x="17" y="722" type="line" name="tll"/>
      <point x="17" y="702" type="line" name="tll"/>
      <point x="120" y="702" type="line"/>
    </contour>
    <contour>
      <point x="120" y="702" type="line"/>
      <point x="223" y="702" type="line" name="tlr"/>
      <point x="223" y="722" type="line" name="tlr"/>
      <point x="120" y="722" type="line"/>
    </contour>
    <contour>
      <point x="579" y="702" type="line"/>
      <point x="682" y="702" type="line" name="trr"/>
      <point x="682" y="722" type="line" name="trr"/>
      <point x="579" y="722" type="line"/>
    </contour>
    <contour>
      <point x="96" y="722" type="line" name="stem2"/>
      <point x="332" y="335" type="line" name="stem2"/>
      <point x="354" y="335" type="line" name="stem2"/>
      <point x="120" y="722" type="line" name="stem2"/>
    </contour>
    <contour>
      <point x="579" y="722" type="line" name="stem3"/>
      <point x="332" y="335" type="line" name="stem3"/>
      <point x="354" y="335" type="line" name="stem3"/>
      <point x="603" y="722" type="line" name="stem3"/>
    </contour>
    <contour>
      <point x="354" y="0" type="line" name="stem"/>
      <point x="354" y="335" type="line" name="stem"/>
      <point x="332" y="335" type="line" name="stem"/>
      <point x="332" y="0" type="line" name="stem"/>
    </contour>
  </outline>
</glyph>
<glyph name="section" format="1">
  <advance width="489"/>
  <unicode hex="00A7"/>
  <outline>
    <contour>
      <point x="381" y="709" type="line"/>
      <point x="331" y="737"/>
      <point x="292.08974359" y="752.0"/>
      <point x="235" y="752" type="curve" smooth="yes"/>
      <point x="150.953488372" y="752.0"/>
      <point x="96.0" y="705.0"/>
      <point x="96" y="628" type="curve" smooth="yes"/>
      <point x="96" y="553"/>
      <point x="146" y="512"/>
      <point x="219" y="486" type="curve" smooth="yes"/>
      <point x="304" y="456"/>
      <point x="389" y="447"/>
      <point x="389" y="361" type="curve" smooth="yes"/>
      <point x="389" y="286"/>
      <point x="341" y="242"/>
      <point x="265" y="227" type="curve"/>
      <point x="278" y="211" type="line"/>
      <point x="360" y="231"/>
      <point x="411" y="279"/>
      <point x="411" y="361" type="curve" smooth="yes"/>
      <point x="410" y="454"/>
      <point x="324" y="475"/>
      <point x="230" y="505" type="curve" smooth="yes"/>
      <point x="165" y="527"/>
      <point x="118" y="561"/>
      <point x="118" y="628" type="curve" smooth="yes"/>
      <point x="118.0" y="692.0"/>
      <point x="162.904761905" y="732.0"/>
      <point x="233" y="732" type="curve" smooth="yes"/>
      <point x="287.081081081" y="732.0"/>
      <point x="323.549984609" y="718.572008619"/>
      <point x="371" y="692" type="curve"/>
    </contour>
    <contour>
      <point x="187" y="513" type="line"/>
      <point x="111" y="489"/>
      <point x="62" y="445"/>
      <point x="62" y="367" type="curve" smooth="yes"/>
      <point x="62" y="278"/>
      <point x="138" y="249"/>
      <point x="228" y="220" type="curve" smooth="yes"/>
      <point x="299" y="195"/>
      <point x="360" y="171"/>
      <point x="360" y="99" type="curve" smooth="yes"/>
      <point x="360" y="29"/>
      <point x="310" y="-10"/>
      <point x="237" y="-10" type="curve" smooth="yes"/>
      <point x="175" y="-10"/>
      <point x="134" y="8"/>
      <point x="83" y="43" type="curve"/>
      <point x="71" y="27" type="line"/>
      <point x="124" y="-12"/>
      <point x="170" y="-30"/>
      <point x="236" y="-30" type="curve" smooth="yes"/>
      <point x="322" y="-30"/>
      <point x="382" y="16"/>
      <point x="382" y="99" type="curve" smooth="yes"/>
      <point x="381" y="178"/>
      <point x="321" y="214"/>
      <point x="242" y="239" type="curve" smooth="yes"/>
      <point x="160" y="267"/>
      <point x="84" y="285"/>
      <point x="84" y="367" type="curve" smooth="yes"/>
      <point x="84" y="437"/>
      <point x="129" y="476"/>
      <point x="198" y="498" type="curve"/>
    </contour>
  </outline>
</glyph>
<glyph name="dieresis" format="1">
  <advance width="318"/>
  <unicode hex="00A8"/>
  <outline>
    <contour>
      <point x="114" y="670" type="line" name=""/>
      <point x="114" y="682"/>
      <point x="106" y="689"/>
      <point x="94" y="689" type="curve" name="dot2"/>
      <point x="83" y="689"/>
      <point x="76" y="681"/>
      <point x="76" y="670" type="curve" name=""/>
      <point x="114" y="670" type="line" name=""/>
      <point x="114" y="658"/>
      <point x="106" y="652"/>
      <point x="94" y="652" type="curve" name="dot2"/>
      <point x="83" y="652"/>
      <point x="76" y="659"/>
      <point x="76" y="670" type="curve" name=""/>
    </contour>
    <contour>
      <point x="235" y="670" type="line" name=""/>
      <point x="235" y="682"/>
      <point x="227" y="689"/>
      <point x="215" y="689" type="curve" name="dot"/>
      <point x="204" y="689"/>
      <point x="197" y="681"/>
      <point x="197" y="670" type="curve" name=""/>
      <point x="235" y="670" type="line" name=""/>
      <point x="235" y="658"/>
      <point x="227" y="652"/>
      <point x="215" y="652" type="curve" name="dot"/>
      <point x="204" y="652"/>
      <point x="197" y="659"/>
      <point x="197" y="670" type="curve" name=""/>
    </contour>
  </outline>
</glyph>
<glyph name="copyright" format="1">
  <advance width="706"/>
  <unicode hex="00A9"/>
  <outline>
    <contour>
      <point x="73" y="319" type="line"/>
      <point x="73" y="499"/>
      <point x="191" y="626"/>
      <point x="368" y="626" type="curve" smooth="yes"/>
      <point x="541" y="626"/>
      <point x="656" y="497"/>
      <point x="656" y="318" type="curve" smooth="yes"/>
      <point x="656" y="145"/>
      <point x="543" y="20"/>
      <point x="374" y="20" type="curve" smooth="yes"/>
      <point x="198" y="20"/>
      <point x="73" y="141"/>
      <point x="73" y="319" type="curve"/>
      <point x="51" y="319" type="line"/>
      <point x="51" y="130"/>
      <point x="183" y="0"/>
      <point x="373" y="0" type="curve" smooth="yes" name="over_bottom"/>
      <point x="556" y="0"/>
      <point x="678" y="133"/>
      <point x="678" y="319" type="curve" smooth="yes"/>
      <point x="678" y="509"/>
      <point x="554" y="646"/>
      <point x="368" y="646" type="curve" smooth="yes"/>
      <point x="179" y="646"/>
      <point x="51" y="511"/>
      <point x="51" y="319" type="curve"/>
    </contour>
    <contour>
      <point x="466" y="453" type="line" name=""/>
      <point x="466" y="381" type="line" name=""/>
      <point x="486" y="381" type="line" name=""/>
      <point x="486" y="464" type="line" name=""/>
    </contour>
    <contour>
      <point x="486" y="464" type="line" name=""/>
      <point x="449" y="487"/>
      <point x="418" y="495"/>
      <point x="374" y="495" type="curve" smooth="yes" name=""/>
      <point x="272" y="495"/>
      <point x="211" y="424"/>
      <point x="211" y="319" type="curve" smooth="yes" name=""/>
      <point x="211" y="217"/>
      <point x="265" y="146"/>
      <point x="362" y="146" type="curve" smooth="yes" name=""/>
      <point x="417" y="146"/>
      <point x="456" y="158"/>
      <point x="499" y="193" type="curve" name=""/>
      <point x="485" y="209" type="line" name=""/>
      <point x="447" y="177"/>
      <point x="412" y="166"/>
      <point x="363" y="166" type="curve" smooth="yes" name=""/>
      <point x="278" y="166"/>
      <point x="233" y="230"/>
      <point x="233" y="320" type="curve" smooth="yes" name=""/>
      <point x="233" y="412"/>
      <point x="284" y="475"/>
      <point x="373" y="475" type="curve" smooth="yes" name=""/>
      <point x="412" y="475"/>
      <point x="437" y="468"/>
      <point x="466" y="453" type="curve" name=""/>
    </contour>
  </outline>
</glyph>
<glyph name="ordfeminine" format="1">
  <advance width="311"/>
  <unicode hex="00AA"/>
  <outline>
    <contour>
      <point x="271" y="270" type="line"/>
      <point x="271" y="476" type="line" smooth="yes"/>
      <point x="271" y="544"/>
      <point x="220" y="586"/>
      <point x="150" y="586" type="curve" smooth="yes"/>
      <point x="109" y="586"/>
      <point x="80" y="570"/>
      <point x="50" y="542" type="curve"/>
      <point x="64" y="526" type="line"/>
      <point x="89" y="549"/>
      <point x="113" y="565"/>
      <point x="147" y="565" type="curve" smooth="yes"/>
      <point x="207" y="565"/>
      <point x="249" y="528"/>
      <point x="249" y="470" type="curve" smooth="yes"/>
      <point x="249" y="270" type="line"/>
    </contour>
    <contour>
      <point x="254" y="353" type="line"/>
      <point x="222" y="313"/>
      <point x="192" y="280"/>
      <point x="141" y="280" type="curve" smooth="yes"/>
      <point x="90" y="280"/>
      <point x="49" y="304"/>
      <point x="49" y="352" type="curve" smooth="yes"/>
      <point x="49" y="397"/>
      <point x="84" y="421"/>
      <point x="131" y="426" type="curve" smooth="yes"/>
      <point x="176" y="430"/>
      <point x="211" y="430"/>
      <point x="256" y="432" type="curve"/>
      <point x="256" y="450" type="line"/>
      <point x="212" y="448"/>
      <point x="177" y="448"/>
      <point x="133" y="444" type="curve" smooth="yes"/>
      <point x="72" y="439"/>
      <point x="27" y="407"/>
      <point x="27" y="350" type="curve" smooth="yes"/>
      <point x="27" y="292"/>
      <point x="75" y="260"/>
      <point x="137" y="260" type="curve" smooth="yes"/>
      <point x="194" y="260"/>
      <point x="230" y="292"/>
      <point x="263" y="339" type="curve"/>
    </contour>
  </outline>
</glyph>
<glyph name="registered" format="1">
  <advance width="704"/>
  <unicode hex="00AE"/>
  <outline>
    <contour>
      <point x="73" y="319" type="line"/>
      <point x="73" y="499"/>
      <point x="191" y="626"/>
      <point x="368" y="626" type="curve" smooth="yes"/>
      <point x="541" y="626"/>
      <point x="656" y="497"/>
      <point x="656" y="318" type="curve" smooth="yes"/>
      <point x="656" y="145"/>
      <point x="543" y="20"/>
      <point x="374" y="20" type="curve" smooth="yes"/>
      <point x="198" y="20"/>
      <point x="73" y="141"/>
      <point x="73" y="319" type="curve"/>
      <point x="51" y="319" type="line"/>
      <point x="51" y="130"/>
      <point x="183" y="0"/>
      <point x="373" y="0" type="curve" smooth="yes" name="over_bottom"/>
      <point x="556" y="0"/>
      <point x="678" y="133"/>
      <point x="678" y="319" type="curve" smooth="yes"/>
      <point x="678" y="509"/>
      <point x="554" y="646"/>
      <point x="368" y="646" type="curve" smooth="yes"/>
      <point x="179" y="646"/>
      <point x="51" y="511"/>
      <point x="51" y="319" type="curve"/>
    </contour>
    <contour>
      <point x="466" y="149" type="line" name=""/>
      <point x="552" y="149" type="line" name=""/>
      <point x="552" y="169" type="line" name=""/>
      <point x="482" y="169" type="line" name=""/>
    </contour>
    <contour>
      <point x="303" y="490" type="line" name=""/>
      <point x="199" y="490" type="line" name=""/>
      <point x="199" y="470" type="line" name=""/>
      <point x="281" y="470" type="line" name=""/>
    </contour>
    <contour>
      <point x="303" y="169" type="line" name=""/>
      <point x="199" y="169" type="line" name=""/>
      <point x="199" y="149" type="line" name=""/>
      <point x="281" y="149" type="line" name=""/>
    </contour>
    <contour>
      <point x="281" y="149" type="line" name=""/>
      <point x="375" y="149" type="line" name=""/>
      <point x="375" y="169" type="line" name=""/>
      <point x="303" y="169" type="line" name=""/>
    </contour>
    <contour>
      <point x="378" y="309" type="line" name=""/>
      <point x="466" y="149" type="line" name=""/>
      <point x="482" y="169" type="line" name=""/>
      <point x="405" y="309" type="line" name=""/>
    </contour>
    <contour>
      <point x="303" y="169" type="line" name=""/>
      <point x="303" y="490" type="line" name=""/>
      <point x="281" y="470" type="line" name=""/>
      <point x="281" y="149" type="line" name=""/>
    </contour>
    <contour>
      <point x="294" y="296" type="line" name=""/>
      <point x="357" y="296" type="line" smooth="yes" name=""/>
      <point x="425" y="296"/>
      <point x="471" y="325"/>
      <point x="471" y="392" type="curve" smooth="yes" name=""/>
      <point x="471" y="454"/>
      <point x="428" y="490"/>
      <point x="365" y="490" type="curve" smooth="yes" name=""/>
      <point x="303" y="490" type="line" name=""/>
      <point x="281" y="470" type="line" name=""/>
      <point x="361" y="470" type="line" smooth="yes" name=""/>
      <point x="413" y="470"/>
      <point x="449" y="441"/>
      <point x="449" y="390" type="curve" smooth="yes" name=""/>
      <point x="449" y="338"/>
      <point x="413" y="316"/>
      <point x="360" y="316" type="curve" smooth="yes" name=""/>
      <point x="294" y="316" type="line" name=""/>
    </contour>
  </outline>
</glyph>
<glyph name="macron" format="1">
  <advance width="286"/>
  <unicode hex="00AF"/>
  <outline>
    <contour>
      <point x="256" y="680" type="line"/>
      <point x="31" y="680" type="line"/>
      <point x="31" y="660" type="line"/>
      <point x="256" y="660" type="line"/>
    </contour>
  </outline>
</glyph>
<glyph name="degree" format="1">
  <advance width="366"/>
  <unicode hex="00B0"/>
  <outline>
    <contour>
      <point x="45" y="433" type="line"/>
      <point x="45" y="538"/>
      <point x="88" y="618"/>
      <point x="184" y="618" type="curve" smooth="yes"/>
      <point x="282" y="618"/>
      <point x="329" y="538"/>
      <point x="329" y="431" type="curve"/>
      <point x="329" y="321"/>
      <point x="286" y="237"/>
      <point x="187" y="237" type="curve" smooth="yes" name=""/>
      <point x="87" y="237"/>
      <point x="45" y="323"/>
      <point x="45" y="433" type="curve"/>
      <point x="24" y="433" type="line"/>
      <point x="24" y="310"/>
      <point x="74" y="217"/>
      <point x="186" y="217" type="curve" smooth="yes" name=""/>
      <point x="298" y="217"/>
      <point x="350" y="309"/>
      <point x="350" y="431" type="curve" smooth="yes"/>
      <point x="350" y="550"/>
      <point x="296" y="638"/>
      <point x="186" y="638" type="curve" smooth="yes" name=""/>
      <point x="77" y="638"/>
      <point x="24" y="551"/>
      <point x="24" y="433" type="curve"/>
    </contour>
  </outline>
</glyph>
<glyph name="twosuperior" format="1">
  <advance width="339"/>
  <unicode hex="00B2"/>
  <outline>
    <contour>
      <point x="90" y="500"/>
      <point x="143" y="531"/>
      <point x="201" y="583" type="curve" smooth="yes"/>
      <point x="254" y="630"/>
      <point x="303" y="668"/>
      <point x="303" y="739" type="curve" smooth="yes"/>
      <point x="303" y="810"/>
      <point x="254" y="856"/>
      <point x="182" y="856" type="curve" smooth="yes"/>
      <point x="119" y="856"/>
      <point x="75" y="825"/>
      <point x="44" y="770" type="curve"/>
      <point x="61" y="758" type="line"/>
      <point x="88" y="807"/>
      <point x="126" y="835"/>
      <point x="181" y="835" type="curve" smooth="yes"/>
      <point x="242" y="835"/>
      <point x="284" y="796"/>
      <point x="284" y="736" type="curve" smooth="yes"/>
      <point x="284" y="671"/>
      <point x="236" y="639"/>
      <point x="187" y="596" type="curve" smooth="yes"/>
      <point x="128" y="544"/>
      <point x="76" y="514"/>
      <point x="15" y="464" type="curve"/>
      <point x="29" y="452" type="line"/>
    </contour>
    <contour>
      <point x="15" y="464" type="line"/>
      <point x="15" y="443" type="line"/>
      <point x="328" y="443" type="line"/>
      <point x="328" y="464" type="line"/>
    </contour>
  </outline>
</glyph>
<glyph name="threesuperior" format="1">
  <advance width="302"/>
  <unicode hex="00B3"/>
  <outline>
    <contour>
      <point x="93" y="639" type="line"/>
      <point x="183" y="636"/>
      <point x="263" y="627"/>
      <point x="263" y="549" type="curve" smooth="yes"/>
      <point x="265" y="483"/>
      <point x="207" y="456"/>
      <point x="132" y="458" type="curve" smooth="yes"/>
      <point x="95" y="458"/>
      <point x="61" y="467"/>
      <point x="29" y="486" type="curve"/>
      <point x="16" y="470" type="line"/>
      <point x="51" y="448"/>
      <point x="89" y="437"/>
      <point x="130" y="437" type="curve" smooth="yes"/>
      <point x="219" y="434"/>
      <point x="286" y="472"/>
      <point x="284" y="552" type="curve" smooth="yes"/>
      <point x="284" y="640"/>
      <point x="194" y="651"/>
      <point x="93" y="654" type="curve"/>
    </contour>
    <contour>
      <point x="93" y="660" type="curve"/>
      <point x="93" y="643" type="line"/>
      <point x="188" y="645"/>
      <point x="269" y="665"/>
      <point x="269" y="748" type="curve" smooth="yes"/>
      <point x="269" y="819"/>
      <point x="215" y="857"/>
      <point x="140" y="857" type="curve" smooth="yes"/>
      <point x="94" y="857"/>
      <point x="52" y="840"/>
      <point x="24" y="804" type="curve"/>
      <point x="39" y="788" type="line"/>
      <point x="64" y="819"/>
      <point x="98" y="837"/>
      <point x="137" y="837" type="curve" smooth="yes"/>
      <point x="201" y="837"/>
      <point x="247" y="806"/>
      <point x="247" y="746" type="curve" smooth="yes"/>
      <point x="247" y="674"/>
      <point x="176" y="661"/>
    </contour>
  </outline>
</glyph>
<glyph name="acute" format="1">
  <advance width="223"/>
  <unicode hex="00B4"/>
  <outline>
    <contour>
      <point x="46" y="591" type="line"/>
      <point x="211" y="757" type="line" name="stem"/>
      <point x="181" y="757" type="line" name="stem"/>
      <point x="16" y="591" type="line"/>
    </contour>
  </outline>
</glyph>
<glyph name="uni00B5" format="1">
  <advance width="1202"/>
  <unicode hex="00B5"/>
  <outline>
    <contour>
      <point x="952" y="975" type="line"/>
      <point x="773" y="933" type="line"/>
      <point x="773" y="238" type="line"/>
      <point x="773" y="220" type="line"/>
      <point x="708" y="150"/>
      <point x="618" y="121"/>
      <point x="534" y="121" type="curve" smooth="yes"/>
      <point x="398" y="121"/>
      <point x="346" y="312"/>
      <point x="346" y="416" type="curve" smooth="yes"/>
      <point x="346" y="975" type="line"/>
      <point x="168" y="933" type="line"/>
      <point x="168" y="-500" type="line"/>
      <point x="346" y="-458" type="line"/>
      <point x="324" y="60" type="line"/>
      <point x="372" y="-1"/>
      <point x="436" y="-24"/>
      <point x="500" y="-24" type="curve" smooth="yes"/>
      <point x="607" y="-24"/>
      <point x="717" y="40"/>
      <point x="775" y="132" type="curve"/>
      <point x="781" y="25"/>
      <point x="803" y="-21"/>
      <point x="876" y="-21" type="curve" smooth="yes"/>
      <point x="933" y="-21"/>
      <point x="1020" y="0"/>
      <point x="1150" y="42" type="curve"/>
      <point x="1159" y="96" type="line"/>
      <point x="995" y="96"/>
      <point x="952" y="111"/>
      <point x="952" y="200" type="curve" smooth="yes"/>
    </contour>
  </outline>
</glyph>
<glyph name="paragraph" format="1">
  <advance width="529"/>
  <unicode hex="00B6"/>
  <outline>
    <contour>
      <point x="391" y="722" type="line"/>
      <point x="391" y="702" type="line"/>
      <point x="494" y="702" type="line" name="tll"/>
      <point x="494" y="722" type="line" name="tll"/>
    </contour>
    <contour>
      <point x="391" y="20" type="line"/>
      <point x="391" y="0" type="line"/>
      <point x="494" y="0" type="line" name="bll"/>
      <point x="494" y="20" type="line" name="bll"/>
    </contour>
    <contour>
      <point x="391" y="0" type="line"/>
      <point x="391" y="20" type="line"/>
      <point x="288" y="20" type="line" name="blr"/>
      <point x="288" y="0" type="line" name="blr"/>
    </contour>
    <contour>
      <point x="393" y="327" type="curve"/>
      <point x="386" y="345" type="line"/>
      <point x="334" y="318"/>
      <point x="293" y="301"/>
      <point x="234" y="301" type="curve" smooth="yes"/>
      <point x="118" y="301"/>
      <point x="40" y="377"/>
      <point x="40" y="493" type="curve" smooth="yes"/>
      <point x="40" y="622"/>
      <point x="131" y="702"/>
      <point x="263" y="702" type="curve" smooth="yes"/>
      <point x="388" y="702" type="line"/>
      <point x="388" y="722" type="line"/>
      <point x="260" y="722" type="line" smooth="yes"/>
      <point x="117" y="722"/>
      <point x="18" y="634"/>
      <point x="18" y="494" type="curve" smooth="yes"/>
      <point x="18" y="365"/>
      <point x="105" y="283"/>
      <point x="236" y="281" type="curve" smooth="yes"/>
      <point x="294" y="281"/>
      <point x="342" y="300"/>
    </contour>
    <contour>
      <point x="381" y="0" type="line" name="stem"/>
      <point x="403" y="0" type="line" name="stem"/>
      <point x="403" y="722" type="line" name="stem"/>
      <point x="381" y="722" type="line" name="stem"/>
    </contour>
  </outline>
</glyph>
<glyph name="cedilla" format="1">
  <advance width="286"/>
  <unicode hex="00B8"/>
  <outline>
    <contour>
      <point x="150" y="16" type="line" name=""/>
      <point x="106" y="-65" type="line"/>
      <point x="121" y="-81" type="line"/>
      <point x="167" y="2" type="line" name=""/>
    </contour>
    <contour>
      <point x="121" y="-81" type="line"/>
      <point x="136" y="-71"/>
      <point x="149" y="-68"/>
      <point x="167" y="-68" type="curve" smooth="yes"/>
      <point x="201" y="-68"/>
      <point x="221" y="-91"/>
      <point x="221" y="-126" type="curve" smooth="yes"/>
      <point x="221" y="-163"/>
      <point x="193" y="-182"/>
      <point x="154" y="-182" type="curve" smooth="yes"/>
      <point x="127" y="-182"/>
      <point x="107" y="-179"/>
      <point x="84" y="-165" type="curve"/>
      <point x="75" y="-181" type="line"/>
      <point x="101" y="-196"/>
      <point x="123" y="-202"/>
      <point x="153" y="-202" type="curve" smooth="yes"/>
      <point x="206" y="-202"/>
      <point x="243" y="-176"/>
      <point x="243" y="-126" type="curve" smooth="yes"/>
      <point x="243" y="-79"/>
      <point x="215" y="-48"/>
      <point x="169" y="-48" type="curve" smooth="yes"/>
      <point x="145" y="-48"/>
      <point x="128" y="-54"/>
      <point x="106" y="-65" type="curve"/>
    </contour>
    <contour>
      <point x="148" y="12" type="move" name="bottom"/>
    </contour>
  </outline>
</glyph>
<glyph name="onequarter" format="1">
  <advance width="868"/>
  <unicode hex="00BC"/>
  <outline>
    <contour>
      <point x="91" y="513" type="line"/>
      <point x="207" y="608" type="line"/>
      <point x="207" y="225" type="line"/>
      <point x="229" y="225" type="line"/>
      <point x="229" y="635" type="line"/>
      <point x="207" y="635" type="line"/>
      <point x="77" y="530" type="line"/>
    </contour>
    <contour>
      <point x="823" y="126" type="curve"/>
      <point x="823" y="148" type="line"/>
      <point x="823" y="148"/>
      <point x="512" y="148"/>
      <point x="512" y="148" type="curve"/>
      <point x="512" y="126" type="line"/>
      <point x="512" y="126"/>
      <point x="823" y="126"/>
    </contour>
    <contour>
      <point x="528" y="135" type="line"/>
      <point x="719" y="390" type="line"/>
      <point x="704" y="404" type="line"/>
      <point x="512" y="148" type="line"/>
    </contour>
    <contour>
      <point x="704" y="404" type="line"/>
      <point x="704" y="404"/>
      <point x="704" y="0"/>
      <point x="704" y="0" type="curve"/>
      <point x="726" y="0" type="line"/>
      <point x="726" y="0"/>
      <point x="726" y="404"/>
      <point x="726" y="404" type="curve"/>
    </contour>
    <component base="fraction" xOffset="138" yOffset="-94"/>
  </outline>
</glyph>
<glyph name="onehalf" format="1">
  <advance width="868"/>
  <unicode hex="00BD"/>
  <outline>
    <contour>
      <point x="243" y="-94" type="line"/>
      <point x="669" y="758" type="line"/>
      <point x="644" y="758" type="line"/>
      <point x="218" y="-94" type="line"/>
    </contour>
    <contour>
      <point x="822" y="2" type="line" name=""/>
      <point x="822" y="122" type="line" name=""/>
      <point x="802" y="122" type="line" name=""/>
      <point x="802" y="22" type="line" name=""/>
    </contour>
    <contour>
      <point x="517" y="2" type="line"/>
      <point x="822" y="2" type="line" name=""/>
      <point x="802" y="22" type="line" name=""/>
      <point x="507" y="22" type="line"/>
    </contour>
    <contour>
      <point x="559" y="320" type="line"/>
      <point x="585" y="368"/>
      <point x="619" y="396"/>
      <point x="674" y="396" type="curve" smooth="yes" name=""/>
      <point x="738" y="396"/>
      <point x="781" y="359"/>
      <point x="781" y="297" type="curve" smooth="yes"/>
      <point x="781" y="241"/>
      <point x="745" y="213"/>
      <point x="703" y="176" type="curve"/>
      <point x="507" y="22" type="line"/>
      <point x="517" y="2" type="line"/>
      <point x="717" y="160" type="line"/>
      <point x="764" y="202"/>
      <point x="802" y="235"/>
      <point x="802" y="298" type="curve" smooth="yes"/>
      <point x="802" y="372"/>
      <point x="751" y="416"/>
      <point x="675" y="416" type="curve" smooth="yes" name=""/>
      <point x="612" y="416"/>
      <point x="569" y="389"/>
      <point x="542" y="332" type="curve"/>
    </contour>
    <contour>
      <point x="208" y="231" type="line" name=""/>
      <point x="330" y="231" type="line" name=""/>
      <point x="330" y="251" type="line" name=""/>
      <point x="230" y="251" type="line" name=""/>
    </contour>
    <contour>
      <point x="230" y="251" type="line" name=""/>
      <point x="104" y="251" type="line" name=""/>
      <point x="104" y="231" type="line" name=""/>
      <point x="208" y="231" type="line" name=""/>
    </contour>
    <contour>
      <point x="92" y="513" type="line"/>
      <point x="230" y="622" type="line"/>
      <point x="208" y="632" type="line"/>
      <point x="78" y="530" type="line"/>
    </contour>
    <contour>
      <point x="230" y="251" type="line" name=""/>
      <point x="230" y="622" type="line"/>
      <point x="208" y="632" type="line"/>
      <point x="208" y="231" type="line" name=""/>
    </contour>
  </outline>
</glyph>
<glyph name="threequarters" format="1">
  <advance width="928"/>
  <unicode hex="00BE"/>
  <outline>
    <contour>
      <point x="873" y="108" type="line"/>
      <point x="512" y="108" type="line"/>
      <point x="526" y="88" type="line"/>
      <point x="873" y="88" type="line"/>
    </contour>
    <contour>
      <point x="526" y="88" type="line"/>
      <point x="776" y="397" type="line"/>
      <point x="754" y="404" type="line"/>
      <point x="512" y="108" type="line"/>
    </contour>
    <contour>
      <point x="776" y="-30" type="line" name="stem"/>
      <point x="776" y="397" type="line"/>
      <point x="754" y="404" type="line"/>
      <point x="754" y="404"/>
      <point x="754" y="-30"/>
      <point x="754" y="-30" type="curve" name="stem"/>
    </contour>
    <contour>
      <point x="58" y="572" type="line"/>
      <point x="86" y="599"/>
      <point x="119" y="618"/>
      <point x="158" y="618" type="curve" smooth="yes"/>
      <point x="222" y="618"/>
      <point x="268" y="591"/>
      <point x="268" y="531" type="curve" smooth="yes"/>
      <point x="268" y="464"/>
      <point x="193" y="447"/>
      <point x="114" y="441" type="curve"/>
      <point x="114" y="424" type="line"/>
      <point x="209" y="426"/>
      <point x="290" y="450"/>
      <point x="290" y="533" type="curve" smooth="yes"/>
      <point x="290" y="604"/>
      <point x="236" y="638"/>
      <point x="161" y="638" type="curve" smooth="yes"/>
      <point x="115" y="638"/>
      <point x="74" y="617"/>
      <point x="45" y="585" type="curve"/>
    </contour>
    <contour>
      <point x="39" y="252" type="line"/>
      <point x="74" y="230"/>
      <point x="110" y="219"/>
      <point x="151" y="219" type="curve" smooth="yes"/>
      <point x="240" y="216"/>
      <point x="307" y="251"/>
      <point x="305" y="331" type="curve" smooth="yes"/>
      <point x="305" y="419"/>
      <point x="215" y="432"/>
      <point x="114" y="435" type="curve"/>
      <point x="114" y="420" type="line"/>
      <point x="205" y="415"/>
      <point x="283" y="401"/>
      <point x="283" y="330" type="curve" smooth="yes"/>
      <point x="283" y="264"/>
      <point x="228" y="237"/>
      <point x="153" y="239" type="curve" smooth="yes"/>
      <point x="116" y="239"/>
      <point x="82" y="248"/>
      <point x="50" y="267" type="curve"/>
    </contour>
    <contour>
      <point x="262" y="-94" type="line"/>
      <point x="688" y="758" type="line"/>
      <point x="663" y="758" type="line"/>
      <point x="237" y="-94" type="line"/>
    </contour>
    <contour>
      <point x="765" y="-10" type="line"/>
      <point x="662" y="-10" type="line" name="bll"/>
      <point x="662" y="-30" type="line" name="bll"/>
      <point x="765" y="-30" type="line"/>
    </contour>
    <contour>
      <point x="765" y="-30" type="line"/>
      <point x="868" y="-30" type="line" name="brr"/>
      <point x="868" y="-10" type="line" name="brr"/>
      <point x="765" y="-10" type="line"/>
    </contour>
  </outline>
</glyph>
<glyph name="Igrave" format="1">
  <advance width="720"/>
  <unicode hex="00CC"/>
  <outline>
    <contour>
      <point x="131" y="1635" type="line"/>
      <point x="568" y="1495" type="line"/>
      <point x="587" y="1600" type="line"/>
      <point x="219" y="1785" type="line"/>
      <point x="158" y="1785" type="line"/>
    </contour>
    <contour>
      <point x="263" y="140" type="line"/>
      <point x="85" y="87" type="line"/>
      <point x="68" y="0" type="line"/>
      <point x="628" y="0" type="line"/>
      <point x="648" y="84" type="line"/>
      <point x="455" y="140" type="line"/>
      <point x="455" y="1244" type="line"/>
      <point x="636" y="1299" type="line"/>
      <point x="652" y="1384" type="line"/>
      <point x="92" y="1384" type="line"/>
      <point x="75" y="1301" type="line"/>
      <point x="263" y="1246" type="line"/>
    </contour>
  </outline>
</glyph>
<glyph name="Iacute" format="1">
  <advance width="720"/>
  <unicode hex="00CD"/>
  <outline>
    <contour>
      <point x="182" y="1599" type="line"/>
      <point x="200" y="1494" type="line"/>
      <point x="638" y="1635" type="line"/>
      <point x="611" y="1785" type="line"/>
      <point x="550" y="1785" type="line"/>
    </contour>
    <contour>
      <point x="263" y="140" type="line"/>
      <point x="85" y="87" type="line"/>
      <point x="68" y="0" type="line"/>
      <point x="628" y="0" type="line"/>
      <point x="648" y="84" type="line"/>
      <point x="455" y="140" type="line"/>
      <point x="455" y="1244" type="line"/>
      <point x="636" y="1299" type="line"/>
      <point x="652" y="1384" type="line"/>
      <point x="92" y="1384" type="line"/>
      <point x="75" y="1301" type="line"/>
      <point x="263" y="1246" type="line"/>
    </contour>
  </outline>
</glyph>
<glyph name="Idieresis" format="1">
  <advance width="720"/>
  <unicode hex="00CF"/>
  <outline>
    <contour>
      <point x="484" y="1514"/>
      <point x="595" y="1505"/>
      <point x="621" y="1521" type="curve"/>
      <point x="649" y="1544"/>
      <point x="660" y="1658"/>
      <point x="641" y="1682" type="curve" smooth="yes"/>
      <point x="620" y="1710"/>
      <point x="505" y="1723"/>
      <point x="482" y="1703" type="curve"/>
      <point x="451" y="1683"/>
      <point x="444" y="1567"/>
      <point x="461" y="1542" type="curve"/>
    </contour>
    <contour>
      <point x="100" y="1514"/>
      <point x="213" y="1504"/>
      <point x="238" y="1521" type="curve"/>
      <point x="267" y="1543"/>
      <point x="276" y="1657"/>
      <point x="259" y="1682" type="curve"/>
      <point x="236" y="1710"/>
      <point x="123" y="1721"/>
      <point x="99" y="1703" type="curve" smooth="yes"/>
      <point x="70" y="1682"/>
      <point x="60" y="1566"/>
      <point x="79" y="1542" type="curve" smooth="yes"/>
    </contour>
    <contour>
      <point x="263" y="140" type="line"/>
      <point x="85" y="87" type="line"/>
      <point x="68" y="0" type="line"/>
      <point x="628" y="0" type="line"/>
      <point x="648" y="84" type="line"/>
      <point x="455" y="140" type="line"/>
      <point x="455" y="1244" type="line"/>
      <point x="636" y="1299" type="line"/>
      <point x="652" y="1384" type="line"/>
      <point x="92" y="1384" type="line"/>
      <point x="75" y="1301" type="line"/>
      <point x="263" y="1246" type="line"/>
    </contour>
  </outline>
</glyph>
<glyph name="Ntilde" format="1">
  <advance width="1525"/>
  <unicode hex="00D1"/>
  <outline>
    <contour>
      <point x="452" y="1543" type="line"/>
      <point x="511" y="1602"/>
      <point x="601" y="1645"/>
      <point x="638" y="1645" type="curve" smooth="yes"/>
      <point x="688" y="1645"/>
      <point x="765" y="1521"/>
      <point x="876" y="1521" type="curve" smooth="yes"/>
      <point x="962" y="1521"/>
      <point x="1032" y="1589"/>
      <point x="1094" y="1657" type="curve"/>
      <point x="1076" y="1768" type="line"/>
      <point x="1010" y="1713"/>
      <point x="925" y="1665"/>
      <point x="889" y="1665" type="curve" smooth="yes"/>
      <point x="839" y="1665"/>
      <point x="760" y="1790"/>
      <point x="649" y="1790" type="curve" smooth="yes"/>
      <point x="564" y="1790"/>
      <point x="498" y="1723"/>
      <point x="431" y="1653" type="curve"/>
    </contour>
    <contour>
      <point x="262" y="139" type="line"/>
      <point x="92" y="86" type="line"/>
      <point x="75" y="0" type="line"/>
      <point x="589" y="0" type="line"/>
      <point x="607" y="84" type="line"/>
      <point x="402" y="138" type="line"/>
      <point x="402" y="458"/>
      <point x="402" y="779"/>
      <point x="378" y="1099" type="curve"/>
      <point x="1143" y="-25" type="line"/>
      <point x="1287" y="15" type="line"/>
      <point x="1287" y="1245" type="line"/>
      <point x="1456" y="1300" type="line"/>
      <point x="1471" y="1384" type="line"/>
      <point x="960" y="1384" type="line"/>
      <point x="943" y="1301" type="line"/>
      <point x="1147" y="1247" type="line"/>
      <point x="1147" y="931"/>
      <point x="1147" y="615"/>
      <point x="1166" y="299" type="curve"/>
      <point x="416" y="1384" type="line"/>
      <point x="93" y="1384" type="line"/>
      <point x="74" y="1301" type="line"/>
      <point x="262" y="1246" type="line"/>
    </contour>
  </outline>
</glyph>
<glyph name="Thorn" format="1">
  <advance width="1152"/>
  <unicode hex="00DE"/>
  <outline>
    <contour>
      <point x="868" y="1127"/>
      <point x="669" y="1143"/>
      <point x="455" y="1144" type="curve"/>
      <point x="455" y="1244" type="line"/>
      <point x="636" y="1299" type="line"/>
      <point x="652" y="1384" type="line"/>
      <point x="92" y="1384" type="line"/>
      <point x="75" y="1301" type="line"/>
      <point x="263" y="1246" type="line"/>
      <point x="263" y="140" type="line"/>
      <point x="85" y="87" type="line"/>
      <point x="68" y="0" type="line"/>
      <point x="668" y="0" type="line"/>
      <point x="688" y="84" type="line"/>
      <point x="455" y="140" type="line"/>
      <point x="455" y="1063" type="line"/>
      <point x="692" y="1058"/>
      <point x="889" y="984"/>
      <point x="889" y="742" type="curve" smooth="yes"/>
      <point x="889" y="546"/>
      <point x="809" y="487"/>
      <point x="592" y="401" type="curve"/>
      <point x="578" y="332" type="line"/>
      <point x="695" y="332"/>
      <point x="843" y="359"/>
      <point x="950" y="438" type="curve" smooth="yes"/>
      <point x="1039" y="504"/>
      <point x="1096" y="606"/>
      <point x="1096" y="735" type="curve" smooth="yes"/>
      <point x="1096" y="872"/>
      <point x="1054" y="963"/>
      <point x="986" y="1023" type="curve" smooth="yes"/>
    </contour>
  </outline>
</glyph>
<glyph name="germandbls" format="1">
  <advance width="526"/>
  <unicode hex="00DF"/>
  <outline>
    <contour>
      <point x="107" y="20" type="line"/>
      <point x="4" y="20" type="line" name="bll"/>
      <point x="4" y="0" type="line" name="bll"/>
      <point x="107" y="0" type="line"/>
    </contour>
    <contour>
      <point x="107" y="0" type="line"/>
      <point x="210" y="0" type="line" name="brr"/>
      <point x="210" y="20" type="line" name="brr"/>
      <point x="107" y="20" type="line"/>
    </contour>
    <contour>
      <point x="117" y="0" type="line" name="stem"/>
      <point x="117" y="620" type="line" name="stem"/>
      <point x="95" y="620" type="line" name="stem"/>
      <point x="95" y="0" type="line" name="stem"/>
    </contour>
    <contour>
      <point x="117" y="620" type="line" name=""/>
      <point x="117" y="717"/>
      <point x="178" y="780"/>
      <point x="275" y="780" type="curve" smooth="yes"/>
      <point x="376" y="780"/>
      <point x="446" y="725"/>
      <point x="446" y="628" type="curve" smooth="yes"/>
      <point x="446" y="526"/>
      <point x="369" y="471"/>
      <point x="261" y="471" type="curve"/>
      <point x="261" y="454" type="line"/>
      <point x="381" y="454"/>
      <point x="467" y="515"/>
      <point x="467" y="629" type="curve" smooth="yes"/>
      <point x="467" y="738"/>
      <point x="390" y="800"/>
      <point x="277" y="800" type="curve" smooth="yes" name="over_top"/>
      <point x="166" y="800"/>
      <point x="95" y="730"/>
      <point x="95" y="620" type="curve"/>
    </contour>
    <contour>
      <point x="357" y="87" type="line"/>
      <point x="445" y="108"/>
      <point x="500" y="169"/>
      <point x="500" y="273" type="curve" smooth="yes"/>
      <point x="500" y="399"/>
      <point x="406" y="471"/>
      <point x="261" y="471" type="curve"/>
      <point x="261" y="454" type="line"/>
      <point x="375" y="454"/>
      <point x="479" y="392"/>
      <point x="479" y="272" type="curve" smooth="yes"/>
      <point x="479" y="182"/>
      <point x="424" y="128"/>
      <point x="350" y="107" type="curve"/>
    </contour>
  </outline>
</glyph>
<glyph name="edieresis" format="1">
  <advance width="581"/>
  <unicode hex="00EB"/>
  <outline>
    <contour>
      <point x="496" y="278" type="line"/>
      <point x="496" y="457"/>
      <point x="412" y="533"/>
      <point x="299" y="533" type="curve" smooth="yes" name="bow"/>
      <point x="157" y="533"/>
      <point x="91.0" y="434.0"/>
      <point x="91.0" y="281.0" type="curve" smooth="yes"/>
      <point x="91.0" y="111.0"/>
      <point x="166" y="0"/>
      <point x="324" y="0" type="curve" smooth="yes"/>
      <point x="396" y="0"/>
      <point x="443.0" y="22.0"/>
      <point x="494.0" y="74.0" type="curve"/>
      <point x="480.0" y="89.0" type="line"/>
      <point x="433.0" y="42.0"/>
      <point x="390" y="20"/>
      <point x="324" y="20" type="curve" smooth="yes"/>
      <point x="180" y="20"/>
      <point x="113.0" y="125.0"/>
      <point x="113.0" y="281.0" type="curve" smooth="yes"/>
      <point x="113.0" y="420.0"/>
      <point x="170" y="513"/>
      <point x="298" y="513" type="curve" smooth="yes" name="bow"/>
      <point x="413" y="513"/>
      <point x="475" y="414"/>
      <point x="475" y="298" type="curve"/>
    </contour>
    <contour>
      <point x="381" y="626" type="line" name=""/>
      <point x="381" y="639"/>
      <point x="371" y="648"/>
      <point x="358" y="648" type="curve" name="dot2"/>
      <point x="346" y="648"/>
      <point x="338" y="639"/>
      <point x="338" y="626" type="curve" name=""/>
      <point x="381" y="626" type="line" name=""/>
      <point x="381" y="613"/>
      <point x="371" y="605"/>
      <point x="358" y="605" type="curve" name="dot2"/>
      <point x="346" y="605"/>
      <point x="338" y="614"/>
      <point x="338" y="626" type="curve" name=""/>
    </contour>
    <contour>
      <point x="260" y="627" type="line" name=""/>
      <point x="260" y="640"/>
      <point x="250" y="649"/>
      <point x="237" y="649" type="curve" name="dot"/>
      <point x="225" y="649"/>
      <point x="217" y="640"/>
      <point x="217" y="627" type="curve" name=""/>
      <point x="260" y="627" type="line" name=""/>
      <point x="260" y="614"/>
      <point x="250" y="606"/>
      <point x="237" y="606" type="curve" name="dot"/>
      <point x="225" y="606"/>
      <point x="217" y="615"/>
      <point x="217" y="627" type="curve" name=""/>
    </contour>
    <contour>
      <point x="105" y="278" type="line"/>
      <point x="496" y="278" type="line"/>
      <point x="475" y="298" type="line"/>
      <point x="105" y="298" type="line"/>
    </contour>
  </outline>
</glyph>
<glyph name="iacute" format="1">
  <advance width="241"/>
  <unicode hex="00ED"/>
  <outline>
    <contour>
      <point x="110" y="0" type="line"/>
      <point x="133" y="0" type="line"/>
      <point x="133" y="533" type="line"/>
      <point x="110" y="533" type="line"/>
    </contour>
    <component base="acute" xOffset="71" yOffset="-61"/>
  </outline>
</glyph>
<glyph name="eth" format="1">
  <advance width="1070"/>
  <unicode hex="00F0"/>
  <outline>
    <contour>
      <point x="866" y="1375" type="line"/>
      <point x="803" y="1496" type="line"/>
      <point x="591" y="1359" type="line"/>
      <point x="458" y="1446"/>
      <point x="267" y="1500"/>
      <point x="169" y="1500" type="curve"/>
      <point x="111" y="1428" type="line"/>
      <point x="232" y="1389"/>
      <point x="347" y="1339"/>
      <point x="448" y="1272" type="curve"/>
      <point x="244" y="1164" type="line"/>
      <point x="308" y="1043" type="line"/>
      <point x="547" y="1197" type="line"/>
      <point x="650" y="1107"/>
      <point x="729" y="994"/>
      <point x="773" y="850" type="curve"/>
      <point x="714" y="916"/>
      <point x="641" y="969"/>
      <point x="504" y="969" type="curve" smooth="yes"/>
      <point x="194" y="969"/>
      <point x="83" y="681"/>
      <point x="83" y="437" type="curve" smooth="yes"/>
      <point x="83" y="117"/>
      <point x="276" y="-24"/>
      <point x="517" y="-24" type="curve" smooth="yes"/>
      <point x="815" y="-24"/>
      <point x="963" y="271"/>
      <point x="963" y="541" type="curve" smooth="yes"/>
      <point x="963" y="892"/>
      <point x="843" y="1126"/>
      <point x="688" y="1279" type="curve"/>
    </contour>
    <contour>
      <point x="667" y="110"/>
      <point x="603" y="103"/>
      <point x="556" y="103" type="curve" smooth="yes"/>
      <point x="339" y="103"/>
      <point x="244" y="306"/>
      <point x="244" y="551" type="curve" smooth="yes"/>
      <point x="244" y="647"/>
      <point x="267" y="776"/>
      <point x="326" y="817" type="curve" smooth="yes"/>
      <point x="354" y="836"/>
      <point x="398" y="851"/>
      <point x="467" y="851" type="curve" smooth="yes"/>
      <point x="672" y="851"/>
      <point x="783" y="661"/>
      <point x="783" y="432" type="curve" smooth="yes"/>
      <point x="783" y="326"/>
      <point x="757" y="191"/>
      <point x="700" y="139" type="curve" smooth="yes"/>
    </contour>
  </outline>
</glyph>
<glyph name="oslash" format="1">
  <advance width="1022"/>
  <unicode hex="00F8"/>
  <outline>
    <contour>
      <point x="793" y="1060" type="line"/>
      <point x="677" y="1106" type="line"/>
      <point x="620" y="965" type="line"/>
      <point x="586" y="972"/>
      <point x="551" y="975"/>
      <point x="514" y="975" type="curve" smooth="yes"/>
      <point x="252" y="975"/>
      <point x="73" y="714"/>
      <point x="73" y="437" type="curve" smooth="yes"/>
      <point x="73" y="250"/>
      <point x="142" y="122"/>
      <point x="250" y="49" type="curve"/>
      <point x="182" y="-119" type="line"/>
      <point x="302" y="-166" type="line"/>
      <point x="366" y="-4" type="line"/>
      <point x="414" y="-18"/>
      <point x="465" y="-25"/>
      <point x="519" y="-25" type="curve" smooth="yes"/>
      <point x="759" y="-25"/>
      <point x="949" y="229"/>
      <point x="949" y="512" type="curve" smooth="yes"/>
      <point x="949" y="721"/>
      <point x="863" y="855"/>
      <point x="738" y="923" type="curve"/>
    </contour>
    <contour>
      <point x="244" y="657"/>
      <point x="276" y="775"/>
      <point x="318" y="817" type="curve" smooth="yes"/>
      <point x="337" y="837"/>
      <point x="368" y="853"/>
      <point x="422" y="853" type="curve" smooth="yes"/>
      <point x="476" y="853"/>
      <point x="524" y="845"/>
      <point x="566" y="828" type="curve"/>
      <point x="449" y="537" type="line"/>
      <point x="321" y="223" type="line"/>
      <point x="265" y="303"/>
      <point x="244" y="420"/>
      <point x="244" y="559" type="curve" smooth="yes"/>
    </contour>
    <contour>
      <point x="675" y="110"/>
      <point x="624" y="101"/>
      <point x="586" y="101" type="curve" smooth="yes"/>
      <point x="520" y="101"/>
      <point x="466" y="113"/>
      <point x="421" y="135" type="curve"/>
      <point x="518" y="380" type="line"/>
      <point x="671" y="758" type="line"/>
      <point x="743" y="680"/>
      <point x="778" y="555"/>
      <point x="778" y="391" type="curve" smooth="yes"/>
      <point x="778" y="322"/>
      <point x="754" y="184"/>
      <point x="704" y="138" type="curve" smooth="yes"/>
    </contour>
  </outline>
</glyph>
<glyph name="Ccaron" format="1">
  <advance width="1248"/>
  <unicode hex="010C"/>
  <outline>
    <contour>
      <point x="398" y="1730" type="line"/>
      <point x="655" y="1515" type="line"/>
      <point x="751" y="1515" type="line"/>
      <point x="1008" y="1730" type="line"/>
      <point x="946" y="1794" type="line"/>
      <point x="703" y="1665" type="line"/>
      <point x="460" y="1794" type="line"/>
    </contour>
    <contour>
      <point x="923" y="-35"/>
      <point x="1056" y="34"/>
      <point x="1201" y="173" type="curve"/>
      <point x="1156" y="242" type="line"/>
      <point x="1109" y="219"/>
      <point x="868" y="126"/>
      <point x="762" y="126" type="curve" smooth="yes"/>
      <point x="640" y="126"/>
      <point x="522" y="176"/>
      <point x="431" y="294" type="curve" smooth="yes"/>
      <point x="351" y="398"/>
      <point x="310" y="559"/>
      <point x="310" y="705" type="curve" smooth="yes"/>
      <point x="310" y="969"/>
      <point x="378" y="1133"/>
      <point x="459" y="1205" type="curve" smooth="yes"/>
      <point x="507" y="1247"/>
      <point x="601" y="1283"/>
      <point x="703" y="1283" type="curve" smooth="yes"/>
      <point x="812" y="1283"/>
      <point x="880" y="1264"/>
      <point x="961" y="1229" type="curve"/>
      <point x="1055" y="1021" type="line"/>
      <point x="1151" y="1044" type="line"/>
      <point x="1113" y="1410" type="line"/>
      <point x="985" y="1392" type="line"/>
      <point x="914" y="1406"/>
      <point x="840" y="1419"/>
      <point x="766" y="1419" type="curve" smooth="yes"/>
      <point x="615" y="1419"/>
      <point x="494" y="1384"/>
      <point x="384" y="1300" type="curve" smooth="yes"/>
      <point x="202" y="1160"/>
      <point x="111" y="904"/>
      <point x="111" y="625" type="curve" smooth="yes"/>
      <point x="111" y="216"/>
      <point x="352" y="-35"/>
      <point x="711" y="-35" type="curve" smooth="yes"/>
    </contour>
  </outline>
</glyph>
<glyph name="Dcaron" format="1">
  <advance width="1428"/>
  <unicode hex="010E"/>
  <outline>
    <contour>
      <point x="341" y="1730" type="line"/>
      <point x="598" y="1515" type="line"/>
      <point x="694" y="1515" type="line"/>
      <point x="951" y="1730" type="line"/>
      <point x="889" y="1794" type="line"/>
      <point x="646" y="1665" type="line"/>
      <point x="403" y="1794" type="line"/>
    </contour>
    <contour>
      <point x="262" y="139" type="line"/>
      <point x="87" y="85" type="line"/>
      <point x="70" y="0" type="line"/>
      <point x="451" y="0" type="line" smooth="yes"/>
      <point x="702" y="0"/>
      <point x="982" y="4"/>
      <point x="1158" y="186" type="curve" smooth="yes"/>
      <point x="1289" y="324"/>
      <point x="1335" y="522"/>
      <point x="1335" y="704" type="curve" smooth="yes"/>
      <point x="1335" y="937"/>
      <point x="1259" y="1138"/>
      <point x="1069" y="1266" type="curve" smooth="yes"/>
      <point x="921" y="1365"/>
      <point x="714" y="1384"/>
      <point x="531" y="1384" type="curve" smooth="yes"/>
      <point x="92" y="1384" type="line"/>
      <point x="75" y="1302" type="line"/>
      <point x="262" y="1246" type="line"/>
    </contour>
    <contour>
      <point x="454" y="1301" type="line"/>
      <point x="615" y="1282"/>
      <point x="784" y="1242"/>
      <point x="883" y="1180" type="curve" smooth="yes"/>
      <point x="1049" y="1076"/>
      <point x="1129" y="915"/>
      <point x="1129" y="697" type="curve" smooth="yes"/>
      <point x="1129" y="278"/>
      <point x="920" y="146"/>
      <point x="454" y="87" type="curve"/>
    </contour>
  </outline>
</glyph>
<glyph name="dcaron" format="1">
  <advance width="1198"/>
  <unicode hex="010F"/>
  <outline>
    <contour>
      <point x="916" y="1472" type="line"/>
      <point x="591" y="1411" type="line"/>
      <point x="582" y="1365" type="line"/>
      <point x="737" y="1288" type="line"/>
      <point x="737" y="904" type="line"/>
      <point x="672" y="953"/>
      <point x="589" y="975"/>
      <point x="514" y="975" type="curve" smooth="yes"/>
      <point x="273" y="975"/>
      <point x="74" y="753"/>
      <point x="74" y="434" type="curve" smooth="yes"/>
      <point x="74" y="100"/>
      <point x="281" y="-25"/>
      <point x="474" y="-25" type="curve" smooth="yes"/>
      <point x="589" y="-25"/>
      <point x="704" y="38"/>
      <point x="765" y="129" type="curve"/>
      <point x="801" y="87"/>
      <point x="835" y="23"/>
      <point x="849" y="-25" type="curve"/>
      <point x="900" y="-25"/>
      <point x="1034" y="12"/>
      <point x="1078" y="34" type="curve"/>
      <point x="1089" y="95" type="line"/>
      <point x="1040" y="103"/>
      <point x="949" y="144"/>
      <point x="916" y="192" type="curve"/>
    </contour>
    <contour>
      <point x="1035" y="1026" type="line"/>
      <point x="1135" y="1121"/>
      <point x="1218" y="1272"/>
      <point x="1218" y="1382" type="curve" smooth="yes"/>
      <point x="1218" y="1408"/>
      <point x="1214" y="1432"/>
      <point x="1199" y="1463" type="curve"/>
      <point x="1137" y="1462"/>
      <point x="1069" y="1453"/>
      <point x="998" y="1441" type="curve"/>
      <point x="984" y="1341" type="line"/>
      <point x="1064" y="1307" type="line"/>
      <point x="1047" y="1226"/>
      <point x="1014" y="1138"/>
      <point x="968" y="1045" type="curve"/>
    </contour>
    <contour>
      <point x="475" y="117"/>
      <point x="464" y="121"/>
      <point x="441" y="134" type="curve" smooth="yes"/>
      <point x="358" y="179"/>
      <point x="248" y="328"/>
      <point x="248" y="538" type="curve" smooth="yes"/>
      <point x="248" y="660"/>
      <point x="270" y="750"/>
      <point x="312" y="807" type="curve" smooth="yes"/>
      <point x="339" y="844"/>
      <point x="390" y="849"/>
      <point x="431" y="849" type="curve" smooth="yes"/>
      <point x="550" y="849"/>
      <point x="683" y="779"/>
      <point x="737" y="652" type="curve"/>
      <point x="737" y="167" type="line"/>
      <point x="658" y="136"/>
      <point x="575" y="117"/>
      <point x="496" y="117" type="curve" smooth="yes"/>
    </contour>
  </outline>
</glyph>
<glyph name="dcroat" format="1">
  <advance width="1104"/>
  <unicode hex="0111"/>
  <outline>
    <contour>
      <point x="916" y="1097" type="line"/>
      <point x="1066" y="1100" type="line"/>
      <point x="1087" y="1206" type="line"/>
      <point x="916" y="1202" type="line"/>
      <point x="916" y="1472" type="line"/>
      <point x="591" y="1411" type="line"/>
      <point x="582" y="1365" type="line"/>
      <point x="737" y="1288" type="line"/>
      <point x="737" y="1202" type="line"/>
      <point x="524" y="1206" type="line"/>
      <point x="498" y="1092" type="line"/>
      <point x="737" y="1094" type="line"/>
      <point x="737" y="904" type="line"/>
      <point x="672" y="953"/>
      <point x="589" y="975"/>
      <point x="514" y="975" type="curve" smooth="yes"/>
      <point x="273" y="975"/>
      <point x="74" y="753"/>
      <point x="74" y="434" type="curve" smooth="yes"/>
      <point x="74" y="100"/>
      <point x="281" y="-25"/>
      <point x="474" y="-25" type="curve" smooth="yes"/>
      <point x="589" y="-25"/>
      <point x="704" y="38"/>
      <point x="765" y="129" type="curve"/>
      <point x="801" y="87"/>
      <point x="835" y="23"/>
      <point x="849" y="-25" type="curve"/>
      <point x="900" y="-25"/>
      <point x="1034" y="12"/>
      <point x="1078" y="34" type="curve"/>
      <point x="1089" y="95" type="line"/>
      <point x="1040" y="103"/>
      <point x="949" y="144"/>
      <point x="916" y="192" type="curve"/>
    </contour>
    <contour>
      <point x="475" y="117"/>
      <point x="464" y="121"/>
      <point x="441" y="134" type="curve" smooth="yes"/>
      <point x="358" y="179"/>
      <point x="248" y="328"/>
      <point x="248" y="538" type="curve" smooth="yes"/>
      <point x="248" y="660"/>
      <point x="270" y="750"/>
      <point x="312" y="807" type="curve" smooth="yes"/>
      <point x="339" y="844"/>
      <point x="390" y="849"/>
      <point x="431" y="849" type="curve" smooth="yes"/>
      <point x="550" y="849"/>
      <point x="683" y="779"/>
      <point x="737" y="652" type="curve"/>
      <point x="737" y="167" type="line"/>
      <point x="658" y="136"/>
      <point x="575" y="117"/>
      <point x="496" y="117" type="curve" smooth="yes"/>
    </contour>
  </outline>
</glyph>
<glyph name="Emacron" format="1">
  <advance width="1246"/>
  <unicode hex="0112"/>
  <outline>
    <contour>
      <point x="378" y="1671" type="line"/>
      <point x="350" y="1540" type="line"/>
      <point x="470" y="1540"/>
      <point x="715" y="1543"/>
      <point x="870" y="1552" type="curve"/>
      <point x="893" y="1671" type="line"/>
    </contour>
    <contour>
      <point x="997" y="155" type="line"/>
      <point x="454" y="99" type="line"/>
      <point x="454" y="659" type="line"/>
      <point x="549" y="642"/>
      <point x="647" y="639"/>
      <point x="747" y="639" type="curve"/>
      <point x="792" y="480" type="line"/>
      <point x="871" y="463" type="line"/>
      <point x="889" y="914" type="line"/>
      <point x="811" y="935" type="line"/>
      <point x="749" y="765" type="line"/>
      <point x="650" y="761"/>
      <point x="551" y="753"/>
      <point x="454" y="741" type="curve"/>
      <point x="454" y="1296" type="line"/>
      <point x="933" y="1246" type="line"/>
      <point x="1032" y="1024" type="line"/>
      <point x="1121" y="1046" type="line"/>
      <point x="1087" y="1397" type="line"/>
      <point x="960" y="1384" type="line"/>
      <point x="95" y="1384" type="line"/>
      <point x="74" y="1304" type="line"/>
      <point x="262" y="1248" type="line"/>
      <point x="262" y="141" type="line"/>
      <point x="83" y="85" type="line"/>
      <point x="67" y="0" type="line"/>
      <point x="1121" y="0" type="line"/>
      <point x="1200" y="320" type="line"/>
      <point x="1121" y="340" type="line"/>
    </contour>
  </outline>
</glyph>
<glyph name="Gbreve" format="1">
  <advance width="1400"/>
  <unicode hex="011E"/>
  <outline>
    <contour>
      <point x="922" y="1492"/>
      <point x="1006" y="1606"/>
      <point x="1006" y="1703" type="curve" smooth="yes"/>
      <point x="1006" y="1731"/>
      <point x="1000" y="1754"/>
      <point x="987" y="1766" type="curve"/>
      <point x="884" y="1766" type="line"/>
      <point x="880" y="1653"/>
      <point x="803" y="1603"/>
      <point x="750" y="1603" type="curve" smooth="yes"/>
      <point x="698" y="1603"/>
      <point x="621" y="1653"/>
      <point x="617" y="1765" type="curve"/>
      <point x="516" y="1766" type="line"/>
      <point x="502" y="1757"/>
      <point x="495" y="1733"/>
      <point x="495" y="1702" type="curve" smooth="yes"/>
      <point x="495" y="1608"/>
      <point x="579" y="1492"/>
      <point x="750" y="1492" type="curve" smooth="yes"/>
    </contour>
    <contour>
      <point x="773" y="582" type="line"/>
      <point x="1043" y="523" type="line"/>
      <point x="1043" y="184" type="line"/>
      <point x="987" y="140"/>
      <point x="865" y="121"/>
      <point x="792" y="121" type="curve" smooth="yes"/>
      <point x="677" y="121"/>
      <point x="570" y="143"/>
      <point x="458" y="243" type="curve" smooth="yes"/>
      <point x="336" y="348"/>
      <point x="295" y="541"/>
      <point x="295" y="684" type="curve" smooth="yes"/>
      <point x="295" y="986"/>
      <point x="363" y="1127"/>
      <point x="450" y="1210" type="curve" smooth="yes"/>
      <point x="500" y="1257"/>
      <point x="614" y="1285"/>
      <point x="735" y="1285" type="curve" smooth="yes"/>
      <point x="822" y="1285"/>
      <point x="947" y="1262"/>
      <point x="1005" y="1227" type="curve"/>
      <point x="1099" y="1023" type="line"/>
      <point x="1196" y="1044" type="line"/>
      <point x="1156" y="1407" type="line"/>
      <point x="1024" y="1393" type="line"/>
      <point x="955" y="1409"/>
      <point x="860" y="1419"/>
      <point x="777" y="1419" type="curve" smooth="yes"/>
      <point x="622" y="1419"/>
      <point x="463" y="1376"/>
      <point x="360" y="1289" type="curve" smooth="yes"/>
      <point x="142" y="1108"/>
      <point x="89" y="846"/>
      <point x="89" y="642" type="curve" smooth="yes"/>
      <point x="89" y="443"/>
      <point x="155" y="241"/>
      <point x="279" y="128" type="curve" smooth="yes"/>
      <point x="433" y="-11"/>
      <point x="548" y="-35"/>
      <point x="745" y="-35" type="curve" smooth="yes"/>
      <point x="952" y="-35"/>
      <point x="1137" y="58"/>
      <point x="1230" y="209" type="curve"/>
      <point x="1230" y="515" type="line"/>
      <point x="1351" y="576" type="line"/>
      <point x="1366" y="666" type="line"/>
      <point x="790" y="666" type="line"/>
    </contour>
  </outline>
</glyph>
<glyph name="Gcommaaccent" format="1">
  <advance width="1400"/>
  <unicode hex="0122"/>
  <outline>
    <contour>
      <point x="773" y="582" type="line"/>
      <point x="1043" y="523" type="line"/>
      <point x="1043" y="184" type="line"/>
      <point x="987" y="140"/>
      <point x="865" y="121"/>
      <point x="792" y="121" type="curve" smooth="yes"/>
      <point x="677" y="121"/>
      <point x="570" y="143"/>
      <point x="458" y="243" type="curve" smooth="yes"/>
      <point x="336" y="348"/>
      <point x="295" y="541"/>
      <point x="295" y="684" type="curve" smooth="yes"/>
      <point x="295" y="986"/>
      <point x="363" y="1127"/>
      <point x="450" y="1210" type="curve" smooth="yes"/>
      <point x="500" y="1257"/>
      <point x="614" y="1285"/>
      <point x="735" y="1285" type="curve" smooth="yes"/>
      <point x="822" y="1285"/>
      <point x="947" y="1262"/>
      <point x="1005" y="1227" type="curve"/>
      <point x="1099" y="1023" type="line"/>
      <point x="1196" y="1044" type="line"/>
      <point x="1156" y="1407" type="line"/>
      <point x="1024" y="1393" type="line"/>
      <point x="955" y="1409"/>
      <point x="860" y="1419"/>
      <point x="777" y="1419" type="curve" smooth="yes"/>
      <point x="622" y="1419"/>
      <point x="463" y="1376"/>
      <point x="360" y="1289" type="curve" smooth="yes"/>
      <point x="142" y="1108"/>
      <point x="89" y="846"/>
      <point x="89" y="642" type="curve" smooth="yes"/>
      <point x="89" y="443"/>
      <point x="155" y="241"/>
      <point x="279" y="128" type="curve" smooth="yes"/>
      <point x="433" y="-11"/>
      <point x="548" y="-35"/>
      <point x="745" y="-35" type="curve" smooth="yes"/>
      <point x="952" y="-35"/>
      <point x="1137" y="58"/>
      <point x="1230" y="209" type="curve"/>
      <point x="1230" y="515" type="line"/>
      <point x="1351" y="576" type="line"/>
      <point x="1366" y="666" type="line"/>
      <point x="790" y="666" type="line"/>
    </contour>
    <contour>
      <point x="645" y="-206" type="line"/>
      <point x="729" y="-230"/>
      <point x="749" y="-258"/>
      <point x="749" y="-289" type="curve" smooth="yes"/>
      <point x="749" y="-331"/>
      <point x="711" y="-369"/>
      <point x="631" y="-427" type="curve"/>
      <point x="646" y="-472" type="line"/>
      <point x="706" y="-472"/>
      <point x="867" y="-401"/>
      <point x="867" y="-261" type="curve" smooth="yes"/>
      <point x="867" y="-218"/>
      <point x="847" y="-180"/>
      <point x="818" y="-152" type="curve" smooth="yes"/>
      <point x="781" y="-117"/>
      <point x="730" y="-96"/>
      <point x="673" y="-95" type="curve"/>
    </contour>
  </outline>
</glyph>
<glyph name="Imacron" format="1">
  <advance width="720"/>
  <unicode hex="012A"/>
  <outline>
    <contour>
      <point x="114" y="1671" type="line"/>
      <point x="86" y="1540" type="line"/>
      <point x="206" y="1540"/>
      <point x="451" y="1543"/>
      <point x="606" y="1552" type="curve"/>
      <point x="629" y="1671" type="line"/>
    </contour>
    <contour>
      <point x="263" y="140" type="line"/>
      <point x="85" y="87" type="line"/>
      <point x="68" y="0" type="line"/>
      <point x="628" y="0" type="line"/>
      <point x="648" y="84" type="line"/>
      <point x="455" y="140" type="line"/>
      <point x="455" y="1244" type="line"/>
      <point x="636" y="1299" type="line"/>
      <point x="652" y="1384" type="line"/>
      <point x="92" y="1384" type="line"/>
      <point x="75" y="1301" type="line"/>
      <point x="263" y="1246" type="line"/>
    </contour>
  </outline>
</glyph>
<glyph name="imacron" format="1">
  <advance width="590"/>
  <unicode hex="012B"/>
  <outline>
    <contour>
      <point x="63" y="1284" type="line"/>
      <point x="34" y="1143" type="line"/>
      <point x="193" y="1143"/>
      <point x="352" y="1146"/>
      <point x="509" y="1155" type="curve"/>
      <point x="534" y="1284" type="line"/>
    </contour>
    <contour>
      <point x="215" y="126" type="line"/>
      <point x="69" y="84" type="line"/>
      <point x="54" y="0" type="line"/>
      <point x="541" y="0" type="line"/>
      <point x="559" y="82" type="line"/>
      <point x="394" y="126" type="line"/>
      <point x="394" y="965" type="line"/>
      <point x="70" y="900" type="line"/>
      <point x="61" y="853" type="line"/>
      <point x="215" y="776" type="line"/>
    </contour>
  </outline>
</glyph>
<glyph name="Iogonek" format="1">
  <advance width="720"/>
  <unicode hex="012E"/>
  <outline>
    <contour>
      <point x="263" y="139" type="line"/>
      <point x="85" y="86" type="line"/>
      <point x="69" y="0" type="line"/>
      <point x="456" y="0" type="line"/>
      <point x="338" y="-70"/>
      <point x="212" y="-141"/>
      <point x="212" y="-287" type="curve" smooth="yes"/>
      <point x="212" y="-409"/>
      <point x="309" y="-476"/>
      <point x="415" y="-476" type="curve" smooth="yes"/>
      <point x="509" y="-476"/>
      <point x="584" y="-413"/>
      <point x="656" y="-355" type="curve"/>
      <point x="632" y="-317" type="line"/>
      <point x="574" y="-339"/>
      <point x="514" y="-356"/>
      <point x="477" y="-356" type="curve" smooth="yes"/>
      <point x="465" y="-356"/>
      <point x="451" y="-353"/>
      <point x="443" y="-350" type="curve" smooth="yes"/>
      <point x="394" y="-331"/>
      <point x="359" y="-281"/>
      <point x="359" y="-242" type="curve" smooth="yes"/>
      <point x="359" y="-194"/>
      <point x="452" y="-68"/>
      <point x="629" y="0" type="curve"/>
      <point x="647" y="81" type="line"/>
      <point x="455" y="138" type="line"/>
      <point x="455" y="1245" type="line"/>
      <point x="636" y="1299" type="line"/>
      <point x="652" y="1384" type="line"/>
      <point x="92" y="1384" type="line"/>
      <point x="76" y="1303" type="line"/>
      <point x="263" y="1246" type="line"/>
    </contour>
  </outline>
</glyph>
<glyph name="iogonek" format="1">
  <advance width="590"/>
  <unicode hex="012F"/>
  <outline>
    <contour>
      <point x="407" y="1196"/>
      <point x="428" y="1327"/>
      <point x="404" y="1356" type="curve" smooth="yes"/>
      <point x="383" y="1382"/>
      <point x="259" y="1404"/>
      <point x="223" y="1379" type="curve" smooth="yes"/>
      <point x="195" y="1359"/>
      <point x="176" y="1228"/>
      <point x="201" y="1197" type="curve" smooth="yes"/>
      <point x="226" y="1165"/>
      <point x="356" y="1156"/>
      <point x="380" y="1175" type="curve" smooth="yes"/>
    </contour>
    <contour>
      <point x="141" y="-408"/>
      <point x="236" y="-476"/>
      <point x="337" y="-476" type="curve" smooth="yes"/>
      <point x="426" y="-476"/>
      <point x="488" y="-425"/>
      <point x="552" y="-354" type="curve"/>
      <point x="529" y="-316" type="line"/>
      <point x="460" y="-348"/>
      <point x="427" y="-356"/>
      <point x="401" y="-356" type="curve" smooth="yes"/>
      <point x="389" y="-356"/>
      <point x="377" y="-354"/>
      <point x="366" y="-350" type="curve" smooth="yes"/>
      <point x="321" y="-332"/>
      <point x="288" y="-283"/>
      <point x="288" y="-237" type="curve" smooth="yes"/>
      <point x="288" y="-188"/>
      <point x="350" y="-114"/>
      <point x="538" y="0" type="curve"/>
      <point x="560" y="81" type="line"/>
      <point x="394" y="126" type="line"/>
      <point x="394" y="965" type="line"/>
      <point x="70" y="900" type="line"/>
      <point x="61" y="853" type="line"/>
      <point x="215" y="777" type="line"/>
      <point x="215" y="126" type="line"/>
      <point x="68" y="85" type="line"/>
      <point x="54" y="0" type="line"/>
      <point x="416" y="0" type="line"/>
      <point x="289" y="-78"/>
      <point x="141" y="-145"/>
      <point x="141" y="-288" type="curve" smooth="yes"/>
    </contour>
  </outline>
</glyph>
<glyph name="lacute" format="1">
  <advance width="572"/>
  <unicode hex="013A"/>
  <outline>
    <contour>
      <point x="89" y="1599" type="line"/>
      <point x="107" y="1494" type="line"/>
      <point x="545" y="1635" type="line"/>
      <point x="518" y="1785" type="line"/>
      <point x="457" y="1785" type="line"/>
    </contour>
    <contour>
      <point x="40" y="1365" type="line"/>
      <point x="194" y="1287" type="line"/>
      <point x="194" y="126" type="line"/>
      <point x="56" y="83" type="line"/>
      <point x="39" y="0" type="line"/>
      <point x="525" y="0" type="line"/>
      <point x="543" y="82" type="line"/>
      <point x="373" y="126" type="line"/>
      <point x="373" y="1472" type="line"/>
      <point x="49" y="1412" type="line"/>
    </contour>
  </outline>
</glyph>
<glyph name="Lcommaaccent" format="1">
  <advance width="1191"/>
  <unicode hex="013B"/>
  <outline>
    <contour>
      <point x="1110" y="342" type="line"/>
      <point x="980" y="155" type="line"/>
      <point x="455" y="100" type="line"/>
      <point x="455" y="1243" type="line"/>
      <point x="642" y="1298" type="line"/>
      <point x="658" y="1384" type="line"/>
      <point x="93" y="1384" type="line"/>
      <point x="76" y="1300" type="line"/>
      <point x="263" y="1248" type="line"/>
      <point x="263" y="141" type="line"/>
      <point x="84" y="86" type="line"/>
      <point x="69" y="0" type="line"/>
      <point x="1113" y="0" type="line"/>
      <point x="1186" y="322" type="line"/>
    </contour>
    <contour>
      <point x="491" y="-206" type="line"/>
      <point x="575" y="-230"/>
      <point x="595" y="-258"/>
      <point x="595" y="-289" type="curve" smooth="yes"/>
      <point x="595" y="-331"/>
      <point x="557" y="-369"/>
      <point x="477" y="-427" type="curve"/>
      <point x="492" y="-472" type="line"/>
      <point x="552" y="-472"/>
      <point x="713" y="-401"/>
      <point x="713" y="-261" type="curve" smooth="yes"/>
      <point x="713" y="-218"/>
      <point x="693" y="-180"/>
      <point x="664" y="-152" type="curve" smooth="yes"/>
      <point x="627" y="-117"/>
      <point x="576" y="-96"/>
      <point x="519" y="-95" type="curve"/>
    </contour>
  </outline>
</glyph>
<glyph name="lcommaaccent" format="1">
  <advance width="572"/>
  <unicode hex="013C"/>
  <outline>
    <contour>
      <point x="40" y="1365" type="line"/>
      <point x="194" y="1287" type="line"/>
      <point x="194" y="126" type="line"/>
      <point x="56" y="83" type="line"/>
      <point x="39" y="0" type="line"/>
      <point x="525" y="0" type="line"/>
      <point x="543" y="82" type="line"/>
      <point x="373" y="126" type="line"/>
      <point x="373" y="1472" type="line"/>
      <point x="49" y="1412" type="line"/>
    </contour>
    <contour>
      <point x="197" y="-206" type="line"/>
      <point x="281" y="-230"/>
      <point x="301" y="-258"/>
      <point x="301" y="-289" type="curve" smooth="yes"/>
      <point x="301" y="-331"/>
      <point x="263" y="-369"/>
      <point x="183" y="-427" type="curve"/>
      <point x="198" y="-472" type="line"/>
      <point x="258" y="-472"/>
      <point x="419" y="-401"/>
      <point x="419" y="-261" type="curve" smooth="yes"/>
      <point x="419" y="-218"/>
      <point x="399" y="-180"/>
      <point x="370" y="-152" type="curve" smooth="yes"/>
      <point x="333" y="-117"/>
      <point x="282" y="-96"/>
      <point x="225" y="-95" type="curve"/>
    </contour>
  </outline>
</glyph>
<glyph name="Lcaron" format="1">
  <advance width="1191"/>
  <unicode hex="013D"/>
  <outline>
    <contour>
      <point x="884" y="963" type="line"/>
      <point x="984" y="1058"/>
      <point x="1067" y="1209"/>
      <point x="1067" y="1319" type="curve" smooth="yes"/>
      <point x="1067" y="1345"/>
      <point x="1063" y="1369"/>
      <point x="1048" y="1400" type="curve"/>
      <point x="986" y="1399"/>
      <point x="918" y="1390"/>
      <point x="847" y="1378" type="curve"/>
      <point x="833" y="1278" type="line"/>
      <point x="913" y="1244" type="line"/>
      <point x="896" y="1163"/>
      <point x="863" y="1075"/>
      <point x="817" y="982" type="curve"/>
    </contour>
    <contour>
      <point x="1110" y="342" type="line"/>
      <point x="980" y="155" type="line"/>
      <point x="455" y="100" type="line"/>
      <point x="455" y="1243" type="line"/>
      <point x="642" y="1298" type="line"/>
      <point x="658" y="1384" type="line"/>
      <point x="93" y="1384" type="line"/>
      <point x="76" y="1300" type="line"/>
      <point x="263" y="1248" type="line"/>
      <point x="263" y="141" type="line"/>
      <point x="84" y="86" type="line"/>
      <point x="69" y="0" type="line"/>
      <point x="1113" y="0" type="line"/>
      <point x="1186" y="322" type="line"/>
    </contour>
  </outline>
</glyph>
<glyph name="lcaron" format="1">
  <advance width="572"/>
  <unicode hex="013E"/>
  <outline>
    <contour>
      <point x="40" y="1365" type="line"/>
      <point x="194" y="1287" type="line"/>
      <point x="194" y="126" type="line"/>
      <point x="56" y="83" type="line"/>
      <point x="39" y="0" type="line"/>
      <point x="525" y="0" type="line"/>
      <point x="543" y="82" type="line"/>
      <point x="373" y="126" type="line"/>
      <point x="373" y="1472" type="line"/>
      <point x="49" y="1412" type="line"/>
    </contour>
    <contour>
      <point x="496" y="1026" type="line"/>
      <point x="596" y="1121"/>
      <point x="679" y="1272"/>
      <point x="679" y="1382" type="curve" smooth="yes"/>
      <point x="679" y="1408"/>
      <point x="675" y="1432"/>
      <point x="660" y="1463" type="curve"/>
      <point x="598" y="1462"/>
      <point x="530" y="1453"/>
      <point x="459" y="1441" type="curve"/>
      <point x="445" y="1341" type="line"/>
      <point x="525" y="1307" type="line"/>
      <point x="508" y="1226"/>
      <point x="475" y="1138"/>
      <point x="429" y="1045" type="curve"/>
    </contour>
  </outline>
</glyph>
<glyph name="Lslash" format="1">
  <advance width="1191"/>
  <unicode hex="0141"/>
  <outline>
    <contour>
      <point x="1186" y="322" type="line"/>
      <point x="1110" y="342" type="line"/>
      <point x="980" y="155" type="line"/>
      <point x="455" y="100" type="line"/>
      <point x="455" y="658" type="line"/>
      <point x="978" y="895" type="line"/>
      <point x="947" y="1018" type="line"/>
      <point x="455" y="798" type="line"/>
      <point x="455" y="1243" type="line"/>
      <point x="642" y="1298" type="line"/>
      <point x="658" y="1384" type="line"/>
      <point x="93" y="1384" type="line"/>
      <point x="76" y="1300" type="line"/>
      <point x="263" y="1248" type="line"/>
      <point x="263" y="712" type="line"/>
      <point x="48" y="616" type="line"/>
      <point x="76" y="486" type="line"/>
      <point x="263" y="571" type="line"/>
      <point x="263" y="141" type="line"/>
      <point x="84" y="86" type="line"/>
      <point x="69" y="0" type="line"/>
      <point x="1113" y="0" type="line"/>
    </contour>
  </outline>
</glyph>
<glyph name="lslash" format="1">
  <advance width="572"/>
  <unicode hex="0142"/>
  <outline>
    <contour>
      <point x="374" y="126" type="line"/>
      <point x="374" y="795" type="line"/>
      <point x="582" y="892" type="line"/>
      <point x="558" y="996" type="line"/>
      <point x="374" y="908" type="line"/>
      <point x="374" y="1472" type="line"/>
      <point x="50" y="1412" type="line"/>
      <point x="41" y="1365" type="line"/>
      <point x="195" y="1287" type="line"/>
      <point x="195" y="823" type="line"/>
      <point x="-8" y="726" type="line"/>
      <point x="16" y="629" type="line"/>
      <point x="195" y="712" type="line"/>
      <point x="195" y="126" type="line"/>
      <point x="57" y="83" type="line"/>
      <point x="40" y="0" type="line"/>
      <point x="526" y="0" type="line"/>
      <point x="544" y="82" type="line"/>
    </contour>
  </outline>
</glyph>
<glyph name="Ydieresis" format="1">
  <advance width="509"/>
  <unicode hex="0178"/>
  <outline>
    <contour>
      <point x="258" y="337" type="line"/>
      <point x="23" y="722" type="line"/>
      <point x="-1" y="722" type="line"/>
      <point x="234" y="337" type="line"/>
    </contour>
    <contour>
      <point x="482" y="722" type="line"/>
      <point x="234" y="337" type="line"/>
      <point x="258" y="337" type="line"/>
      <point x="506" y="722" type="line"/>
    </contour>
    <contour>
      <point x="258" y="0" type="line"/>
      <point x="258" y="346" type="line"/>
      <point x="234" y="346" type="line"/>
      <point x="234" y="0" type="line"/>
    </contour>
    <component base="dieresis" xOffset="99" yOffset="195"/>
  </outline>
</glyph>
<glyph name="zacute" format="1">
  <advance width="581"/>
  <unicode hex="017A"/>
  <outline>
    <contour>
      <point x="489" y="511" type="line"/>
      <point x="489" y="533" type="line"/>
      <point x="105" y="533" type="line"/>
      <point x="105" y="511" type="line"/>
    </contour>
    <contour>
      <point x="473" y="523" type="line"/>
      <point x="35" y="22" type="line"/>
      <point x="51" y="10" type="line"/>
      <point x="489" y="511" type="line"/>
    </contour>
    <contour>
      <point x="35" y="22" type="line"/>
      <point x="35" y="0" type="line"/>
      <point x="511" y="0" type="line"/>
      <point x="511" y="22" type="line"/>
    </contour>
    <contour>
      <point x="204" y="593" type="line"/>
      <point x="369" y="759" type="line" name="stem"/>
      <point x="339" y="759" type="line" name="stem"/>
      <point x="174" y="593" type="line"/>
    </contour>
  </outline>
</glyph>
<glyph name="dotaccent" format="1">
  <advance width="140"/>
  <unicode hex="02D9"/>
  <outline>
    <contour>
      <point x="99" y="670" type="line" name=""/>
      <point x="99" y="682"/>
      <point x="91" y="689"/>
      <point x="79" y="689" type="curve" name="dot"/>
      <point x="68" y="689"/>
      <point x="61" y="681"/>
      <point x="61" y="670" type="curve" name=""/>
      <point x="99" y="670" type="line" name=""/>
      <point x="99" y="658"/>
      <point x="91" y="652"/>
      <point x="79" y="652" type="curve" name="dot"/>
      <point x="68" y="652"/>
      <point x="61" y="659"/>
      <point x="61" y="670" type="curve" name=""/>
    </contour>
    <component base="nuktadeva" xOffset="554" yOffset="718"/>
  </outline>
</glyph>
<glyph name="circumflex" format="1">
  <advance width="384"/>
  <unicode hex="0302"/>
  <outline>
    <contour>
      <point x="38" y="591" type="line" name="stem"/>
      <point x="203" y="757" type="line"/>
      <point x="173" y="757" type="line"/>
      <point x="8" y="591" type="line" name="stem"/>
    </contour>
    <contour>
      <point x="368" y="591" type="line" name="stem2"/>
      <point x="203" y="757" type="line"/>
      <point x="173" y="757" type="line"/>
      <point x="338" y="591" type="line" name="stem2"/>
    </contour>
  </outline>
</glyph>
<glyph name="tilde" format="1">
  <advance width="399"/>
  <unicode hex="0303"/>
  <outline>
    <contour>
      <point x="368" y="731" type="line"/>
      <point x="355" y="677"/>
      <point x="346" y="627"/>
      <point x="294" y="627" type="curve" smooth="yes"/>
      <point x="255" y="627"/>
      <point x="231" y="646"/>
      <point x="205" y="676" type="curve" smooth="yes"/>
      <point x="177" y="708"/>
      <point x="154" y="731"/>
      <point x="112" y="731" type="curve" smooth="yes"/>
      <point x="49" y="731"/>
      <point x="24" y="679"/>
      <point x="11" y="612" type="curve"/>
      <point x="29" y="607" type="line"/>
      <point x="41" y="664"/>
      <point x="58" y="711"/>
      <point x="112" y="711" type="curve" smooth="yes"/>
      <point x="147" y="711"/>
      <point x="166" y="690"/>
      <point x="189" y="663" type="curve" smooth="yes"/>
      <point x="219" y="629"/>
      <point x="247" y="607"/>
      <point x="292" y="607" type="curve" smooth="yes"/>
      <point x="354" y="607"/>
      <point x="371" y="663"/>
      <point x="387" y="727" type="curve"/>
    </contour>
  </outline>
</glyph>
<glyph name="breve" format="1">
  <advance width="302"/>
  <unicode hex="0306"/>
  <outline>
    <contour>
      <point x="266" y="743" type="line"/>
      <point x="266" y="677"/>
      <point x="219" y="640"/>
      <point x="150" y="640" type="curve" smooth="yes"/>
      <point x="83" y="640"/>
      <point x="39" y="679"/>
      <point x="39" y="744" type="curve"/>
      <point x="18" y="744" type="line"/>
      <point x="18" y="665"/>
      <point x="68" y="620"/>
      <point x="148" y="620" type="curve" smooth="yes"/>
      <point x="232" y="620"/>
      <point x="287" y="663"/>
      <point x="287" y="743" type="curve"/>
    </contour>
  </outline>
</glyph>
<glyph name="ring" format="1">
  <advance width="259"/>
  <unicode hex="030A"/>
  <outline>
    <contour>
      <point x="22" y="665" type="line"/>
      <point x="22" y="595"/>
      <point x="65" y="549"/>
      <point x="134" y="549" type="curve" smooth="yes"/>
      <point x="205" y="549"/>
      <point x="249" y="594"/>
      <point x="249" y="665" type="curve" smooth="yes"/>
      <point x="249" y="736"/>
      <point x="204" y="781"/>
      <point x="132" y="781" type="curve" smooth="yes"/>
      <point x="63" y="781"/>
      <point x="22" y="735"/>
      <point x="22" y="665" type="curve"/>
      <point x="43" y="665" type="line"/>
      <point x="43" y="722"/>
      <point x="76" y="761"/>
      <point x="132" y="761" type="curve" smooth="yes"/>
      <point x="191" y="761"/>
      <point x="228" y="724"/>
      <point x="228" y="665" type="curve" smooth="yes"/>
      <point x="228" y="607"/>
      <point x="192" y="569"/>
      <point x="134" y="569" type="curve" smooth="yes"/>
      <point x="77" y="569"/>
      <point x="43" y="607"/>
      <point x="43" y="665" type="curve"/>
    </contour>
  </outline>
</glyph>
<glyph name="caron" format="1">
  <advance width="381"/>
  <unicode hex="030C"/>
  <outline>
    <contour>
      <point x="338" y="757" type="line" name="stem2"/>
      <point x="173" y="591" type="line"/>
      <point x="203" y="591" type="line"/>
      <point x="368" y="757" type="line" name="stem2"/>
    </contour>
    <contour>
      <point x="8" y="757" type="line" name="stem"/>
      <point x="173" y="591" type="line"/>
      <point x="203" y="591" type="line"/>
      <point x="38" y="757" type="line" name="stem"/>
    </contour>
  </outline>
</glyph>
<glyph name="pi" format="1">
  <advance width="1318"/>
  <unicode hex="03C0"/>
  <outline>
    <contour>
      <point x="925" y="804" type="line"/>
      <point x="1182" y="804" type="line"/>
      <point x="1233" y="950" type="line"/>
      <point x="125" y="950" type="line"/>
      <point x="68" y="804" type="line"/>
      <point x="312" y="804" type="line"/>
      <point x="216" y="-21" type="line"/>
      <point x="421" y="19" type="line"/>
      <point x="459" y="804" type="line"/>
      <point x="783" y="804" type="line"/>
      <point x="774" y="673"/>
      <point x="746" y="223"/>
      <point x="746" y="182" type="curve" smooth="yes"/>
      <point x="746" y="99"/>
      <point x="758" y="-21"/>
      <point x="864" y="-21" type="curve" smooth="yes"/>
      <point x="925" y="-21"/>
      <point x="1018" y="0"/>
      <point x="1153" y="42" type="curve"/>
      <point x="1161" y="96" type="line"/>
      <point x="974" y="96"/>
      <point x="925" y="111"/>
      <point x="925" y="200" type="curve" smooth="yes"/>
    </contour>
  </outline>
</glyph>
<glyph name="candrabindudeva" format="1">
  <advance width="0"/>
  <unicode hex="0901"/>
  <outline>
    <contour>
      <point x="27" y="881" type="line"/>
      <point x="27" y="787"/>
      <point x="-34" y="731"/>
      <point x="-129" y="731" type="curve" smooth="yes"/>
      <point x="-223" y="731"/>
      <point x="-282" y="788"/>
      <point x="-282" y="881" type="curve"/>
      <point x="-303" y="881" type="line"/>
      <point x="-303" y="775"/>
      <point x="-237" y="708"/>
      <point x="-131" y="708" type="curve" smooth="yes"/>
      <point x="-22" y="708"/>
      <point x="48" y="773"/>
      <point x="48" y="881" type="curve"/>
    </contour>
    <component base="nuktadeva" xOffset="356" yOffset="961"/>
  </outline>
</glyph>
<glyph name="dvVisarga" format="1">
  <advance width="129"/>
  <unicode hex="0903"/>
  <outline>
    <contour>
      <point x="85" y="533" type="line" name=""/>
      <point x="85" y="545"/>
      <point x="77" y="553"/>
      <point x="65" y="553" type="curve" name=""/>
      <point x="52" y="553"/>
      <point x="44" y="544"/>
      <point x="44" y="533" type="curve" name=""/>
      <point x="85" y="533" type="line" name=""/>
      <point x="85" y="520"/>
      <point x="77" y="513"/>
      <point x="65" y="513" type="curve" name=""/>
      <point x="52" y="513"/>
      <point x="44" y="521"/>
      <point x="44" y="533" type="curve" name=""/>
    </contour>
    <contour>
      <point x="85" y="306" type="line" name=""/>
      <point x="85" y="318"/>
      <point x="77" y="326"/>
      <point x="65" y="326" type="curve" name=""/>
      <point x="52" y="326"/>
      <point x="44" y="317"/>
      <point x="44" y="306" type="curve" name=""/>
      <point x="85" y="306" type="line" name=""/>
      <point x="85" y="293"/>
      <point x="77" y="286"/>
      <point x="65" y="286" type="curve" name=""/>
      <point x="52" y="286"/>
      <point x="44" y="294"/>
      <point x="44" y="306" type="curve" name=""/>
    </contour>
    <component base="nuktadeva" xOffset="533" yOffset="256"/>
    <component base="nuktadeva" xOffset="533" yOffset="492"/>
  </outline>
</glyph>
<glyph name="dvI" format="1">
  <advance width="555"/>
  <unicode hex="0907"/>
  <outline>
    <contour>
      <point x="-15" y="702" type="line"/>
      <point x="569" y="702" type="line"/>
      <point x="569" y="722" type="line"/>
      <point x="-15" y="722" type="line"/>
    </contour>
    <contour>
      <point x="145" y="267" type="line"/>
      <point x="211" y="298"/>
      <point x="255" y="310"/>
      <point x="328" y="310" type="curve" smooth="yes"/>
      <point x="406" y="310"/>
      <point x="457" y="273"/>
      <point x="457" y="197" type="curve" smooth="yes"/>
      <point x="457" y="91"/>
      <point x="373" y="50"/>
      <point x="256" y="50" type="curve" smooth="yes"/>
      <point x="175" y="50"/>
      <point x="119" y="74"/>
      <point x="99" y="149" type="curve"/>
      <point x="81" y="135" type="line"/>
      <point x="100" y="51"/>
      <point x="165" y="29"/>
      <point x="256" y="29" type="curve" smooth="yes"/>
      <point x="387.176470588" y="29.0"/>
      <point x="479.0" y="78.0"/>
      <point x="479" y="197" type="curve" smooth="yes"/>
      <point x="477.99999819" y="284.000157427"/>
      <point x="421.224489796" y="330.0"/>
      <point x="330" y="330" type="curve" smooth="yes"/>
      <point x="257.811266247" y="331.016742729"/>
      <point x="212.073986753" y="322.03468129"/>
      <point x="148" y="292" type="curve"/>
    </contour>
    <contour>
      <point x="81" y="135" type="line"/>
      <point x="312" y="-141" type="line"/>
      <point x="332" y="-126" type="line"/>
      <point x="99" y="149" type="line"/>
    </contour>
    <contour>
      <point x="417" y="523" type="line"/>
      <point x="417" y="711" type="line"/>
      <point x="395" y="711" type="line"/>
      <point x="395" y="543" type="line"/>
    </contour>
    <contour>
      <point x="395" y="543" type="line"/>
      <point x="208" y="543" type="line" smooth="yes" name=""/>
      <point x="114" y="543"/>
      <point x="47" y="507"/>
      <point x="47" y="417" type="curve" smooth="yes"/>
      <point x="47" y="344"/>
      <point x="85.4866483166" y="305.395710763"/>
      <point x="145" y="267" type="curve"/>
      <point x="148" y="292" type="line"/>
      <point x="102.498110044" y="325.884386137"/>
      <point x="69.0" y="357.4296875"/>
      <point x="69" y="417" type="curve" smooth="yes"/>
      <point x="69" y="494"/>
      <point x="128" y="523"/>
      <point x="208" y="523" type="curve" smooth="yes" name=""/>
      <point x="417" y="523" type="line"/>
    </contour>
  </outline>
</glyph>
<glyph name="dvII" format="1">
  <advance width="566"/>
  <unicode hex="0908"/>
  <outline>
    <contour>
      <point x="417" y="523" type="line"/>
      <point x="417" y="711" type="line"/>
      <point x="395" y="711" type="line"/>
      <point x="395" y="543" type="line"/>
    </contour>
    <contour>
      <point x="145" y="267" type="line"/>
      <point x="211" y="298"/>
      <point x="255" y="310"/>
      <point x="328" y="310" type="curve" smooth="yes"/>
      <point x="406" y="310"/>
      <point x="457" y="273"/>
      <point x="457" y="197" type="curve" smooth="yes"/>
      <point x="457" y="91"/>
      <point x="373" y="50"/>
      <point x="256" y="50" type="curve" smooth="yes"/>
      <point x="175" y="50"/>
      <point x="119" y="74"/>
      <point x="99" y="149" type="curve"/>
      <point x="81" y="135" type="line"/>
      <point x="100" y="51"/>
      <point x="165" y="29"/>
      <point x="256" y="29" type="curve" smooth="yes"/>
      <point x="387" y="29"/>
      <point x="479" y="78"/>
      <point x="479" y="197" type="curve" smooth="yes"/>
      <point x="478" y="284"/>
      <point x="421" y="330"/>
      <point x="330" y="330" type="curve" smooth="yes"/>
      <point x="258" y="331"/>
      <point x="212" y="322"/>
      <point x="148" y="292" type="curve"/>
    </contour>
    <contour>
      <point x="395" y="543" type="line"/>
      <point x="208" y="543" type="line" smooth="yes" name=""/>
      <point x="114" y="543"/>
      <point x="47" y="507"/>
      <point x="47" y="417" type="curve" smooth="yes"/>
      <point x="47" y="344"/>
      <point x="85" y="305"/>
      <point x="145" y="267" type="curve"/>
      <point x="148" y="292" type="line"/>
      <point x="102" y="326"/>
      <point x="69" y="357"/>
      <point x="69" y="417" type="curve" smooth="yes"/>
      <point x="69" y="494"/>
      <point x="128" y="523"/>
      <point x="208" y="523" type="curve" smooth="yes" name=""/>
      <point x="417" y="523" type="line"/>
    </contour>
    <contour>
      <point x="-15" y="702" type="line"/>
      <point x="569" y="702" type="line"/>
      <point x="569" y="722" type="line"/>
      <point x="-15" y="722" type="line"/>
    </contour>
    <contour>
      <point x="81" y="135" type="line"/>
      <point x="312" y="-141" type="line"/>
      <point x="332" y="-126" type="line"/>
      <point x="99" y="149" type="line"/>
    </contour>
    <contour>
      <point x="433" y="722" type="line"/>
      <point x="334" y="722"/>
      <point x="278.999999284" y="790.999931251"/>
      <point x="280" y="887" type="curve" smooth="yes"/>
      <point x="281.000000929" y="973.000079905"/>
      <point x="336" y="1032"/>
      <point x="427" y="1032" type="curve" smooth="yes"/>
      <point x="478" y="1032"/>
      <point x="514" y="1022"/>
      <point x="559" y="999" type="curve"/>
      <point x="568" y="1016" type="line"/>
      <point x="521" y="1041"/>
      <point x="482" y="1052"/>
      <point x="429" y="1052" type="curve" smooth="yes"/>
      <point x="323" y="1052"/>
      <point x="258.0" y="985.0"/>
      <point x="258" y="885" type="curve" smooth="yes"/>
      <point x="258.0" y="777.0"/>
      <point x="322.024390244" y="702.0"/>
      <point x="433" y="702" type="curve"/>
    </contour>
  </outline>
</glyph>
<glyph name="dvU" format="1">
  <advance width="524"/>
  <unicode hex="0909"/>
  <outline>
    <contour>
      <point x="49" y="101" type="line"/>
      <point x="97" y="46"/>
      <point x="159" y="10"/>
      <point x="239" y="10" type="curve" smooth="yes"/>
      <point x="365" y="5"/>
      <point x="461.0" y="72.3"/>
      <point x="461" y="188" type="curve" smooth="yes"/>
      <point x="461.0" y="324.391752577"/>
      <point x="333.539855072" y="384.0"/>
      <point x="184" y="384" type="curve"/>
      <point x="184" y="367" type="line"/>
      <point x="322" y="367"/>
      <point x="439" y="307"/>
      <point x="439" y="187" type="curve" smooth="yes"/>
      <point x="439.0" y="89.3782051282"/>
      <point x="353.000917512" y="25.9999672317"/>
      <point x="241" y="30" type="curve" smooth="yes"/>
      <point x="167.0" y="30.0"/>
      <point x="111.295770614" y="64.6916434024"/>
      <point x="64" y="114" type="curve"/>
    </contour>
    <contour>
      <point x="249" y="702" type="line"/>
      <point x="349" y="702"/>
      <point x="418.0" y="635.2"/>
      <point x="418" y="535" type="curve" smooth="yes"/>
      <point x="418" y="433"/>
      <point x="308" y="388"/>
      <point x="184" y="388" type="curve"/>
      <point x="184" y="370" type="line"/>
      <point x="321" y="370"/>
      <point x="440" y="415"/>
      <point x="440" y="537" type="curve" smooth="yes"/>
      <point x="440.0" y="647.0"/>
      <point x="361.0" y="720.0"/>
      <point x="249" y="720" type="curve"/>
    </contour>
    <contour>
      <point x="537" y="722" type="line"/>
      <point x="-14" y="722" type="line"/>
      <point x="-14" y="702" type="line"/>
      <point x="537" y="702" type="line"/>
    </contour>
  </outline>
</glyph>
